<svg width="123" height="49" viewBox="0 0 123 49" fill="none" xmlns="http://www.w3.org/2000/svg">
<path d="M107.511 22.2476H113.959C125.056 22.2476 125.115 1.80764 114.169 1.54501H107.511V2.13367C108.283 2.13367 108.79 2.72685 108.79 3.61436V20.1873C108.79 21.0929 108.283 21.668 107.511 21.668V22.2476ZM112.251 2.14725H113.982C121.827 2.14725 121.827 21.668 113.982 21.668H112.251C111.475 21.668 110.94 21.0748 110.94 20.1873V3.62795C110.94 2.74044 111.475 2.14725 112.251 2.14725Z" fill="#130F06"/>
<path d="M92.3549 12.1559V3.62941C92.3549 2.72378 91.8206 2.14871 91.0443 2.14871V1.56006H104.794L105.42 7.75905H104.913C104.557 4.50333 102.41 2.16683 99.5746 2.16683H95.7889C95.0126 2.16683 94.5057 2.76001 94.5057 3.64752V11.7212C93.7979 11.8389 93.081 11.9928 92.3549 12.174M94.5057 20.2114C94.5057 21.0944 95.0126 21.6875 95.7889 21.6875H99.5746C102.41 21.6875 104.557 19.351 104.913 16.0998H105.42L104.794 22.249H91.0443V21.6694C91.8206 21.6694 92.3549 21.0762 92.3549 20.1933V13.4781C93.0764 13.2471 93.7934 13.0252 94.5057 12.8803V20.2114Z" fill="#130F06"/>
<path d="M63.7551 22.8496C67.454 22.8496 70.0478 19.8067 70.8241 17.1442L70.4359 15.9307C70.3629 15.9627 70.3026 16.0179 70.2646 16.0876C70.2266 16.1572 70.213 16.2374 70.2259 16.3156C69.8971 19.2407 67.2439 22.2474 63.7551 22.2474C55.9098 22.2474 55.9098 1.54486 63.7551 1.54486C67.2439 1.54486 69.3628 4.26173 70.1482 8.11063H70.477V2.02937H70.2989C70.1208 2.53199 69.9108 3.06631 69.2578 3.06631C68.6047 3.06631 67.6458 2.23766 67.6458 2.23766C66.5327 1.38678 65.1602 0.937925 63.7551 0.965259C52.5397 0.965259 52.5397 22.8496 63.7551 22.8496Z" fill="#130F06"/>
<path d="M87.8256 15.1625V20.1933C87.8256 21.0762 88.2823 21.6694 88.9581 21.6694V22.249H84.3642V21.6694C85.1405 21.6694 85.6748 21.0762 85.6748 20.1933V15.9368C86.4054 15.7014 87.1269 15.4342 87.8256 15.1625ZM85.6748 10.5484V3.62941C85.6748 2.72378 85.1405 2.14871 84.3642 2.14871V1.56006H88.9581V2.14871C88.3005 2.14871 87.8256 2.7419 87.8256 3.62941V13.9218C87.6064 13.9762 87.369 14.0305 87.1726 14.0939C86.6703 14.2161 86.168 14.3248 85.6748 14.4199V10.5484ZM76.1901 9.39823V20.1933C76.1901 21.0762 76.697 21.6694 77.4733 21.6694V22.249H72.9067V21.6694C73.5643 21.6694 74.0118 21.0762 74.0118 20.1933V9.90538C74.2402 9.84651 74.4685 9.79217 74.6877 9.72425C75.1991 9.60199 75.7015 9.49332 76.1901 9.39823ZM74.0164 3.62941C74.0164 2.72378 73.5598 2.14871 72.9113 2.14871V1.56006H77.4778V2.14871C76.7015 2.14871 76.1946 2.7419 76.1946 3.62941V7.88131C75.4549 8.1213 74.7288 8.39299 74.021 8.6692L74.0164 3.62941Z" fill="#130F06"/>
<path d="M39.0686 6.82173H39.5755C39.1873 4.0143 40.2011 2.14871 43.0369 2.14871H43.7812C44.5575 2.14871 45.0644 2.7419 45.0644 3.62941V20.1887C45.0644 21.0944 44.5575 21.6694 43.7812 21.6694V22.249H48.5259V21.6694C47.7496 21.6694 47.2107 21.0762 47.2107 20.1887V3.62941C47.2107 2.72378 47.7496 2.14871 48.5259 2.14871H49.2702C52.1015 2.14871 53.1152 4.0143 52.7317 6.82173H53.2385L53.6952 1.56006H38.6256L39.0686 6.82173Z" fill="#130F06"/>
<path d="M35.27 15.4286C34.3003 14.7882 33.156 14.458 31.9912 14.4822C30.0602 14.4866 28.2078 15.2409 26.831 16.5833L31.2423 4.86904L35.27 15.4286ZM26.1369 18.3855C27.1278 16.3161 29.6622 15.003 32.0505 15.003C33.357 14.9725 34.626 15.4373 35.5987 16.3025L37.1194 20.328C37.4162 21.125 37.1194 21.6865 36.3431 21.6865V22.248H41.2932V21.6684C40.8879 21.6447 40.4986 21.5032 40.1738 21.2617C39.849 21.0201 39.603 20.6891 39.4666 20.3099L32.3154 1.319H32.0779L24.913 20.3099C24.7798 20.6911 24.5347 21.024 24.2092 21.2661C23.8837 21.5081 23.4927 21.6482 23.0864 21.6684V22.248H26.1871V21.6684C25.4154 21.6684 25.114 21.1069 25.4154 20.3099L26.1369 18.3855Z" fill="#130F06"/>
<path d="M10.9295 22.249L17.8524 2.97736L18.5374 20.1842C18.5648 21.0898 18.0305 21.6649 17.2542 21.6649V22.249H21.9668V21.6694C21.1905 21.6694 20.7156 21.0762 20.6836 20.1887L19.9393 3.62941C19.9073 2.72378 20.4462 2.14871 21.2225 2.14871V1.56006H17.793L11.4684 19.274L4.22125 1.56006H1.29867V2.14871C1.53281 2.14455 1.76337 2.20611 1.96375 2.32629C2.16413 2.44647 2.32617 2.62037 2.43117 2.82793L2.51793 3.00906C2.58593 3.20849 2.60625 3.42086 2.5773 3.62941L1.53613 20.1887C1.47676 21.0944 1.02924 21.6694 0.25293 21.6694V22.249H3.35361V21.6694C3.16688 21.6698 2.9823 21.63 2.81265 21.5526C2.64301 21.4752 2.49236 21.3622 2.37116 21.2213C2.24996 21.0805 2.16111 20.9151 2.11075 20.7368C2.0604 20.5585 2.04975 20.3715 2.07955 20.1887L3.05679 4.39919L10.2993 22.249H10.9295Z" fill="#130F06"/>
<path d="M6.48733 28.2685C6.30992 28.2601 6.13291 28.292 5.96986 28.3619C5.80682 28.4317 5.66204 28.5376 5.54662 28.6715C5.30432 28.9776 5.18259 29.3606 5.20413 29.7492V37.1889C5.19568 37.3951 5.25851 37.598 5.38222 37.764C5.44291 37.8382 5.52053 37.897 5.60866 37.9355C5.6968 37.9741 5.79293 37.9914 5.88911 37.9858H8.96239C9.35865 38.001 9.75327 37.9275 10.1169 37.7707C10.4806 37.614 10.804 37.3779 11.063 37.0802C11.6177 36.4017 11.8991 35.5435 11.853 34.6713H12.3919V41.9027H11.853C11.8991 41.0304 11.6177 40.1722 11.063 39.4937C10.804 39.196 10.4806 38.9599 10.1169 38.8032C9.75327 38.6464 9.35865 38.5729 8.96239 38.5881H5.88911C5.79293 38.5825 5.6968 38.5998 5.60866 38.6384C5.52053 38.6769 5.44291 38.7358 5.38222 38.8099C5.25851 38.9759 5.19568 39.1788 5.20413 39.385V46.3085C5.18301 46.697 5.3047 47.0799 5.54662 47.3862C5.66227 47.5195 5.8072 47.6247 5.97028 47.6938C6.13336 47.7629 6.31024 47.794 6.48733 47.7847V48.3779H1.77466V47.7847C1.95099 47.7933 2.12698 47.7619 2.28921 47.6928C2.45144 47.6238 2.59563 47.5189 2.7108 47.3862C2.95272 47.0799 3.07441 46.697 3.05329 46.3085V29.7492C3.07483 29.3606 2.9531 28.9776 2.7108 28.6715C2.5985 28.541 2.4582 28.4372 2.30018 28.3674C2.14215 28.2977 1.9704 28.2639 1.79749 28.2685V27.6798H15.4971L16.1501 33.8607H15.6113C15.5221 33.082 15.3223 32.3198 15.0176 31.5967C14.7409 30.9446 14.3515 30.3454 13.8669 29.8262C13.4078 29.3379 12.8551 28.9453 12.2412 28.6715C11.623 28.3939 10.9516 28.2518 10.273 28.2549L6.48733 28.2685Z" fill="#130F06"/>
<path d="M26.6161 27.0874C27.8858 27.0607 29.1375 27.3887 30.2283 28.0337C31.2605 28.6664 32.141 29.5147 32.8084 30.5197C33.516 31.5935 34.0391 32.7763 34.3564 34.0199C35.0506 36.6472 35.0506 39.4074 34.3564 42.0347C34.0378 43.2792 33.5148 44.4633 32.8084 45.5394C32.1409 46.5431 31.2603 47.39 30.2283 48.0208C29.1379 48.6664 27.8857 48.9929 26.6161 48.9627C25.3476 48.9917 24.0967 48.6635 23.0086 48.0163C21.9756 47.3866 21.0947 46.5395 20.4285 45.5349C19.7224 44.458 19.198 43.2742 18.8758 42.0301C18.1817 39.4029 18.1817 36.6426 18.8758 34.0154C19.1962 32.7707 19.7208 31.5866 20.4285 30.5106C21.0946 29.5046 21.9754 28.656 23.0086 28.0247C24.0985 27.3827 25.3487 27.0579 26.6161 27.0874ZM26.6161 27.6805C25.6808 27.671 24.7726 27.9921 24.0543 28.5862C23.2813 29.2294 22.6581 30.0312 22.2277 30.9363C21.7048 31.9828 21.3328 33.0971 21.1226 34.2463C20.6477 36.7587 20.6477 39.3367 21.1226 41.849C21.3336 42.9995 21.7055 44.1151 22.2277 45.1636C22.6605 46.0672 23.2833 46.8685 24.0543 47.5137C24.7825 48.0901 25.6866 48.4041 26.6184 48.4041C27.5502 48.4041 28.4543 48.0901 29.1825 47.5137C29.9592 46.8683 30.5894 46.0675 31.032 45.1636C31.5522 44.1143 31.924 42.999 32.1371 41.849C32.612 39.3367 32.612 36.7587 32.1371 34.2463C31.9247 33.0976 31.5528 31.9837 31.032 30.9363C30.5918 30.0309 29.9612 29.2296 29.1825 28.5862C28.4628 27.9914 27.553 27.6703 26.6161 27.6805Z" fill="#130F06"/>
<path d="M43.8267 27.6809H44.0368C45.2725 27.6608 46.4963 27.9243 47.6124 28.4507C48.5086 28.8646 49.2917 29.4857 49.8956 30.2619C50.4135 30.9632 50.7356 31.7876 50.8294 32.6518C50.9232 33.516 50.7854 34.3895 50.4299 35.184C50.0376 36.0272 49.4377 36.7591 48.6855 37.3122C47.7862 37.973 46.7373 38.4052 45.6305 38.571C46.1107 38.8667 46.5205 39.2622 46.8315 39.7302C47.2273 40.2736 47.6291 40.8773 48.0371 41.5415C48.445 42.2056 48.8529 42.9105 49.2609 43.6561C49.6333 44.3542 50.0418 45.0329 50.4847 45.6892C50.8609 46.2447 51.3058 46.7513 51.809 47.1971C52.1955 47.5654 52.707 47.777 53.2429 47.7903V48.3835H51.2747C50.6587 48.3831 50.0624 48.1684 49.5897 47.7767C49.0521 47.3246 48.5844 46.7968 48.2014 46.21C47.7464 45.5351 47.3331 44.8335 46.9639 44.1089C46.5758 43.3482 46.2013 42.6101 45.8314 41.8901C45.4964 41.226 45.1275 40.5791 44.7263 39.9521C44.4418 39.4668 44.0499 39.0518 43.5801 38.7386H41.2329C41.1369 38.7341 41.0411 38.7518 40.9531 38.7903C40.8652 38.8289 40.7874 38.8871 40.726 38.9604C40.5997 39.127 40.5352 39.3318 40.5434 39.54V46.3322C40.5222 46.7207 40.6439 47.1036 40.8859 47.4099C41.0019 47.5427 41.1469 47.6476 41.3099 47.7166C41.4729 47.7856 41.6496 47.817 41.8266 47.8084V48.4016H37.1139V47.8084C37.2909 47.817 37.4676 47.7856 37.6305 47.7166C37.7935 47.6476 37.9385 47.5427 38.0546 47.4099C38.2965 47.1036 38.4182 46.7207 38.3971 46.3322V29.7503C38.4186 29.3617 38.2969 28.9787 38.0546 28.6726C37.939 28.539 37.7941 28.4332 37.6311 28.3634C37.4682 28.2936 37.2913 28.2615 37.1139 28.2696V27.6809H43.8267ZM40.5434 37.353C40.5335 37.5601 40.5983 37.7639 40.726 37.928C40.7867 38.0022 40.8643 38.0611 40.9525 38.0996C41.0406 38.1382 41.1367 38.1554 41.2329 38.1499H43.8541C44.7287 38.1864 45.5942 37.9621 46.339 37.5061C47.0838 37.0501 47.6736 36.3832 48.0325 35.5915C48.3724 34.8426 48.5498 34.0311 48.5531 33.2097C48.5637 32.3942 48.3856 31.5872 48.0325 30.8506C47.6741 30.1144 47.1298 29.4827 46.4525 29.0167C45.6829 28.5142 44.775 28.261 43.8541 28.2922H41.8083C41.6309 28.2841 41.454 28.3162 41.291 28.386C41.128 28.4559 40.9832 28.5616 40.8676 28.6952C40.6253 29.0013 40.5036 29.3844 40.5251 29.7729L40.5434 37.353Z" fill="#130F06"/>
<path d="M58.0834 46.313C58.0623 46.7015 58.184 47.0844 58.4259 47.3907C58.5415 47.524 58.6865 47.6293 58.8495 47.6984C59.0126 47.7674 59.1895 47.7985 59.3666 47.7892V48.3824H54.6219V47.7892C54.8009 47.7969 54.9793 47.7652 55.1443 47.6963C55.3094 47.6274 55.4569 47.523 55.5764 47.3907C55.8266 47.0882 55.9537 46.7038 55.9325 46.313V29.7492C55.9542 29.3584 55.827 28.9738 55.5764 28.6715C55.4571 28.5386 55.3097 28.4336 55.1447 28.3639C54.9797 28.2942 54.8012 28.2616 54.6219 28.2685V27.6798H59.3666V28.2685C59.1892 28.2601 59.0122 28.292 58.8491 28.3619C58.6861 28.4317 58.5413 28.5376 58.4259 28.6715C58.1836 28.9776 58.0618 29.3606 58.0834 29.7492V37.1889C58.0678 37.3981 58.1259 37.6061 58.2478 37.7775C58.3085 37.8517 58.3861 37.9106 58.4742 37.9491C58.5624 37.9877 58.6585 38.005 58.7547 37.9994H61.8279C62.2242 38.0146 62.6188 37.9411 62.9825 37.7843C63.3462 37.6275 63.6695 37.3915 63.9286 37.0938C64.4813 36.4143 64.7625 35.5568 64.7186 34.6848H65.2574V41.9027H64.7323C64.7762 41.0307 64.495 40.1732 63.9423 39.4937C63.6832 39.196 63.3599 38.9599 62.9962 38.8032C62.6325 38.6464 62.2379 38.5729 61.8416 38.5881H58.7684C58.6722 38.5825 58.5761 38.5998 58.4879 38.6384C58.3998 38.6769 58.3222 38.7358 58.2615 38.81C58.1378 38.9759 58.0749 39.1788 58.0834 39.385V46.313ZM59.394 28.2685V27.6798H68.3718L68.9974 33.8607H68.4905C68.4014 33.082 68.2015 32.3198 67.8969 31.5967C67.6202 30.9446 67.2307 30.3454 66.7461 29.8262C66.2903 29.3402 65.7426 28.9479 65.1341 28.6715C64.5122 28.3906 63.8357 28.2484 63.1522 28.2549L59.394 28.2685ZM59.394 47.7892H63.1522C63.8353 47.7972 64.5118 47.6565 65.1341 47.3771C65.7426 47.1007 66.2903 46.7084 66.7461 46.2225C67.2321 45.6975 67.6215 45.0921 67.8969 44.4339C68.2019 43.7109 68.4018 42.9486 68.4905 42.1698H68.9974L68.3718 48.3507H59.394V47.7892Z" fill="#130F06"/>
<path d="M75.2638 28.2685C75.1063 28.251 74.9469 28.2778 74.8039 28.3458C74.661 28.4139 74.5403 28.5205 74.4556 28.6534C74.3877 28.8086 74.3554 28.9769 74.3609 29.146C74.3664 29.3151 74.4097 29.4809 74.4875 29.6315L80.3053 45.0678L86.1048 29.6315C86.1826 29.4809 86.2259 29.3151 86.2314 29.146C86.2369 28.9769 86.2046 28.8086 86.1368 28.6534C86.052 28.5205 85.9313 28.4139 85.7884 28.3458C85.6454 28.2778 85.4861 28.251 85.3285 28.2685V27.6798H88.4611V28.2685C88.0651 28.2697 87.6815 28.4056 87.3743 28.6534C87.0464 28.9083 86.794 29.2462 86.6436 29.6315L79.4833 48.6178H79.255L72.0992 29.6315C71.9473 29.247 71.6951 28.9095 71.3686 28.6534C71.0617 28.4049 70.6779 28.269 70.2817 28.2685V27.6798H75.2638V28.2685Z" fill="#130F06"/>
<path d="M93.22 46.313C93.1989 46.7015 93.3205 47.0844 93.5625 47.3907C93.6752 47.5204 93.8157 47.6234 93.9737 47.6923C94.1317 47.7613 94.3032 47.7944 94.4758 47.7892V48.3824H89.7585V47.7892C89.9375 47.7969 90.1159 47.7652 90.2809 47.6963C90.446 47.6274 90.5935 47.523 90.713 47.3907C90.9632 47.0882 91.0903 46.7038 91.0691 46.313V29.7492C91.0907 29.3584 90.9636 28.9738 90.713 28.6715C90.5937 28.5386 90.4463 28.4336 90.2813 28.3639C90.1163 28.2942 89.9378 28.2616 89.7585 28.2685V27.6798H94.4986V28.2685C94.3257 28.2639 94.154 28.2977 93.9959 28.3674C93.8379 28.4372 93.6976 28.541 93.5853 28.6715C93.343 28.9776 93.2213 29.3606 93.2428 29.7492V37.1889C93.2285 37.3986 93.2883 37.6067 93.4118 37.7775C93.4725 37.8517 93.5501 37.9106 93.6382 37.9491C93.7264 37.9877 93.8225 38.005 93.9187 37.9994H96.9874C97.3843 38.015 97.7798 37.9417 98.1442 37.7849C98.5087 37.6281 98.8328 37.3919 99.0926 37.0938C99.6453 36.4143 99.9265 35.5568 99.8826 34.6848H100.421V41.9027H99.8826C99.9265 41.0307 99.6453 40.1732 99.0926 39.4937C98.8328 39.1956 98.5087 38.9594 98.1442 38.8026C97.7798 38.6458 97.3843 38.5725 96.9874 38.5881H93.9187C93.8225 38.5825 93.7264 38.5998 93.6382 38.6384C93.5501 38.6769 93.4725 38.7358 93.4118 38.81C93.2881 38.9759 93.2252 39.1788 93.2337 39.385L93.22 46.313ZM94.5306 28.2685V27.6798H103.508L104.134 33.8607H103.627C103.539 33.0814 103.337 32.3189 103.029 31.5967C102.755 30.9439 102.367 30.3445 101.883 29.8262C101.423 29.3441 100.872 28.9564 100.262 28.6851C99.6395 28.4047 98.9631 28.2625 98.2797 28.2685H94.5306ZM94.5306 47.7892H98.2888C98.9719 47.7967 99.6483 47.6561 100.271 47.3771C100.879 47.1007 101.427 46.7084 101.883 46.2225C102.369 45.6984 102.757 45.0928 103.029 44.4339C103.338 43.7118 103.539 42.9492 103.627 42.1698H104.134L103.508 48.3507H94.5306V47.7892Z" fill="#130F06"/>
<path d="M112.931 27.6807H113.137C114.368 27.6629 115.587 27.9263 116.699 28.4505C117.595 28.8644 118.378 29.4855 118.982 30.2617C119.5 30.963 119.822 31.7874 119.916 32.6516C120.01 33.5158 119.872 34.3893 119.516 35.1838C119.122 36.0261 118.523 36.7576 117.772 37.312C116.873 37.9728 115.824 38.405 114.717 38.5708C115.191 38.8609 115.598 39.2485 115.909 39.7074C116.308 40.2507 116.709 40.8545 117.114 41.5186C117.519 42.1827 117.927 42.8876 118.338 43.6332C118.745 44.3623 119.165 45.0324 119.589 45.6437C119.968 46.1984 120.415 46.7048 120.918 47.1516C121.305 47.5199 121.816 47.7315 122.352 47.7448V48.338H120.384C119.768 48.3376 119.172 48.1229 118.699 47.7312C118.15 47.2814 117.671 46.7534 117.279 46.1645C116.824 45.4896 116.41 44.788 116.041 44.0634C115.653 43.3027 115.279 42.5646 114.909 41.8446C114.539 41.1247 114.173 40.4862 113.804 39.9066C113.519 39.4213 113.127 39.0063 112.657 38.6931H110.333C110.237 38.6886 110.141 38.7063 110.053 38.7448C109.965 38.7833 109.887 38.8416 109.826 38.9149C109.7 39.0815 109.635 39.2863 109.643 39.4945V46.2867C109.622 46.6752 109.744 47.0581 109.986 47.3644C110.102 47.4972 110.247 47.6021 110.41 47.6711C110.573 47.7401 110.75 47.7715 110.927 47.7629V48.3561H106.219V47.7629C106.396 47.7715 106.572 47.7401 106.735 47.6711C106.898 47.6021 107.043 47.4972 107.159 47.3644C107.401 47.0581 107.523 46.6752 107.502 46.2867V29.75C107.523 29.3615 107.402 28.9784 107.159 28.6723C107.044 28.5387 106.899 28.433 106.736 28.3632C106.573 28.2934 106.396 28.2613 106.219 28.2693V27.6807H112.931ZM109.648 37.3527C109.638 37.5598 109.703 37.7637 109.831 37.9278C109.891 38.002 109.969 38.0608 110.057 38.0994C110.145 38.138 110.241 38.1552 110.338 38.1497H112.959C113.836 38.1899 114.706 37.9674 115.454 37.5111C116.203 37.0549 116.795 36.386 117.155 35.5913C117.495 34.8423 117.673 34.0308 117.676 33.2095C117.687 32.394 117.508 31.5869 117.155 30.8504C116.797 30.1142 116.253 29.4825 115.575 29.0165C114.806 28.5139 113.898 28.2608 112.977 28.292H110.949C110.772 28.2839 110.595 28.316 110.432 28.3858C110.269 28.4557 110.124 28.5614 110.009 28.695C109.766 29.0011 109.645 29.3841 109.666 29.7727L109.648 37.3527Z" fill="#130F06"/>
<path d="M78.6965 11.6011C79.7468 13.281 81.4593 13.7565 83.5005 13.6523C84.7344 13.558 85.9571 13.3534 87.1538 13.041C87.51 12.9323 87.8981 12.8554 88.2543 12.7467C89.3777 12.4524 90.565 12.0992 91.702 11.8773C93.273 11.452 94.8819 11.1791 96.506 11.0622C97.6692 10.9703 98.8395 11.0916 99.9583 11.42L99.9857 11.9226C98.9327 11.5707 97.8205 11.4261 96.7115 11.4969C95.0104 11.6502 93.3378 12.0295 91.7386 12.6244C90.5924 13.0139 89.4553 13.4712 88.3137 13.9059C86.3089 14.6983 84.1261 15.527 81.9616 15.6402C79.7971 15.7534 77.2444 14.3044 78.6965 11.6011Z" fill="#BD9265"/>
<path d="M83.1737 12.2125C82.1234 10.537 80.4109 10.0571 78.3651 10.1657C77.1317 10.2609 75.9092 10.464 74.7119 10.7725C74.3603 10.8812 73.9721 10.9627 73.6159 11.0714C72.488 11.3612 71.3053 11.7144 70.1682 11.9362C68.5903 12.3558 66.9755 12.6241 65.3459 12.7377C64.1828 12.8277 63.0129 12.7065 61.8936 12.38L61.8662 11.8728C62.9193 12.2247 64.0315 12.3693 65.1404 12.2985C66.8437 12.1543 68.5196 11.7827 70.1225 11.1936C71.2733 10.7997 72.4058 10.3469 73.5474 9.90764C75.5567 9.11522 77.7395 8.28658 79.8995 8.17337C82.0595 8.06017 84.6258 9.50917 83.1737 12.2125Z" fill="#BD9265"/>
</svg>
