<svg width="800" height="800" viewBox="0 0 800 800" fill="none" xmlns="http://www.w3.org/2000/svg">
<path opacity="0.5" d="M310.059 250C310.422 184.749 313.315 149.412 336.367 126.36C362.728 100 405.154 100 490.006 100H520.006C604.858 100 647.287 100 673.645 126.36C700.006 152.721 700.006 195.147 700.006 280V520C700.006 604.852 700.006 647.278 673.645 673.639C647.287 700 604.858 700 520.006 700H490.006C405.154 700 362.728 700 336.367 673.639C313.315 650.587 310.422 615.25 310.059 550" stroke="#CCCCCC" stroke-width="50" stroke-linecap="round"/>
<path d="M490 400H100M100 400L205 310M100 400L205 490" stroke="#CCCCCC" stroke-width="50" stroke-linecap="round" stroke-linejoin="round"/>
</svg>
