<svg width="800" height="800" viewBox="0 0 800 800" fill="none" xmlns="http://www.w3.org/2000/svg">
<path fill-rule="evenodd" clip-rule="evenodd" d="M522.495 280C522.495 213.82 467.556 160 400.001 160C332.445 160 277.507 213.82 277.507 280C277.507 346.18 332.445 400 400.001 400C467.556 400 522.495 346.18 522.495 280ZM638.374 700H583.742C566.838 700 553.118 686.56 553.118 670C553.118 653.44 566.838 640 583.742 640H596.879C618.07 640 633.719 619.09 625.696 599.86C588.611 510.939 501.517 460 400.001 460C298.484 460 211.391 510.939 174.306 599.86C166.282 619.09 181.931 640 203.123 640H216.26C233.164 640 246.883 653.44 246.883 670C246.883 686.56 233.164 700 216.26 700H161.627C123.348 700 93.2145 665.71 101.33 629.08C123.624 528.309 193.231 453.939 284.918 420.189C243.086 387.219 216.26 336.7 216.26 280C216.26 173.47 310.703 88.5693 422.019 101.259C502.681 110.439 569.501 173.408 581.597 252.098C592.009 319.928 563.683 381.879 515.083 420.189C606.77 453.939 676.378 528.309 698.672 629.08C706.787 665.71 676.653 700 638.374 700ZM491.871 670C491.871 686.56 478.152 700 461.248 700H338.754C321.85 700 308.13 686.56 308.13 670C308.13 653.44 321.85 640 338.754 640H461.248C478.152 640 491.871 653.44 491.871 670Z" fill="#CCCCCC"/>
</svg>
