<svg width="800" height="800" viewBox="0 0 800 800" fill="none" xmlns="http://www.w3.org/2000/svg">
<path fill-rule="evenodd" clip-rule="evenodd" d="M399.521 485.742C353.361 485.742 315.943 447.365 315.943 400.021C315.943 352.678 353.361 314.301 399.521 314.301C445.678 314.301 483.099 352.678 483.099 400.021C483.099 422.754 474.291 444.557 458.621 460.634C442.947 476.711 421.689 485.742 399.521 485.742Z" stroke="#CCCCCC" stroke-width="50" stroke-linecap="round" stroke-linejoin="round"/>
<path fill-rule="evenodd" clip-rule="evenodd" d="M621.713 574.163V516.645C621.713 502.402 627.229 488.743 637.049 478.671L676.707 437.996C697.156 417.025 697.156 383.019 676.707 362.048L637.049 321.373C627.229 311.302 621.713 297.642 621.713 283.399V225.837C621.713 196.178 598.269 172.133 569.351 172.133H513.23C499.343 172.133 486.022 166.475 476.203 156.404L436.544 115.729C416.095 94.7569 382.943 94.7569 362.494 115.729L322.839 156.404C313.019 166.475 299.701 172.133 285.814 172.133H229.691C215.797 172.133 202.472 177.797 192.651 187.878C182.83 197.959 177.319 211.63 177.33 225.88V283.399C177.33 297.642 171.813 311.302 161.993 321.373L122.336 362.048C101.888 383.019 101.888 417.025 122.336 437.996L161.993 478.671C171.813 488.743 177.33 502.402 177.33 516.645V574.163C177.33 603.823 200.773 627.867 229.691 627.867H285.814C299.701 627.867 313.019 633.525 322.839 643.597L362.494 684.271C382.943 705.243 416.095 705.243 436.544 684.271L476.203 643.597C486.022 633.525 499.343 627.867 513.23 627.867H569.308C583.203 627.88 596.533 622.227 606.361 612.15C616.189 602.078 621.713 588.414 621.713 574.163Z" stroke="#CCCCCC" stroke-width="50" stroke-linecap="round" stroke-linejoin="round"/>
</svg>
