<svg width="20" height="20" viewBox="0 0 20 20" fill="none" xmlns="http://www.w3.org/2000/svg">
<path d="M10 -0.000976562C4.4772 -0.000976562 0 4.47622 0 9.99902C0 14.6886 3.2288 18.6238 7.5844 19.7046V13.055H5.5224V9.99902H7.5844V8.68222C7.5844 5.27862 9.1248 3.70102 12.4664 3.70102C13.1 3.70102 14.1932 3.82542 14.6404 3.94942V6.71942C14.4044 6.69462 13.9944 6.68222 13.4852 6.68222C11.8456 6.68222 11.212 7.30342 11.212 8.91822V9.99902H14.4784L13.9172 13.055H11.212V19.9258C16.1636 19.3278 20.0004 15.1118 20.0004 9.99902C20 4.47622 15.5228 -0.000976562 10 -0.000976562Z" fill="#130F06"/>
</svg>
