<svg width="20" height="20" viewBox="0 0 20 20" fill="none" xmlns="http://www.w3.org/2000/svg">
<path d="M18.5195 -0.000976562H1.47656C0.660156 -0.000976562 0 0.643555 0 1.44043V18.5537C0 19.3506 0.660156 19.999 1.47656 19.999H18.5195C19.3359 19.999 20 19.3506 20 18.5576V1.44043C20 0.643555 19.3359 -0.000976562 18.5195 -0.000976562ZM5.93359 17.042H2.96484V7.49512H5.93359V17.042ZM4.44922 6.19434C3.49609 6.19434 2.72656 5.4248 2.72656 4.47559C2.72656 3.52637 3.49609 2.75684 4.44922 2.75684C5.39844 2.75684 6.16797 3.52637 6.16797 4.47559C6.16797 5.4209 5.39844 6.19434 4.44922 6.19434ZM17.043 17.042H14.0781V12.4014C14.0781 11.2959 14.0586 9.87012 12.5352 9.87012C10.9922 9.87012 10.7578 11.0771 10.7578 12.3232V17.042H7.79688V7.49512H10.6406V8.7998H10.6797C11.0742 8.0498 12.043 7.25684 13.4844 7.25684C16.4883 7.25684 17.043 9.2334 17.043 11.8037V17.042Z" fill="#130F06"/>
</svg>
