<svg width="184" height="72" viewBox="0 0 184 72" fill="none" xmlns="http://www.w3.org/2000/svg">
<path d="M160.885 31.9246H170.557C187.202 31.9246 187.291 1.26504 170.872 0.871094H160.885V1.75407C162.043 1.75407 162.803 2.64383 162.803 3.97508V28.8342C162.803 30.1926 162.043 31.0552 160.885 31.0552V31.9246ZM167.995 1.77444H170.591C182.359 1.77444 182.359 31.0552 170.591 31.0552H167.995C166.831 31.0552 166.029 30.1654 166.029 28.8342V3.99546C166.029 2.66421 166.831 1.77444 167.995 1.77444Z" fill="#130F06"/>
<path d="M138.151 16.7871V3.99754C138.151 2.63912 137.349 1.77653 136.185 1.77653V0.893555H156.81L157.748 10.1919H156.988C156.453 5.30842 153.234 1.8037 148.98 1.8037H143.302C142.137 1.8037 141.377 2.69346 141.377 4.02471V16.135C140.315 16.3116 139.24 16.5426 138.151 16.8142M141.377 28.8702C141.377 30.1947 142.137 31.0844 143.302 31.0844H148.98C153.234 31.0844 156.453 27.5797 156.988 22.703H157.748L156.81 31.9267H136.185V31.0573C137.349 31.0573 138.151 30.1675 138.151 28.843V18.7704C139.233 18.424 140.309 18.0912 141.377 17.8738V28.8702Z" fill="#130F06"/>
<path d="M95.2511 32.828C100.799 32.828 104.69 28.2637 105.854 24.2699L105.272 22.4497C105.163 22.4977 105.072 22.5805 105.015 22.685C104.958 22.7895 104.938 22.9097 104.957 23.027C104.464 27.4147 100.484 31.9246 95.2511 31.9246C83.4832 31.9246 83.4832 0.871156 95.2511 0.871156C100.484 0.871156 103.663 4.94642 104.841 10.7197H105.334V1.59791H105.067C104.8 2.35183 104.485 3.1533 103.505 3.1533C102.525 3.1533 101.087 1.91035 101.087 1.91035C99.4175 0.634048 97.3588 -0.0392329 95.2511 0.00176776C78.4281 0.00176776 78.4281 32.828 95.2511 32.828Z" fill="#130F06"/>
<path d="M131.358 21.297V28.843C131.358 30.1675 132.043 31.0573 133.057 31.0573V31.9267H126.166V31.0573C127.331 31.0573 128.132 30.1675 128.132 28.843V22.4585C129.228 22.1053 130.31 21.7045 131.358 21.297ZM128.132 14.3759V3.99754C128.132 2.63912 127.331 1.77653 126.166 1.77653V0.893555H133.057V1.77653C132.071 1.77653 131.358 2.66629 131.358 3.99754V19.436C131.03 19.5175 130.673 19.599 130.379 19.6941C129.625 19.8775 128.872 20.0405 128.132 20.1831V14.3759ZM113.905 12.6507V28.843C113.905 30.1675 114.666 31.0573 115.83 31.0573V31.9267H108.98V31.0573C109.967 31.0573 110.638 30.1675 110.638 28.843V13.4114C110.98 13.3231 111.323 13.2416 111.652 13.1397C112.419 12.9563 113.172 12.7933 113.905 12.6507ZM110.645 3.99754C110.645 2.63912 109.96 1.77653 108.987 1.77653V0.893555H115.837V1.77653C114.672 1.77653 113.912 2.66629 113.912 3.99754V10.3753C112.802 10.7353 111.713 11.1428 110.652 11.5572L110.645 3.99754Z" fill="#130F06"/>
<path d="M58.2234 8.78598H58.9837C58.4015 4.57487 59.9221 1.77653 64.1758 1.77653H65.2923C66.4568 1.77653 67.2171 2.66629 67.2171 3.99754V28.8363C67.2171 30.1947 66.4568 31.0573 65.2923 31.0573V31.9267H72.4092V31.0573C71.2447 31.0573 70.4364 30.1675 70.4364 28.8363V3.99754C70.4364 2.63912 71.2447 1.77653 72.4092 1.77653H73.5257C77.7725 1.77653 79.2932 4.57487 78.7178 8.78598H79.4781L80.1631 0.893555H57.5589L58.2234 8.78598Z" fill="#130F06"/>
<path d="M52.5257 21.6954C51.0712 20.7349 49.3548 20.2395 47.6076 20.2759C44.7112 20.2825 41.9327 21.4138 39.8674 23.4274L46.4842 5.85626L52.5257 21.6954ZM38.8262 26.1307C40.3126 23.0267 44.1142 21.057 47.6966 21.057C49.6563 21.0112 51.5597 21.7084 53.0189 23.0063L55.2999 29.0445C55.7451 30.2399 55.2998 31.0821 54.1354 31.0821V31.9243H61.5605V31.0549C60.9526 31.0194 60.3686 30.8072 59.8814 30.4449C59.3942 30.0826 59.0253 29.5861 58.8206 29.0173L48.0939 0.53125H47.7377L36.9905 29.0173C36.7906 29.589 36.4229 30.0885 35.9347 30.4515C35.4466 30.8146 34.8601 31.0247 34.2506 31.0549V31.9243H38.9016V31.0549C37.744 31.0549 37.2919 30.2127 37.744 29.0173L38.8262 26.1307Z" fill="#130F06"/>
<path d="M16.0147 31.9267L26.3989 3.01948L27.4263 28.8295C27.4674 30.1879 26.666 31.0505 25.5016 31.0505V31.9267H32.5705V31.0573C31.406 31.0573 30.6937 30.1675 30.6457 28.8363L29.5292 3.99754C29.4813 2.63912 30.2895 1.77653 31.454 1.77653V0.893555H26.3098L16.8229 27.4642L5.95242 0.893555H1.56859V1.77653C1.9198 1.77029 2.26564 1.86263 2.56621 2.04289C2.86677 2.22316 3.10983 2.484 3.26732 2.79534L3.39747 3.06703C3.49946 3.36617 3.52995 3.68472 3.48652 3.99754L1.92478 28.8363C1.83573 30.1947 1.16446 31.0573 0 31.0573V31.9267H4.65097V31.0573C4.37088 31.0579 4.094 30.9981 3.83954 30.882C3.58508 30.7659 3.35911 30.5964 3.17732 30.3851C2.99552 30.1738 2.86223 29.9259 2.7867 29.6584C2.71117 29.391 2.6952 29.1104 2.73989 28.8363L4.20574 5.1522L15.0694 31.9267H16.0147Z" fill="#130F06"/>
<path d="M9.35112 40.9562C9.08501 40.9436 8.81951 40.9915 8.57494 41.0963C8.33037 41.2011 8.11321 41.3599 7.94008 41.5607C7.57663 42.0199 7.39404 42.5944 7.42635 43.1772V54.3366C7.41367 54.646 7.50792 54.9503 7.69349 55.1992C7.78452 55.3105 7.90094 55.3988 8.03314 55.4566C8.16535 55.5145 8.30954 55.5404 8.45381 55.5321H13.0637C13.6581 55.5549 14.25 55.4446 14.7955 55.2094C15.341 54.9743 15.826 54.6202 16.2146 54.1736C17.0465 53.1559 17.4687 51.8686 17.3996 50.5602H18.2078V61.4072H17.3996C17.4687 60.0989 17.0465 58.8116 16.2146 57.7938C15.826 57.3472 15.341 56.9932 14.7955 56.758C14.25 56.5229 13.6581 56.4126 13.0637 56.4354H8.45381C8.30954 56.4271 8.16535 56.453 8.03314 56.5108C7.90094 56.5687 7.78452 56.6569 7.69349 56.7682C7.50792 57.0172 7.41367 57.3215 7.42635 57.6308V68.0159C7.39467 68.5987 7.5772 69.173 7.94008 69.6325C8.11355 69.8324 8.33095 69.9903 8.57556 70.0939C8.82018 70.1975 9.0855 70.2441 9.35112 70.2302V71.1199H2.2822V70.2302C2.54669 70.2431 2.81067 70.1959 3.05401 70.0924C3.29736 69.9888 3.51364 69.8315 3.68639 69.6325C4.04927 69.173 4.2318 68.5987 4.20012 68.0159V43.1772C4.23243 42.5944 4.04984 42.0199 3.68639 41.5607C3.51795 41.365 3.3075 41.2092 3.07046 41.1046C2.83343 41 2.5758 40.9493 2.31644 40.9562V40.0732H22.8657L23.8452 49.3445H23.0369C22.9032 48.1765 22.6034 47.0331 22.1464 45.9484C21.7313 44.9703 21.1472 44.0716 20.4203 43.2927C19.7318 42.5603 18.9027 41.9714 17.9818 41.5607C17.0545 41.1443 16.0475 40.9311 15.0296 40.9358L9.35112 40.9562Z" fill="#130F06"/>
<path d="M39.5433 39.1844C41.4478 39.1445 43.3253 39.6364 44.9614 40.604C46.5097 41.5529 47.8305 42.8254 48.8315 44.3328C49.8929 45.9436 50.6776 47.7177 51.1536 49.5831C52.1948 53.5239 52.1948 57.6643 51.1536 61.6051C50.6757 63.472 49.8912 65.2481 48.8315 66.8622C47.8304 68.3677 46.5095 69.638 44.9614 70.5843C43.3259 71.5526 41.4475 72.0423 39.5433 71.997C37.6404 72.0405 35.7642 71.5483 34.132 70.5775C32.5825 69.633 31.2613 68.3623 30.2619 66.8554C29.2028 65.2401 28.4162 63.4645 27.933 61.5983C26.8917 57.6575 26.8917 53.5172 27.933 49.5763C28.4135 47.7093 29.2003 45.9332 30.2619 44.3192C31.261 42.8103 32.5822 41.5374 34.132 40.5904C35.7669 39.6274 37.6422 39.1402 39.5433 39.1844ZM39.5433 40.0742C38.1403 40.0599 36.778 40.5414 35.7006 41.4326C34.5411 42.3975 33.6063 43.6001 32.9607 44.9577C32.1764 46.5276 31.6184 48.1989 31.303 49.9227C30.5907 53.6912 30.5907 57.5582 31.303 61.3267C31.6195 63.0524 32.1774 64.7258 32.9607 66.2985C33.6098 67.6539 34.544 68.8559 35.7006 69.8236C36.7928 70.6882 38.149 71.1592 39.5467 71.1592C40.9443 71.1592 42.3005 70.6882 43.3928 69.8236C44.5578 68.8556 45.5032 67.6543 46.167 66.2985C46.9472 64.7246 47.505 63.0516 47.8246 61.3267C48.5369 57.5582 48.5369 53.6912 47.8246 49.9227C47.506 48.1997 46.9482 46.5288 46.167 44.9577C45.5067 43.5997 44.5608 42.3977 43.3928 41.4326C42.3133 40.5404 40.9485 40.0589 39.5433 40.0742Z" fill="#130F06"/>
<path d="M65.3605 40.0748H65.6756C67.5292 40.0447 69.3648 40.4399 71.0389 41.2295C72.3833 41.8503 73.5578 42.782 74.4638 43.9463C75.2406 44.9983 75.7237 46.2348 75.8644 47.5311C76.0051 48.8274 75.7984 50.1376 75.2652 51.3294C74.6767 52.5942 73.7769 53.6919 72.6486 54.5216C71.2996 55.5128 69.7263 56.1612 68.0661 56.4098C68.7865 56.8533 69.4011 57.4466 69.8676 58.1486C70.4613 58.9637 71.064 59.8693 71.6759 60.8655C72.2879 61.8616 72.8998 62.9189 73.5117 64.0374C74.0702 65.0846 74.683 66.1025 75.3474 67.087C75.9116 67.9203 76.579 68.6801 77.3338 69.3488C77.9136 69.9013 78.6808 70.2187 79.4846 70.2386V71.1283H76.5324C75.6084 71.1278 74.7139 70.8057 74.0049 70.2182C73.1985 69.5401 72.4969 68.7483 71.9225 67.8681C71.24 66.8558 70.6201 65.8034 70.0663 64.7166C69.484 63.5755 68.9224 62.4684 68.3675 61.3885C67.865 60.3922 67.3117 59.422 66.7099 58.4814C66.2831 57.7535 65.6952 57.1311 64.9906 56.6611H61.4698C61.3258 56.6545 61.1821 56.6811 61.0502 56.7388C60.9182 56.7966 60.8016 56.8839 60.7095 56.994C60.52 57.2439 60.4232 57.5509 60.4355 57.8634V68.0515C60.4039 68.6342 60.5864 69.2086 60.9493 69.668C61.1234 69.8672 61.3409 70.0245 61.5854 70.128C61.8298 70.2316 62.0948 70.2787 62.3603 70.2657V71.1555H55.2914V70.2657C55.5569 70.2787 55.8219 70.2316 56.0663 70.128C56.3108 70.0245 56.5283 69.8672 56.7024 69.668C57.0653 69.2086 57.2478 68.6342 57.2162 68.0515V43.1788C57.2485 42.596 57.0659 42.0215 56.7024 41.5623C56.529 41.3619 56.3117 41.2033 56.0673 41.0986C55.8228 40.9938 55.5574 40.9457 55.2914 40.9578V40.0748H65.3605ZM60.4355 54.5828C60.4208 54.8934 60.5179 55.1992 60.7095 55.4454C60.8005 55.5567 60.917 55.6449 61.0492 55.7028C61.1814 55.7606 61.3256 55.7865 61.4698 55.7782H65.4016C66.7134 55.8329 68.0117 55.4965 69.1288 54.8125C70.246 54.1284 71.1308 53.1281 71.6691 51.9406C72.179 50.8172 72.4451 49.6 72.45 48.368C72.4659 47.1448 72.1988 45.9342 71.6691 44.8293C71.1315 43.7251 70.315 42.7775 69.2991 42.0785C68.1448 41.3247 66.7829 40.945 65.4016 40.9918H62.3329C62.0669 40.9797 61.8015 41.0278 61.557 41.1325C61.3125 41.2373 61.0953 41.3959 60.9219 41.5963C60.5584 42.0554 60.3758 42.63 60.4081 43.2128L60.4355 54.5828Z" fill="#130F06"/>
<path d="M86.7449 68.0227C86.7132 68.6055 86.8958 69.1798 87.2587 69.6393C87.4321 69.8392 87.6495 69.9971 87.8941 70.1007C88.1388 70.2043 88.4041 70.2509 88.6697 70.237V71.1267H81.5528V70.237C81.8212 70.2486 82.0888 70.201 82.3364 70.0976C82.5839 69.9943 82.8053 69.8377 82.9844 69.6393C83.3598 69.1855 83.5504 68.6088 83.5187 68.0227V43.1772C83.5511 42.5911 83.3604 42.0142 82.9844 41.5607C82.8056 41.3614 82.5845 41.2038 82.337 41.0993C82.0894 40.9948 81.8217 40.9459 81.5528 40.9562V40.0732H88.6697V40.9562C88.4036 40.9436 88.1381 40.9915 87.8935 41.0963C87.6489 41.2011 87.4318 41.3599 87.2587 41.5607C86.8952 42.0199 86.7126 42.5944 86.7449 43.1772V54.3367C86.7215 54.6504 86.8087 54.9625 86.9915 55.2196C87.0825 55.3309 87.199 55.4191 87.3312 55.477C87.4634 55.5349 87.6076 55.5607 87.7518 55.5524H92.3617C92.9561 55.5753 93.548 55.465 94.0935 55.2298C94.639 54.9946 95.124 54.6406 95.5126 54.194C96.3417 53.1747 96.7635 51.8885 96.6976 50.5806H97.5059V61.4072H96.7181C96.784 60.0993 96.3622 58.8131 95.5331 57.7938C95.1446 57.3472 94.6595 56.9932 94.114 56.758C93.5686 56.5229 92.9766 56.4126 92.3823 56.4354H87.7724C87.6281 56.4271 87.4839 56.453 87.3517 56.5108C87.2195 56.5687 87.1031 56.6569 87.0121 56.7682C86.8265 57.0172 86.7322 57.3215 86.7449 57.6308V68.0227ZM88.7108 40.9562V40.0732H102.177L103.116 49.3445H102.355C102.222 48.1765 101.922 47.0331 101.465 45.9484C101.05 44.9703 100.466 44.0716 99.7389 43.2927C99.0552 42.5638 98.2336 41.9753 97.3209 41.5607C96.388 41.1393 95.3732 40.926 94.3481 40.9358L88.7108 40.9562ZM88.7108 70.237H94.3481C95.3727 70.2489 96.3875 70.0379 97.3209 69.6189C98.2336 69.2043 99.0552 68.6158 99.7389 67.8869C100.468 67.0994 101.052 66.1914 101.465 65.204C101.923 64.1195 102.222 62.9761 102.355 61.808H103.116L102.177 71.0792H88.7108V70.237Z" fill="#130F06"/>
<path d="M112.516 40.9562C112.279 40.9299 112.04 40.9701 111.826 41.0722C111.612 41.1743 111.431 41.3342 111.303 41.5335C111.202 41.7664 111.153 42.0188 111.161 42.2724C111.17 42.5261 111.235 42.7748 111.351 43.0006L120.078 66.1549L128.777 43.0006C128.894 42.7748 128.959 42.5261 128.967 42.2724C128.975 42.0188 128.927 41.7664 128.825 41.5335C128.698 41.3342 128.517 41.1743 128.302 41.0722C128.088 40.9701 127.849 40.9299 127.613 40.9562V40.0732H132.312V40.9562C131.718 40.958 131.142 41.1618 130.681 41.5335C130.19 41.9159 129.811 42.4227 129.585 43.0006L118.845 71.4799H118.503L107.769 43.0006C107.541 42.424 107.163 41.9177 106.673 41.5335C106.213 41.1608 105.637 40.9569 105.043 40.9562V40.0732H112.516V40.9562Z" fill="#130F06"/>
<path d="M139.449 68.0227C139.418 68.6055 139.6 69.1798 139.963 69.6393C140.132 69.8337 140.343 69.9882 140.58 70.0916C140.817 70.195 141.074 70.2447 141.333 70.237V71.1267H134.257V70.237C134.526 70.2486 134.793 70.201 135.041 70.0976C135.288 69.9943 135.51 69.8377 135.689 69.6393C136.064 69.1855 136.255 68.6088 136.223 68.0227V43.1772C136.256 42.5911 136.065 42.0142 135.689 41.5607C135.51 41.3614 135.289 41.2038 135.041 41.0993C134.794 40.9948 134.526 40.9459 134.257 40.9562V40.0732H141.367V40.9562C141.108 40.9493 140.85 41 140.613 41.1046C140.376 41.2092 140.166 41.365 139.997 41.5607C139.634 42.0199 139.451 42.5944 139.484 43.1772V54.3367C139.462 54.6512 139.552 54.9634 139.737 55.2196C139.828 55.3309 139.945 55.4191 140.077 55.477C140.209 55.5349 140.353 55.5607 140.497 55.5524H145.1C145.696 55.5758 146.289 55.4658 146.836 55.2306C147.382 54.9954 147.869 54.6411 148.258 54.194C149.087 53.1747 149.509 51.8885 149.443 50.5806H150.251V61.4072H149.443C149.509 60.0993 149.087 58.8131 148.258 57.7938C147.869 57.3467 147.382 56.9924 146.836 56.7572C146.289 56.5221 145.696 56.4121 145.1 56.4354H140.497C140.353 56.4271 140.209 56.453 140.077 56.5108C139.945 56.5687 139.828 56.6569 139.737 56.7682C139.552 57.0172 139.457 57.3215 139.47 57.6308L139.449 68.0227ZM141.415 40.9562V40.0732H154.882L155.82 49.3445H155.06C154.927 48.1755 154.625 47.0317 154.163 45.9484C153.752 44.9693 153.17 44.0702 152.443 43.2927C151.754 42.5697 150.928 41.9881 150.012 41.5811C149.079 41.1605 148.064 40.9473 147.039 40.9562H141.415ZM141.415 70.237H147.053C148.077 70.2483 149.092 70.0373 150.025 69.6189C150.938 69.2043 151.76 68.6158 152.443 67.8869C153.172 67.1008 153.755 66.1924 154.163 65.204C154.626 64.1209 154.928 62.977 155.06 61.808H155.82L154.882 71.0792H141.415V70.237Z" fill="#130F06"/>
<path d="M169.015 40.0745H169.323C171.17 40.0478 172.998 40.4429 174.666 41.2292C176.01 41.85 177.185 42.7817 178.091 43.946C178.867 44.9979 179.35 46.2345 179.491 47.5308C179.632 48.8271 179.425 50.1373 178.892 51.329C178.301 52.5924 177.402 53.6897 176.275 54.5213C174.926 55.5125 173.353 56.1608 171.693 56.4095C172.405 56.8447 173.014 57.426 173.481 58.1143C174.079 58.9294 174.682 59.835 175.289 60.8312C175.896 61.8273 176.508 62.8846 177.125 64.0031C177.734 65.0966 178.365 66.1018 179.002 67.0188C179.57 67.8508 180.24 68.6104 180.995 69.2805C181.575 69.8331 182.342 70.1505 183.146 70.1703V71.0601H180.193C179.269 71.0595 178.375 70.7374 177.666 70.1499C176.842 69.4753 176.125 68.6833 175.536 67.7999C174.853 66.7876 174.233 65.7351 173.679 64.6483C173.097 63.5073 172.535 62.4001 171.981 61.3202C171.426 60.2403 170.878 59.2826 170.323 58.4132C169.896 57.6852 169.308 57.0628 168.604 56.5929H165.117C164.973 56.5862 164.829 56.6128 164.697 56.6706C164.566 56.7283 164.449 56.8157 164.357 56.9257C164.167 57.1756 164.071 57.4827 164.083 57.7951V67.9832C164.051 68.566 164.234 69.1403 164.597 69.5998C164.771 69.7989 164.988 69.9562 165.233 70.0598C165.477 70.1633 165.742 70.2104 166.008 70.1975V71.0872H158.946V70.1975C159.211 70.2104 159.476 70.1633 159.72 70.0598C159.965 69.9562 160.182 69.7989 160.357 69.5998C160.719 69.1403 160.902 68.566 160.87 67.9832V43.1785C160.903 42.5957 160.72 42.0211 160.357 41.562C160.183 41.3616 159.966 41.203 159.721 41.0983C159.477 40.9935 159.212 40.9454 158.946 40.9575V40.0745H169.015ZM164.09 54.5824C164.075 54.8931 164.172 55.1988 164.364 55.445C164.455 55.5563 164.571 55.6446 164.703 55.7024C164.836 55.7603 164.98 55.7861 165.124 55.7778H169.056C170.372 55.8381 171.676 55.5043 172.799 54.82C173.922 54.1356 174.811 53.1323 175.351 51.9403C175.861 50.8169 176.127 49.5997 176.132 48.3677C176.147 47.1444 175.88 45.9338 175.351 44.829C174.813 43.7248 173.997 42.7772 172.981 42.0782C171.826 41.3244 170.464 40.9446 169.083 40.9914H166.042C165.776 40.9793 165.51 41.0275 165.266 41.1322C165.021 41.237 164.804 41.3955 164.631 41.5959C164.267 42.0551 164.085 42.6297 164.117 43.2125L164.09 54.5824Z" fill="#130F06"/>
<path d="M117.665 15.9555C119.24 18.4754 121.809 19.1885 124.871 19.0323C126.722 18.8909 128.556 18.584 130.351 18.1154C130.885 17.9524 131.467 17.8369 132.002 17.6739C133.687 17.2324 135.468 16.7026 137.173 16.3698C139.529 15.7319 141.943 15.3225 144.379 15.1472C146.124 15.0093 147.879 15.1912 149.557 15.6838L149.599 16.4377C148.019 15.9099 146.351 15.693 144.687 15.7993C142.136 16.0292 139.627 16.598 137.228 17.4905C135.509 18.0746 133.803 18.7606 132.091 19.4127C129.084 20.6013 125.809 21.8442 122.563 22.014C119.316 22.1838 115.487 20.0104 117.665 15.9555Z" fill="#BD9265"/>
<path d="M124.381 16.8725C122.805 14.3594 120.237 13.6395 117.168 13.8025C115.318 13.9452 113.484 14.2498 111.688 14.7126C111.161 14.8756 110.579 14.9979 110.044 15.1609C108.352 15.5956 106.578 16.1254 104.873 16.4582C102.506 17.0874 100.084 17.49 97.6394 17.6604C95.8947 17.7954 94.1398 17.6135 92.461 17.1238L92.4199 16.3631C93.9994 16.8909 95.6677 17.1078 97.3311 17.0015C99.886 16.7853 102.4 16.2278 104.804 15.3443C106.53 14.7534 108.229 14.0741 109.941 13.4153C112.955 12.2267 116.23 10.9837 119.469 10.8139C122.709 10.6441 126.559 12.8176 124.381 16.8725Z" fill="#BD9265"/>
</svg>
