<svg width="123" height="48" viewBox="0 0 123 48" fill="none" xmlns="http://www.w3.org/2000/svg">
<path d="M107.258 21.2832H113.706C124.803 21.2832 124.862 0.843291 113.916 0.58066H107.258V1.16932C108.03 1.16932 108.537 1.7625 108.537 2.65001V19.2229C108.537 20.1285 108.03 20.7036 107.258 20.7036V21.2832ZM111.998 1.1829H113.729C121.574 1.1829 121.574 20.7036 113.729 20.7036H111.998C111.222 20.7036 110.688 20.1104 110.688 19.2229V2.66359C110.688 1.77608 111.222 1.1829 111.998 1.1829Z" fill="white"/>
<path d="M92.1019 11.1915V2.66508C92.1019 1.75945 91.5677 1.18438 90.7914 1.18438V0.595726H104.541L105.167 6.79472H104.66C104.304 3.539 102.157 1.20249 99.3216 1.20249H95.536C94.7597 1.20249 94.2528 1.79568 94.2528 2.68319V10.7568C93.545 10.8746 92.828 11.0285 92.1019 11.2096M94.2528 19.247C94.2528 20.13 94.7597 20.7232 95.536 20.7232H99.3216C102.157 20.7232 104.304 18.3867 104.66 15.1355H105.167L104.541 21.2847H90.7914V20.7051C91.5677 20.7051 92.1019 20.1119 92.1019 19.2289V12.5137C92.8235 12.2828 93.5404 12.0609 94.2528 11.916V19.247Z" fill="white"/>
<path d="M63.5021 21.8853C67.201 21.8853 69.7948 18.8424 70.5711 16.1799L70.183 14.9663C70.1099 14.9984 70.0497 15.0536 70.0117 15.1232C69.9736 15.1929 69.96 15.2731 69.9729 15.3512C69.6441 18.2764 66.991 21.2831 63.5021 21.2831C55.6568 21.2831 55.6568 0.580514 63.5021 0.580514C66.991 0.580514 69.1098 3.29738 69.8953 7.14628H70.2241V1.06502H70.046C69.8679 1.56764 69.6578 2.10196 69.0048 2.10196C68.3518 2.10196 67.3928 1.27332 67.3928 1.27332C66.2798 0.42244 64.9073 -0.0264188 63.5021 0.000915304C52.2867 0.000915304 52.2867 21.8853 63.5021 21.8853Z" fill="white"/>
<path d="M87.5727 14.1982V19.2289C87.5727 20.1119 88.0294 20.7051 88.7052 20.7051V21.2847H84.1113V20.7051C84.8876 20.7051 85.4219 20.1119 85.4219 19.2289V14.9725C86.1525 14.737 86.874 14.4699 87.5727 14.1982ZM85.4219 9.58404V2.66508C85.4219 1.75945 84.8876 1.18438 84.1113 1.18438V0.595726H88.7052V1.18438C88.0476 1.18438 87.5727 1.77756 87.5727 2.66508V12.9575C87.3535 13.0118 87.1161 13.0662 86.9197 13.1296C86.4174 13.2518 85.9151 13.3605 85.4219 13.4556V9.58404ZM75.9372 8.4339V19.2289C75.9372 20.1119 76.4441 20.7051 77.2204 20.7051V21.2847H72.6538V20.7051C73.3114 20.7051 73.7589 20.1119 73.7589 19.2289V8.94104C73.9873 8.88218 74.2156 8.82784 74.4348 8.75992C74.9462 8.63766 75.4486 8.52899 75.9372 8.4339ZM73.7635 2.66508C73.7635 1.75945 73.3069 1.18438 72.6584 1.18438V0.595726H77.2249V1.18438C76.4486 1.18438 75.9417 1.77756 75.9417 2.66508V6.91698C75.202 7.15697 74.4759 7.42865 73.7681 7.70487L73.7635 2.66508Z" fill="white"/>
<path d="M38.8157 5.8574H39.3226C38.9344 3.04997 39.9482 1.18438 42.784 1.18438H43.5283C44.3046 1.18438 44.8115 1.77756 44.8115 2.66508V19.2244C44.8115 20.13 44.3046 20.7051 43.5283 20.7051V21.2847H48.273V20.7051C47.4967 20.7051 46.9578 20.1119 46.9578 19.2244V2.66508C46.9578 1.75945 47.4967 1.18438 48.273 1.18438H49.0173C51.8486 1.18438 52.8623 3.04997 52.4788 5.8574H52.9856L53.4423 0.595726H38.3727L38.8157 5.8574Z" fill="white"/>
<path d="M35.017 14.4643C34.0473 13.8239 32.903 13.4936 31.7382 13.5179C29.8073 13.5223 27.9549 14.2765 26.578 15.6189L30.9893 3.9047L35.017 14.4643ZM25.8839 17.4211C26.8748 15.3518 29.4093 14.0386 31.7976 14.0386C33.104 14.0081 34.373 14.4729 35.3458 15.3382L36.8664 19.3637C37.1633 20.1606 36.8664 20.7221 36.0901 20.7221V21.2836H41.0402V20.704C40.6349 20.6803 40.2456 20.5389 39.9208 20.2973C39.596 20.0558 39.3501 19.7248 39.2136 19.3456L32.0624 0.354652H31.825L24.6601 19.3456C24.5268 19.7267 24.2817 20.0597 23.9562 20.3017C23.6308 20.5438 23.2398 20.6839 22.8335 20.704V21.2836H25.9341V20.704C25.1624 20.704 24.861 20.1425 25.1624 19.3456L25.8839 17.4211Z" fill="white"/>
<path d="M10.6766 21.2847L17.5994 2.01303L18.2844 19.2199C18.3118 20.1255 17.7775 20.7006 17.0012 20.7006V21.2847H21.7139V20.7051C20.9376 20.7051 20.4627 20.1119 20.4307 19.2244L19.6864 2.66508C19.6544 1.75945 20.1932 1.18438 20.9696 1.18438V0.595726H17.5401L11.2154 18.3097L3.96832 0.595726H1.04574V1.18438C1.27988 1.18022 1.51044 1.24178 1.71082 1.36196C1.9112 1.48214 2.07324 1.65604 2.17824 1.8636L2.265 2.04472C2.333 2.24415 2.35332 2.45652 2.32437 2.66508L1.2832 19.2244C1.22383 20.13 0.776312 20.7051 0 20.7051V21.2847H3.10068V20.7051C2.91395 20.7055 2.72937 20.6656 2.55972 20.5882C2.39008 20.5109 2.23943 20.3978 2.11823 20.257C1.99703 20.1161 1.90818 19.9508 1.85782 19.7725C1.80747 19.5942 1.79682 19.4072 1.82662 19.2244L2.80386 3.43485L10.0464 21.2847H10.6766Z" fill="white"/>
<path d="M6.23446 27.3041C6.05705 27.2957 5.88004 27.3277 5.717 27.3975C5.55395 27.4674 5.40917 27.5733 5.29375 27.7071C5.05145 28.0132 4.92972 28.3963 4.95126 28.7848V36.2245C4.94281 36.4307 5.00564 36.6336 5.12936 36.7996C5.19004 36.8738 5.26766 36.9326 5.3558 36.9712C5.44393 37.0098 5.54006 37.027 5.63624 37.0215H8.70952C9.10578 37.0367 9.5004 36.9632 9.86406 36.8064C10.2277 36.6496 10.5511 36.4136 10.8101 36.1159C11.3648 35.4374 11.6463 34.5791 11.6001 33.7069H12.139V40.9383H11.6001C11.6463 40.0661 11.3648 39.2078 10.8101 38.5293C10.5511 38.2316 10.2277 37.9956 9.86406 37.8388C9.5004 37.682 9.10578 37.6085 8.70952 37.6237H5.63624C5.54006 37.6182 5.44393 37.6354 5.3558 37.674C5.26766 37.7126 5.19004 37.7714 5.12936 37.8456C5.00564 38.0116 4.94281 38.2145 4.95126 38.4207V45.3442C4.93014 45.7326 5.05183 46.1155 5.29375 46.4218C5.4094 46.5552 5.55433 46.6604 5.71741 46.7295C5.88049 46.7985 6.05737 46.8296 6.23446 46.8203V47.4135H1.52179V46.8203C1.69812 46.8289 1.87411 46.7975 2.03634 46.7285C2.19857 46.6594 2.34276 46.5545 2.45793 46.4218C2.69985 46.1155 2.82154 45.7326 2.80042 45.3442V28.7848C2.82196 28.3963 2.70023 28.0132 2.45793 27.7071C2.34563 27.5767 2.20533 27.4728 2.04731 27.4031C1.88928 27.3333 1.71753 27.2995 1.54462 27.3041V26.7155H15.2442L15.8973 32.8964H15.3584C15.2692 32.1177 15.0694 31.3554 14.7648 30.6323C14.488 29.9802 14.0986 29.3811 13.614 28.8618C13.155 28.3735 12.6023 27.981 11.9883 27.7071C11.3701 27.4295 10.6988 27.2874 10.0201 27.2906L6.23446 27.3041Z" fill="white"/>
<path d="M26.3633 26.123C27.633 26.0964 28.8847 26.4243 29.9754 27.0694C31.0076 27.702 31.8881 28.5504 32.5555 29.5553C33.2631 30.6292 33.7862 31.812 34.1035 33.0556C34.7977 35.6828 34.7977 38.4431 34.1035 41.0703C33.785 42.3149 33.2619 43.499 32.5555 44.5751C31.8881 45.5787 31.0075 46.4256 29.9754 47.0565C28.8851 47.702 27.6328 48.0285 26.3633 47.9983C25.0947 48.0273 23.8438 47.6992 22.7557 47.052C21.7227 46.4223 20.8419 45.5752 20.1756 44.5706C19.4696 43.4937 18.9452 42.3099 18.623 41.0658C17.9288 38.4385 17.9288 35.6783 18.623 33.051C18.9434 31.8063 19.4679 30.6223 20.1756 29.5463C20.8417 28.5403 21.7225 27.6917 22.7557 27.0603C23.8457 26.4184 25.0959 26.0935 26.3633 26.123ZM26.3633 26.7162C25.4279 26.7067 24.5197 27.0277 23.8014 27.6218C23.0284 28.2651 22.4053 29.0669 21.9748 29.9719C21.4519 31.0185 21.0799 32.1327 20.8697 33.282C20.3948 35.7943 20.3948 38.3723 20.8697 40.8847C21.0807 42.0352 21.4526 43.1508 21.9748 44.1993C22.4076 45.1029 23.0304 45.9042 23.8014 46.5493C24.5296 47.1258 25.4338 47.4397 26.3655 47.4397C27.2973 47.4397 28.2015 47.1258 28.9297 46.5493C29.7063 45.904 30.3366 45.1031 30.7791 44.1993C31.2993 43.15 31.6712 42.0346 31.8842 40.8847C32.3591 38.3723 32.3591 35.7943 31.8842 33.282C31.6718 32.1333 31.2999 31.0193 30.7791 29.9719C30.339 29.0666 29.7083 28.2652 28.9297 27.6218C28.2099 27.0271 27.3001 26.706 26.3633 26.7162Z" fill="white"/>
<path d="M43.5738 26.7166H43.7838C45.0196 26.6965 46.2433 26.9599 47.3595 27.4863C48.2557 27.9002 49.0387 28.5214 49.6427 29.2976C50.1606 29.9989 50.4827 30.8232 50.5765 31.6875C50.6703 32.5517 50.5325 33.4251 50.177 34.2196C49.7847 35.0629 49.1848 35.7947 48.4326 36.3479C47.5333 37.0087 46.4843 37.4409 45.3776 37.6067C45.8578 37.9023 46.2676 38.2978 46.5786 38.7659C46.9743 39.3092 47.3762 39.913 47.7841 40.5771C48.1921 41.2412 48.6 41.9461 49.008 42.6917C49.3804 43.3899 49.7888 44.0685 50.2318 44.7249C50.608 45.2804 51.0529 45.787 51.5561 46.2327C51.9426 46.6011 52.4541 46.8127 52.99 46.8259V47.4191H51.0218C50.4058 47.4187 49.8095 47.204 49.3368 46.8123C48.7992 46.3603 48.3315 45.8324 47.9485 45.2456C47.4935 44.5707 47.0802 43.8691 46.711 43.1446C46.3228 42.3838 45.9484 41.6457 45.5785 40.9258C45.2435 40.2616 44.8746 39.6148 44.4734 38.9877C44.1889 38.5024 43.797 38.0875 43.3272 37.7742H40.98C40.8839 37.7698 40.7882 37.7875 40.7002 37.826C40.6123 37.8645 40.5345 37.9227 40.4731 37.9961C40.3468 38.1627 40.2823 38.3674 40.2904 38.5757V45.3679C40.2693 45.7564 40.391 46.1393 40.6329 46.4456C40.749 46.5783 40.894 46.6832 41.057 46.7522C41.22 46.8213 41.3966 46.8527 41.5736 46.844V47.4372H36.861V46.844C37.038 46.8527 37.2146 46.8213 37.3776 46.7522C37.5406 46.6832 37.6856 46.5783 37.8017 46.4456C38.0436 46.1393 38.1653 45.7564 38.1442 45.3679V28.7859C38.1657 28.3974 38.044 28.0143 37.8017 27.7082C37.686 27.5746 37.5412 27.4689 37.3782 27.3991C37.2152 27.3292 37.0383 27.2971 36.861 27.3052V26.7166H43.5738ZM40.2904 36.3886C40.2806 36.5957 40.3454 36.7995 40.4731 36.9637C40.5338 37.0379 40.6114 37.0967 40.6996 37.1353C40.7877 37.1739 40.8838 37.1911 40.98 37.1856H43.6012C44.4758 37.222 45.3413 36.9978 46.0861 36.5418C46.8308 36.0857 47.4207 35.4188 47.7796 34.6272C48.1195 33.8782 48.2969 33.0667 48.3002 32.2454C48.3108 31.4299 48.1327 30.6228 47.7796 29.8862C47.4211 29.1501 46.8769 28.5183 46.1995 28.0523C45.43 27.5498 44.5221 27.2966 43.6012 27.3278H41.5554C41.378 27.3198 41.2011 27.3519 41.0381 27.4217C40.8751 27.4915 40.7303 27.5972 40.6147 27.7308C40.3724 28.037 40.2506 28.42 40.2722 28.8085L40.2904 36.3886Z" fill="white"/>
<path d="M57.8305 45.3487C57.8093 45.7372 57.931 46.1201 58.1729 46.4264C58.2886 46.5597 58.4335 46.6649 58.5966 46.734C58.7597 46.8031 58.9366 46.8342 59.1137 46.8249V47.418H54.369V46.8249C54.5479 46.8326 54.7263 46.8009 54.8914 46.732C55.0564 46.6631 55.204 46.5587 55.3234 46.4264C55.5737 46.1239 55.7008 45.7394 55.6796 45.3487V28.7848C55.7012 28.394 55.5741 28.0094 55.3234 27.7071C55.2042 27.5743 55.0568 27.4692 54.8918 27.3995C54.7268 27.3299 54.5482 27.2973 54.369 27.3041V26.7155H59.1137V27.3041C58.9362 27.2957 58.7592 27.3277 58.5962 27.3975C58.4331 27.4674 58.2884 27.5733 58.1729 27.7071C57.9306 28.0132 57.8089 28.3963 57.8305 28.7848V36.2245C57.8149 36.4337 57.873 36.6418 57.9949 36.8132C58.0555 36.8874 58.1332 36.9462 58.2213 36.9848C58.3094 37.0234 58.4056 37.0406 58.5017 37.0351H61.575C61.9713 37.0503 62.3659 36.9768 62.7296 36.82C63.0932 36.6632 63.4166 36.4272 63.6756 36.1294C64.2284 35.4499 64.5096 34.5924 64.4656 33.7205H65.0045V40.9383H64.4793C64.5233 40.0664 64.2421 39.2089 63.6893 38.5293C63.4303 38.2316 63.1069 37.9956 62.7433 37.8388C62.3796 37.682 61.985 37.6085 61.5887 37.6237H58.5154C58.4193 37.6182 58.3231 37.6354 58.235 37.674C58.1469 37.7126 58.0692 37.7714 58.0086 37.8456C57.8848 38.0116 57.822 38.2145 57.8305 38.4207V45.3487ZM59.1411 27.3041V26.7155H68.1189L68.7445 32.8964H68.2376C68.1484 32.1177 67.9486 31.3554 67.644 30.6323C67.3672 29.9802 66.9778 29.3811 66.4932 28.8618C66.0374 28.3759 65.4897 27.9835 64.8812 27.7071C64.2593 27.4262 63.5827 27.284 62.8993 27.2906L59.1411 27.3041ZM59.1411 46.8249H62.8993C63.5824 46.8328 64.2589 46.6922 64.8812 46.4128C65.4897 46.1364 66.0374 45.7441 66.4932 45.2581C66.9791 44.7331 67.3686 44.1278 67.644 43.4695C67.949 42.7465 68.1489 41.9842 68.2376 41.2055H68.7445L68.1189 47.3863H59.1411V46.8249Z" fill="white"/>
<path d="M75.0109 27.3041C74.8533 27.2866 74.694 27.3134 74.551 27.3815C74.4081 27.4495 74.2873 27.5561 74.2026 27.689C74.1348 27.8443 74.1025 28.0125 74.108 28.1816C74.1135 28.3507 74.1567 28.5165 74.2346 28.6671L80.0524 44.1035L85.8519 28.6671C85.9297 28.5165 85.9729 28.3507 85.9785 28.1816C85.984 28.0125 85.9517 27.8443 85.8838 27.689C85.7991 27.5561 85.6784 27.4495 85.5354 27.3815C85.3925 27.3134 85.2331 27.2866 85.0756 27.3041V26.7155H88.2082V27.3041C87.8122 27.3054 87.4286 27.4412 87.1214 27.689C86.7935 27.9439 86.5411 28.2818 86.3907 28.6671L79.2304 47.6535H79.0021L71.8463 28.6671C71.6944 28.2827 71.4422 27.9452 71.1156 27.689C70.8088 27.4406 70.425 27.3046 70.0288 27.3041V26.7155H75.0109V27.3041Z" fill="white"/>
<path d="M92.9671 45.3487C92.9459 45.7372 93.0676 46.1201 93.3095 46.4264C93.4223 46.556 93.5628 46.659 93.7208 46.728C93.8788 46.7969 94.0503 46.83 94.2229 46.8249V47.418H89.5056V46.8249C89.6845 46.8326 89.8629 46.8009 90.028 46.732C90.193 46.6631 90.3406 46.5587 90.46 46.4264C90.7103 46.1239 90.8374 45.7394 90.8162 45.3487V28.7848C90.8378 28.394 90.7107 28.0094 90.46 27.7071C90.3408 27.5743 90.1934 27.4692 90.0284 27.3995C89.8634 27.3299 89.6848 27.2973 89.5056 27.3041V26.7155H94.2457V27.3041C94.0728 27.2995 93.901 27.3333 93.743 27.4031C93.585 27.4728 93.4447 27.5767 93.3324 27.7071C93.0901 28.0132 92.9683 28.3963 92.9899 28.7848V36.2245C92.9756 36.4342 93.0353 36.6424 93.1588 36.8132C93.2195 36.8874 93.2971 36.9462 93.3853 36.9848C93.4734 37.0234 93.5696 37.0406 93.6657 37.0351H96.7344C97.1314 37.0506 97.5268 36.9773 97.8913 36.8205C98.2557 36.6637 98.5799 36.4275 98.8396 36.1294C99.3924 35.4499 99.6736 34.5924 99.6296 33.7205H100.168V40.9383H99.6296C99.6736 40.0664 99.3924 39.2089 98.8396 38.5293C98.5799 38.2313 98.2557 37.9951 97.8913 37.8383C97.5268 37.6815 97.1314 37.6081 96.7344 37.6237H93.6657C93.5696 37.6182 93.4734 37.6354 93.3853 37.674C93.2971 37.7126 93.2195 37.7714 93.1588 37.8456C93.0351 38.0116 92.9723 38.2145 92.9808 38.4207L92.9671 45.3487ZM94.2776 27.3041V26.7155H103.255L103.881 32.8964H103.374C103.286 32.1171 103.084 31.3545 102.776 30.6323C102.502 29.9796 102.114 29.3801 101.63 28.8618C101.17 28.3798 100.619 27.9921 100.009 27.7207C99.3865 27.4403 98.7101 27.2982 98.0268 27.3041H94.2776ZM94.2776 46.8249H98.0359C98.7189 46.8324 99.3954 46.6918 100.018 46.4128C100.626 46.1364 101.174 45.7441 101.63 45.2581C102.116 44.7341 102.504 44.1284 102.776 43.4695C103.085 42.7475 103.286 41.9848 103.374 41.2055H103.881L103.255 47.3863H94.2776V46.8249Z" fill="white"/>
<path d="M112.678 26.7163H112.884C114.115 26.6985 115.334 26.9619 116.446 27.4861C117.342 27.9 118.125 28.5212 118.729 29.2974C119.247 29.9987 119.569 30.823 119.663 31.6872C119.757 32.5515 119.619 33.4249 119.263 34.2194C118.87 35.0617 118.27 35.7932 117.519 36.3476C116.62 37.0084 115.571 37.4407 114.464 37.6065C114.939 37.8966 115.345 38.2841 115.656 38.743C116.055 39.2864 116.457 39.8901 116.861 40.5543C117.266 41.2184 117.674 41.9233 118.085 42.6689C118.492 43.3979 118.912 44.0681 119.336 44.6794C119.716 45.234 120.162 45.7405 120.665 46.1872C121.052 46.5556 121.563 46.7672 122.099 46.7804V47.3736H120.131C119.515 47.3732 118.919 47.1585 118.446 46.7668C117.897 46.3171 117.419 45.7891 117.026 45.2001C116.571 44.5252 116.158 43.8236 115.788 43.0991C115.4 42.3383 115.026 41.6002 114.656 40.8803C114.286 40.1603 113.921 39.5218 113.551 38.9422C113.266 38.4569 112.874 38.042 112.404 37.7287H110.08C109.984 37.7243 109.888 37.742 109.8 37.7805C109.712 37.819 109.635 37.8772 109.573 37.9506C109.447 38.1172 109.382 38.3219 109.391 38.5302V45.3224C109.369 45.7108 109.491 46.0938 109.733 46.4001C109.849 46.5328 109.994 46.6377 110.157 46.7067C110.32 46.7758 110.497 46.8072 110.674 46.7985V47.3917H105.966V46.7985C106.143 46.8072 106.319 46.7758 106.482 46.7067C106.645 46.6377 106.79 46.5328 106.906 46.4001C107.148 46.0938 107.27 45.7108 107.249 45.3224V28.7857C107.27 28.3971 107.149 28.0141 106.906 27.708C106.791 27.5744 106.646 27.4687 106.483 27.3988C106.32 27.329 106.143 27.2969 105.966 27.305V26.7163H112.678ZM109.395 36.3884C109.385 36.5955 109.45 36.7993 109.578 36.9635C109.638 37.0377 109.716 37.0965 109.804 37.1351C109.892 37.1736 109.989 37.1909 110.085 37.1853H112.706C113.583 37.2255 114.453 37.003 115.201 36.5468C115.95 36.0905 116.543 35.4216 116.903 34.6269C117.242 33.878 117.42 33.0665 117.423 32.2452C117.434 31.4297 117.256 30.6226 116.903 29.886C116.544 29.1499 116 28.5181 115.323 28.0521C114.553 27.5496 113.645 27.2964 112.724 27.3276H110.697C110.519 27.3196 110.342 27.3516 110.179 27.4215C110.016 27.4913 109.872 27.597 109.756 27.7306C109.514 28.0367 109.392 28.4198 109.413 28.8083L109.395 36.3884Z" fill="white"/>
<path d="M78.4436 10.6367C79.4939 12.3167 81.2064 12.7921 83.2476 12.688C84.4814 12.5937 85.7041 12.3891 86.9008 12.0767C87.257 11.968 87.6452 11.891 88.0014 11.7824C89.1247 11.488 90.312 11.1348 91.4491 10.913C93.0201 10.4877 94.6289 10.2147 96.2531 10.0979C97.4163 10.006 98.5865 10.1272 99.7054 10.4556L99.7328 10.9582C98.6798 10.6063 97.5675 10.4618 96.4586 10.5326C94.7575 10.6859 93.0849 11.0651 91.4856 11.6601C90.3394 12.0495 89.2024 12.5068 88.0607 12.9415C86.056 13.734 83.8732 14.5626 81.7087 14.6758C79.5441 14.789 76.9914 13.34 78.4436 10.6367Z" fill="#933944"/>
<path d="M82.9208 11.2481C81.8705 9.57271 80.158 9.09272 78.1122 9.2014C76.8788 9.29659 75.6563 9.49964 74.459 9.80817C74.1073 9.91684 73.7192 9.99835 73.363 10.107C72.2351 10.3968 71.0523 10.75 69.9153 10.9719C68.3374 11.3914 66.7226 11.6598 65.093 11.7734C63.9299 11.8634 62.7599 11.7421 61.6407 11.4156L61.6133 10.9085C62.6663 11.2604 63.7785 11.405 64.8875 11.3341C66.5908 11.19 68.2666 10.8183 69.8696 10.2293C71.0204 9.83534 72.1529 9.38252 73.2945 8.9433C75.3038 8.15088 77.4866 7.32223 79.6466 7.20903C81.8065 7.09583 84.3729 8.54482 82.9208 11.2481Z" fill="#933944"/>
</svg>
