<svg width="1920" height="756" viewBox="0 0 1920 756" fill="none" xmlns="http://www.w3.org/2000/svg">
<path d="M1788.02 335.149H1687.14V327.03C1693.11 326.909 1698.1 324.608 1701.62 320.562C1705.22 316.41 1707.24 310.463 1707.24 303.253V42.6586C1707.24 35.5884 1705.22 29.6435 1701.62 25.4578C1698.11 21.3783 1693.12 19.0063 1687.14 18.8812V10.6199H1791.32C1834.17 11.6499 1866.24 32.4163 1887.55 63.0118C1908.87 93.6224 1919.42 134.078 1919.15 174.43C1918.89 214.782 1907.81 254.978 1885.95 285.072C1864.1 315.151 1831.47 335.149 1788.02 335.149ZM1788.38 19.0896H1761.17C1754.93 19.0896 1749.64 21.4768 1745.91 25.6653C1742.19 29.8492 1740.06 35.7953 1740.06 42.8722V303.253C1740.06 310.329 1742.19 316.276 1745.91 320.459C1749.64 324.648 1754.93 327.035 1761.17 327.035H1788.38C1819.47 327.035 1842.74 307.685 1858.21 278.811C1873.68 249.943 1881.4 211.487 1881.4 173.062C1881.4 134.637 1873.68 96.1821 1858.21 67.3137C1842.74 38.44 1819.47 19.0896 1788.38 19.0896Z" stroke="white"/>
<mask id="path-2-inside-1_1996_174" fill="white">
<path d="M1448.32 176.965V42.8947C1448.32 28.6546 1439.92 19.6121 1427.71 19.6121V10.356H1643.92L1653.75 107.83H1645.78C1640.18 56.6364 1606.43 19.8969 1561.84 19.8969H1502.32C1490.11 19.8969 1482.14 29.2242 1482.14 43.1795V170.13C1471.01 171.981 1459.74 174.402 1448.32 177.25M1482.14 303.631C1482.14 317.515 1490.11 326.842 1502.32 326.842H1561.84C1606.43 326.842 1640.18 290.103 1645.78 238.981H1653.75L1643.92 335.671H1427.71V326.558C1439.92 326.558 1448.32 317.23 1448.32 303.346V197.756C1459.66 194.125 1470.94 190.636 1482.14 188.357V303.631Z"/>
</mask>
<path d="M1427.71 19.6121H1426.71V20.6121H1427.71V19.6121ZM1427.71 10.356V9.35605H1426.71V10.356H1427.71ZM1643.92 10.356L1644.91 10.2556L1644.82 9.35605H1643.92V10.356ZM1653.75 107.83V108.83H1654.86L1654.75 107.729L1653.75 107.83ZM1645.78 107.83L1644.79 107.938L1644.89 108.83H1645.78V107.83ZM1482.14 170.13L1482.3 171.117L1483.14 170.977V170.13H1482.14ZM1645.78 238.981V237.981H1644.89L1644.79 238.872L1645.78 238.981ZM1653.75 238.981L1654.75 239.082L1654.86 237.981H1653.75V238.981ZM1643.92 335.671V336.671H1644.82L1644.91 335.773L1643.92 335.671ZM1427.71 335.671H1426.71V336.671H1427.71V335.671ZM1427.71 326.558V325.558H1426.71V326.558H1427.71ZM1448.32 197.756L1448.01 196.803L1447.32 197.026V197.756H1448.32ZM1482.14 188.357H1483.14V187.134L1481.94 187.377L1482.14 188.357ZM1449.32 176.965V42.8947H1447.32V176.965H1449.32ZM1449.32 42.8947C1449.32 35.5804 1447.16 29.5051 1443.34 25.2455C1439.51 20.9766 1434.08 18.6121 1427.71 18.6121V20.6121C1433.55 20.6121 1438.43 22.7689 1441.85 26.5813C1445.28 30.4029 1447.32 35.9689 1447.32 42.8947H1449.32ZM1428.71 19.6121V10.356H1426.71V19.6121H1428.71ZM1427.71 11.356H1643.92V9.35605H1427.71V11.356ZM1642.92 10.4565L1652.76 107.93L1654.75 107.729L1644.91 10.2556L1642.92 10.4565ZM1653.75 106.83H1645.78V108.83H1653.75V106.83ZM1646.78 107.721C1641.14 56.1755 1607.09 18.8969 1561.84 18.8969V20.8969C1605.78 20.8969 1639.23 57.0973 1644.79 107.938L1646.78 107.721ZM1561.84 18.8969H1502.32V20.8969H1561.84V18.8969ZM1502.32 18.8969C1495.94 18.8969 1490.61 21.3421 1486.89 25.6516C1483.19 29.947 1481.14 36.0168 1481.14 43.1795H1483.14C1483.14 36.3869 1485.08 30.8154 1488.41 26.9584C1491.72 23.1154 1496.49 20.8969 1502.32 20.8969V18.8969ZM1481.14 43.1795V170.13H1483.14V43.1795H1481.14ZM1481.97 169.144C1470.81 171 1459.51 173.427 1448.08 176.28L1448.56 178.22C1459.96 175.377 1471.2 172.963 1482.3 171.117L1481.97 169.144ZM1481.14 303.631C1481.14 310.759 1483.19 316.811 1486.89 321.098C1490.61 325.397 1495.94 327.842 1502.32 327.842V325.842C1496.49 325.842 1491.72 323.624 1488.41 319.789C1485.08 315.94 1483.14 310.387 1483.14 303.631H1481.14ZM1502.32 327.842H1561.84V325.842H1502.32V327.842ZM1561.84 327.842C1607.08 327.842 1641.14 290.564 1646.78 239.09L1644.79 238.872C1639.23 289.641 1605.78 325.842 1561.84 325.842V327.842ZM1645.78 239.981H1653.75V237.981H1645.78V239.981ZM1652.76 238.88L1642.92 335.57L1644.91 335.773L1654.75 239.082L1652.76 238.88ZM1643.92 334.671H1427.71V336.671H1643.92V334.671ZM1428.71 335.671V326.558H1426.71V335.671H1428.71ZM1427.71 327.558C1434.08 327.558 1439.51 325.115 1443.34 320.824C1447.16 316.542 1449.32 310.488 1449.32 303.346H1447.32C1447.32 310.089 1445.28 315.64 1441.85 319.493C1438.42 323.336 1433.54 325.558 1427.71 325.558V327.558ZM1449.32 303.346V197.756H1447.32V303.346H1449.32ZM1448.62 198.708C1459.97 195.077 1471.2 191.604 1482.34 189.337L1481.94 187.377C1470.68 189.668 1459.36 193.173 1448.01 196.803L1448.62 198.708ZM1481.14 188.357V303.631H1483.14V188.357H1481.14Z" fill="white" mask="url(#path-2-inside-1_1996_174)"/>
<path d="M1100.85 242.429L1100.86 242.361L1100.85 242.292C1100.66 241.173 1100.86 240.025 1101.4 239.028C1101.86 238.193 1102.54 237.504 1103.36 237.031L1109.24 255.41C1097.02 297.106 1056.41 344.616 998.607 344.616C954.707 344.616 921.786 323.211 899.822 291.066C877.847 258.907 866.843 215.997 866.843 173.06C866.843 130.122 877.847 87.2129 899.822 55.0535C921.786 22.909 954.707 1.50384 998.607 1.50393L998.617 1.50374C1020.59 1.07622 1042.06 8.09499 1059.47 21.3997L1059.47 21.3998L1059.5 21.4286C1059.53 21.4539 1059.58 21.4911 1059.63 21.5394C1059.75 21.6361 1059.92 21.7774 1060.13 21.9569C1060.57 22.3159 1061.2 22.828 1061.99 23.4421C1063.58 24.6699 1065.79 26.3076 1068.34 27.9463C1070.88 29.5841 1073.75 31.2284 1076.64 32.4647C1079.53 33.6985 1082.47 34.5409 1085.13 34.5409C1090.43 34.5409 1093.96 32.3592 1096.51 29.1636C1098.96 26.0888 1100.49 22.0771 1101.86 18.236H1103.8V112.858H1099.54C1093.34 82.7129 1081.92 56.9564 1065.18 38.7048C1048.36 20.3605 1026.18 9.61751 998.607 9.61751C967.504 9.61751 944.236 30.1483 928.77 60.7559C913.305 91.3637 905.587 132.138 905.587 172.882C905.587 213.626 913.305 254.4 928.77 285.008C944.236 315.616 967.504 336.146 998.607 336.146C1053.76 336.146 1095.66 288.636 1100.85 242.429Z" stroke="white"/>
<path d="M1155.49 25.6109C1158.65 29.7598 1160.46 35.6955 1160.46 42.8942L1155.49 25.6109ZM1155.49 25.6109C1152.44 21.5838 1148.13 19.2629 1143.08 19.1192V10.856H1213.89V19.1173C1207.87 19.2416 1202.87 21.6131 1199.34 25.6935C1195.73 29.8793 1193.71 35.8245 1193.71 42.8947V109.389C1182.42 113.062 1171.34 117.199 1160.53 121.41L1160.46 42.8947L1155.49 25.6109ZM1343.78 236.782C1354.92 233.179 1365.93 229.113 1376.6 224.973V303.346C1376.6 310.37 1378.41 316.288 1381.62 320.463C1384.74 324.52 1389.15 326.909 1394.41 327.051V335.171H1323.17V327.052C1329.19 326.928 1334.3 324.558 1337.93 320.491C1341.65 316.316 1343.78 310.388 1343.78 303.346V236.782ZM1343.78 151.689V42.8947C1343.78 35.6775 1341.65 29.7296 1337.92 25.5794C1334.3 21.5362 1329.19 19.2376 1323.17 19.1171V10.856H1394.41V19.1192C1389.28 19.2652 1384.88 21.6551 1381.73 25.7139C1378.49 29.8961 1376.6 35.8319 1376.6 42.8947V204.342C1376.07 204.472 1375.54 204.601 1375.01 204.732C1372.16 205.427 1369.21 206.146 1366.69 206.958C1359.01 208.827 1351.33 210.495 1343.78 211.96V151.689ZM1193.64 134.211V303.346C1193.64 310.381 1195.66 316.309 1199.27 320.486C1202.8 324.557 1207.8 326.928 1213.82 327.052V335.171H1143.01V327.051C1148.13 326.904 1152.44 324.513 1155.48 320.459C1158.61 316.284 1160.39 310.367 1160.39 303.346V141.966C1161.06 141.795 1161.72 141.626 1162.39 141.457C1165.18 140.751 1167.96 140.047 1170.65 139.213C1178.47 137.343 1186.16 135.676 1193.64 134.211Z" stroke="white"/>
<path d="M604.015 10.856H839.882L832.788 92.5911H825.848C828.753 70.7124 826.251 52.4017 817.431 39.5151C808.517 26.4902 793.222 19.1121 770.848 19.1121H759.144C752.911 19.1121 747.602 21.4245 743.855 25.5785C740.113 29.7283 737.964 35.6764 737.964 42.8947V303.275C737.964 310.353 740.114 316.299 743.854 320.483C747.497 324.558 752.622 326.928 758.644 327.053V335.171H685.039V327.053C691.051 326.932 696.058 324.632 699.582 320.585C703.198 316.433 705.216 310.486 705.216 303.275V42.8947C705.216 35.8245 703.197 29.8793 699.584 25.6935C695.965 21.5006 690.779 19.1121 684.539 19.1121H672.835C650.425 19.1121 635.113 26.49 626.198 39.5151C617.378 52.4019 614.894 70.7127 617.834 92.5911H610.896L604.015 10.856Z" stroke="white"/>
<path d="M550.433 228.843L551.729 229.699L551.175 228.248L487.844 62.2082L487.374 60.9755L486.909 62.2102L417.545 246.406L418.362 246.94C439.919 225.923 468.921 214.114 499.154 214.045L499.163 214.045C517.377 213.665 535.27 218.83 550.433 228.843ZM406.648 274.704L406.638 274.724L406.631 274.744L395.286 305.003C392.889 311.342 392.848 316.851 395.057 320.803C397.22 324.673 401.461 326.916 407.389 327.035V335.154H359.633V327.013C365.95 326.608 372.016 324.387 377.086 320.616C382.282 316.752 386.196 311.436 388.325 305.351C388.326 305.349 388.327 305.347 388.327 305.345L500.863 7.06516H503.905L616.226 305.349C616.227 305.351 616.227 305.353 616.228 305.354C618.407 311.408 622.334 316.691 627.518 320.547C632.578 324.31 638.618 326.551 644.919 327.009V335.154H568.082V327.32C574.044 327.202 578.286 324.959 580.45 321.088C582.659 317.136 582.618 311.628 580.258 305.29L580.257 305.288L556.346 241.991L556.303 241.876L556.211 241.794C540.821 228.105 520.747 220.752 500.08 221.233C462.381 221.235 422.33 241.956 406.648 274.704Z" stroke="white"/>
<path d="M48.3525 327.053V335.171H0.597046V327.053C6.60215 326.932 11.3861 324.628 14.7956 320.578C18.2872 316.431 20.3019 310.496 20.7731 303.308L20.7732 303.306L37.1435 42.9447C37.6057 39.594 37.2778 36.1826 36.1854 32.9789L36.1759 32.9509L36.1631 32.9242L34.7988 30.0762L34.7989 30.0761L34.7941 30.0665C33.1003 26.7182 30.4867 23.9135 27.2554 21.9756C24.1694 20.1248 20.6399 19.1363 17.0403 19.1096V10.856H62.1597L175.987 289.082L176.481 290.291L176.92 289.061L276.251 10.856H329.324V19.1171C323.308 19.2376 318.182 21.5356 314.596 25.5817C310.913 29.7361 308.893 35.6899 309.147 42.9123L309.148 42.9171L320.852 303.293C320.852 303.294 320.852 303.294 320.852 303.295C321.106 310.352 323.123 316.29 326.669 320.473C330.13 324.554 335.015 326.928 341.029 327.052V335.171H267.926V326.981C273.942 326.861 279.051 324.563 282.628 320.516C286.301 316.362 288.321 310.409 288.103 303.189L288.103 303.184L277.332 32.6219L276.362 32.4728L167.625 335.171H158.404L44.6485 54.8108L43.6861 54.9679L28.3214 303.219C27.8461 306.158 28.0191 309.164 28.8284 312.03C29.6401 314.903 31.0722 317.568 33.0254 319.838C34.9785 322.107 37.4058 323.929 40.1389 325.175C42.7201 326.353 45.5158 326.991 48.3525 327.053Z" stroke="white"/>
<path d="M170.467 569.194C179.155 558.566 183.619 545.157 183.026 531.499H190.475V644.206H183.026C183.619 630.548 179.155 617.139 170.467 606.511L170.462 606.505L170.457 606.499C166.334 601.761 161.188 598.005 155.401 595.51C149.618 593.017 143.342 591.847 137.04 592.087H88.739C87.1531 591.999 85.5682 592.284 84.1146 592.92C82.6565 593.558 81.372 594.532 80.3675 595.76L80.3604 595.769L80.3536 595.778C78.3421 598.476 77.319 601.775 77.4541 605.129V713.971C77.119 720.197 79.0707 726.332 82.9471 731.24L82.9543 731.249L82.9618 731.258C84.8304 733.412 87.1719 735.112 89.8061 736.228C92.2788 737.275 94.9477 737.782 97.6313 737.715V746.023H24.5288V737.714C27.2006 737.77 29.8558 737.258 32.3155 736.211C34.936 735.096 37.2655 733.402 39.1264 731.258L39.134 731.249L39.1411 731.24C43.0176 726.332 44.9693 720.197 44.6341 713.971V453.618C44.9759 447.391 43.0234 441.253 39.1408 436.348L39.1344 436.34L39.1277 436.332C37.3132 434.224 35.0466 432.546 32.4939 431.42C30.0978 430.362 27.5064 429.816 24.8878 429.815V421.565H239.352L249.514 517.754H242.042C240.61 505.617 237.474 493.737 232.723 482.46L232.723 482.459C228.349 472.151 222.193 462.681 214.533 454.473L214.532 454.472C207.269 446.746 198.524 440.535 188.81 436.202C179.024 431.807 168.397 429.558 157.655 429.608L98.1421 429.821C95.2813 429.688 92.4272 430.204 89.7977 431.33C87.1643 432.458 84.8256 434.169 82.9608 436.332L82.954 436.34L82.9474 436.348C79.0649 441.253 77.1123 447.391 77.4541 453.618V570.576C77.319 573.93 78.3421 577.229 80.3536 579.928L80.3604 579.937L80.3675 579.946C81.372 581.174 82.6565 582.147 84.1146 582.785C85.5682 583.422 87.1531 583.707 88.739 583.618H137.04C143.342 583.858 149.618 582.689 155.401 580.195C161.188 577.7 166.334 573.944 170.457 569.206L170.462 569.2L170.467 569.194Z" stroke="white"/>
<path d="M374.036 434.934L374.037 434.933C385.422 425.516 399.815 420.428 414.638 420.578C429.485 420.417 443.904 425.506 455.311 434.932C467.609 445.094 477.57 457.751 484.522 472.05C492.732 488.561 498.594 506.12 501.942 524.227C509.42 563.792 509.42 604.391 501.942 643.956M374.036 434.934L501.45 643.864M374.036 434.934C361.827 445.094 351.984 457.757 345.185 472.052M374.036 434.934L414.638 421.078C399.931 420.928 385.651 425.976 374.356 435.318C362.201 445.433 352.402 458.04 345.634 472.271M501.942 643.956C501.942 643.956 501.942 643.957 501.942 643.957L501.45 643.864M501.942 643.956C501.942 643.956 501.942 643.956 501.942 643.955L501.45 643.864M501.942 643.956C498.583 662.083 492.722 679.665 484.521 696.205M501.45 643.864C498.1 661.946 492.253 679.484 484.073 695.983C477.115 710.196 467.205 722.789 454.993 732.936C443.542 742 429.326 746.937 414.674 746.937C400.023 746.937 385.806 742 374.356 732.936C362.232 722.792 352.439 710.192 345.634 695.983M484.521 696.205C484.522 696.204 484.522 696.204 484.523 696.203L484.074 695.983L484.521 696.205ZM484.521 696.205C477.532 710.48 467.578 723.129 455.312 733.321L455.303 733.328C443.764 742.462 429.438 747.437 414.674 747.437C399.911 747.437 385.584 742.462 374.046 733.328L374.035 733.32C361.858 723.13 352.021 710.475 345.185 696.203M345.185 696.203C345.185 696.204 345.186 696.205 345.186 696.206L345.634 695.983M345.185 696.203C345.184 696.201 345.184 696.2 345.183 696.199L345.634 695.983M345.185 696.203C336.954 679.676 331.091 662.09 327.766 643.955M345.634 695.983C337.423 679.497 331.575 661.955 328.257 643.864C320.79 604.36 320.79 563.823 328.257 524.319M328.257 524.319L327.765 524.229C327.765 524.228 327.766 524.228 327.766 524.227M328.257 524.319C331.563 506.248 337.412 488.728 345.634 472.271M328.257 524.319L327.766 524.226C327.766 524.226 327.766 524.227 327.766 524.227M327.766 643.955C327.766 643.956 327.766 643.957 327.766 643.957L328.256 643.865L327.765 643.954C327.765 643.955 327.766 643.955 327.766 643.955ZM327.766 643.955C320.287 604.39 320.287 563.792 327.766 524.227M327.766 524.227C331.08 506.112 336.943 488.549 345.185 472.052M345.634 472.271L345.182 472.056C345.183 472.055 345.184 472.053 345.185 472.052M345.634 472.271L345.187 472.048C345.186 472.049 345.185 472.05 345.185 472.052M414.627 412.25L414.638 412.251L414.649 412.25C434.52 411.834 454.108 416.966 471.178 427.06C487.345 436.969 501.136 450.258 511.589 465.997C522.685 482.836 530.887 501.382 535.863 520.882L535.864 520.886C546.757 562.114 546.757 605.428 535.864 646.656L535.863 646.66C530.867 666.175 522.666 684.742 511.588 701.617C501.135 717.336 487.343 730.601 471.178 740.482C454.115 750.584 434.518 755.693 414.65 755.22L414.639 755.22L414.627 755.22C394.774 755.674 375.199 750.539 358.17 740.411C341.991 730.548 328.195 717.279 317.76 701.545C306.688 684.658 298.465 666.096 293.413 646.587L293.413 646.585C282.52 605.357 282.52 562.043 293.413 520.815L293.414 520.812C298.438 501.294 306.663 482.727 317.76 465.853C328.193 450.098 341.988 436.807 358.17 426.918C375.227 416.872 394.792 411.789 414.627 412.25Z" stroke="white"/>
<path d="M636.103 582.516L636.103 582.516C634.024 579.845 632.969 576.527 633.126 573.155L632.839 453.991C632.497 447.764 634.449 441.626 638.332 436.721L638.339 436.712L638.346 436.704C640.214 434.546 642.553 432.838 645.185 431.71C647.814 430.584 650.667 430.066 653.527 430.194H685.676C700.256 429.702 714.63 433.711 726.814 441.668L726.825 441.674L726.824 441.674C737.545 449.051 746.161 459.051 751.835 470.704L751.836 470.706C757.422 482.357 760.239 495.122 760.071 508.021C760.071 508.022 760.071 508.024 760.071 508.025L759.571 508.018C759.52 520.933 756.731 533.693 751.385 545.47L636.103 582.516ZM636.103 582.516L636.111 582.526C637.115 583.754 638.4 584.727 639.858 585.365C641.312 586.002 642.896 586.287 644.482 586.198L636.103 582.516ZM688.556 421.582L688.564 421.582C707.919 421.268 727.086 425.394 744.566 433.639L744.57 433.64C758.589 440.114 770.836 449.829 780.284 461.969C788.372 472.924 793.402 485.801 794.867 499.299C796.333 512.799 794.181 526.443 788.628 538.854C782.495 552.035 773.117 563.475 761.357 572.123C747.282 582.465 730.865 589.23 713.542 591.825L712.189 592.028L713.354 592.745C720.844 597.356 727.235 603.524 732.084 610.824L732.09 610.833L732.097 610.841C738.311 619.373 744.623 628.855 751.031 639.289C757.441 649.723 763.851 660.798 770.261 672.515C776.124 683.507 782.556 694.192 789.53 704.526L789.531 704.527C795.467 713.294 802.488 721.289 810.43 728.325C816.479 734.087 824.445 737.443 832.815 737.768V746.111H802.367C792.798 746.105 783.535 742.77 776.192 736.687C767.777 729.61 760.455 721.347 754.461 712.161L754.457 712.155C747.313 701.561 740.825 690.545 735.029 679.171L735.029 679.17C733.091 675.373 731.175 671.611 729.275 667.882C725.193 659.868 721.19 652.008 717.22 644.281C711.946 633.827 706.141 623.645 699.825 613.774C695.313 606.081 689.1 599.504 681.653 594.538L681.527 594.454H681.376H644.48C642.897 594.382 641.319 594.675 639.869 595.31C638.415 595.946 637.13 596.909 636.115 598.122L636.107 598.131L636.1 598.141C634.045 600.85 632.995 604.178 633.126 607.566V714.344C632.791 720.57 634.742 726.705 638.619 731.613L638.627 731.623L638.635 731.632C640.51 733.777 642.852 735.471 645.484 736.586C647.955 737.632 650.621 738.143 653.303 738.086V746.396H580.2V738.086C582.883 738.143 585.548 737.632 588.019 736.586C590.651 735.471 592.993 733.777 594.869 731.632L594.877 731.623L594.885 731.613C598.761 726.705 600.713 720.57 600.378 714.344V453.635C600.719 447.407 598.767 441.27 594.884 436.365L594.877 436.356L594.87 436.348C593.002 434.19 590.663 432.482 588.031 431.354C585.559 430.295 582.889 429.774 580.2 429.822V421.582H685.253L688.556 421.582Z" stroke="white"/>
<path d="M921.283 736.299C923.756 737.346 926.425 737.853 929.108 737.787V746.094H855.503V737.782C858.214 737.828 860.907 737.313 863.41 736.268C866.073 735.156 868.454 733.472 870.382 731.336L870.389 731.328L870.396 731.32C874.408 726.47 876.447 720.307 876.111 714.042V453.618C876.454 447.351 874.414 441.186 870.395 436.339L870.389 436.332L870.383 436.324C868.459 434.18 866.08 432.485 863.418 431.361C860.915 430.304 858.219 429.776 855.503 429.809V421.565H929.108V429.804C926.419 429.751 923.748 430.271 921.275 431.33C918.641 432.458 916.303 434.169 914.438 436.332L914.431 436.34L914.425 436.348C910.542 441.253 908.589 447.391 908.931 453.618V570.568C908.682 573.967 909.628 577.347 911.609 580.132L911.618 580.146L911.629 580.159C912.634 581.387 913.918 582.361 915.376 582.999C916.83 583.635 918.415 583.92 920.001 583.831H968.301C974.603 584.072 980.879 582.902 986.663 580.409C992.45 577.914 997.596 574.158 1001.72 569.42L1001.72 569.413L1001.73 569.407C1010.39 558.763 1014.85 545.366 1014.29 531.713H1021.74V644.206H1014.5C1015.06 630.553 1010.6 617.156 1001.94 606.512L1001.94 606.506L1001.93 606.499C997.811 601.761 992.665 598.005 986.879 595.51C981.095 593.017 974.819 591.847 968.517 592.087H920.216C918.63 591.999 917.045 592.284 915.592 592.92C914.134 593.558 912.849 594.532 911.845 595.76L911.837 595.769L911.831 595.778C909.819 598.476 908.796 601.775 908.931 605.129V714.042C908.596 720.268 910.548 726.403 914.424 731.311L914.431 731.32L914.439 731.329C916.308 733.483 918.649 735.183 921.283 736.299ZM989.13 429.608L930.539 429.82V421.565H1070.76L1080.49 517.754H1073.52C1072.09 505.617 1068.95 493.737 1064.2 482.46L1064.2 482.459C1059.83 472.151 1053.67 462.681 1046.01 454.473L1046.01 454.472C1038.8 446.784 1030.13 440.576 1020.5 436.203L1020.5 436.203C1010.66 431.755 999.949 429.504 989.131 429.608C989.131 429.608 989.13 429.608 989.13 429.608ZM930.539 745.596V737.767L989.129 737.767C989.13 737.767 989.13 737.767 989.131 737.767C999.943 737.893 1010.65 735.666 1020.5 731.244L1020.5 731.243C1030.13 726.87 1038.8 720.662 1046.01 712.974L1046.01 712.971C1053.69 704.673 1059.85 695.105 1064.2 684.7C1068.96 673.426 1072.09 661.545 1073.52 649.407H1080.49L1070.76 745.596H930.539Z" stroke="white"/>
<path d="M1101.74 429.827V421.565H1179.08V429.774C1176.69 429.605 1174.29 430.056 1172.13 431.086C1169.8 432.197 1167.83 433.936 1166.44 436.105L1166.42 436.138L1166.41 436.173C1165.31 438.683 1164.79 441.402 1164.88 444.135C1164.97 446.859 1165.66 449.53 1166.91 451.956L1258.38 694.652L1258.85 695.895L1259.32 694.651L1350.5 451.956C1351.75 449.53 1352.44 446.859 1352.53 444.135C1352.62 441.402 1352.1 438.683 1351 436.173L1350.99 436.138L1350.96 436.105C1349.58 433.936 1347.61 432.197 1345.28 431.086C1343.12 430.056 1340.72 429.605 1338.33 429.774V421.565H1386.59V429.827C1380.43 429.956 1374.48 432.119 1369.69 435.982C1364.47 440.045 1360.44 445.43 1358.05 451.571L1358.05 451.576L1245.58 749.797H1242.68L1130.28 451.577L1130.28 451.577L1130.28 451.569C1127.86 445.443 1123.84 440.064 1118.64 435.983C1113.85 432.109 1107.9 429.945 1101.74 429.827Z" stroke="white"/>
<path d="M1415.91 431.361C1413.41 430.304 1410.71 429.776 1408 429.809V421.565H1481.53V429.815C1478.91 429.816 1476.32 430.362 1473.92 431.42C1471.37 432.546 1469.1 434.224 1467.29 436.332L1467.28 436.34L1467.28 436.348C1463.39 441.253 1461.44 447.391 1461.78 453.618V570.57C1461.55 573.978 1462.53 577.36 1464.53 580.136L1464.54 580.148L1464.55 580.159C1465.56 581.387 1466.84 582.361 1468.3 582.999C1469.75 583.635 1471.34 583.92 1472.92 583.831H1521.15C1527.47 584.078 1533.75 582.911 1539.55 580.417C1545.35 577.922 1550.51 574.164 1554.64 569.42L1554.65 569.413L1554.65 569.407C1563.31 558.763 1567.77 545.366 1567.21 531.713H1574.66V644.206H1567.21C1567.77 630.553 1563.31 617.156 1554.65 606.512L1554.65 606.506L1554.64 606.499C1550.51 601.755 1545.35 597.997 1539.55 595.502C1533.75 593.008 1527.47 591.841 1521.15 592.087H1472.92C1471.34 591.999 1469.75 592.284 1468.3 592.92C1466.84 593.558 1465.56 594.532 1464.55 595.76L1464.55 595.769L1464.54 595.778C1462.53 598.476 1461.5 601.775 1461.64 605.129L1461.42 714.042C1461.09 720.268 1463.04 726.403 1466.92 731.311L1466.92 731.321L1466.93 731.329C1468.75 733.424 1471.02 735.088 1473.58 736.202C1475.97 737.247 1478.56 737.782 1481.17 737.775V746.094H1408V737.782C1410.71 737.828 1413.4 737.313 1415.9 736.268C1418.57 735.156 1420.95 733.472 1422.87 731.336L1422.88 731.328L1422.89 731.32C1426.9 726.47 1428.94 720.307 1428.6 714.042V453.618C1428.95 447.351 1426.91 441.186 1422.89 436.339L1422.88 436.332L1422.88 436.324C1420.95 434.18 1418.57 432.485 1415.91 431.361ZM1598.5 454.473L1598.5 454.469C1591.22 446.843 1582.51 440.708 1572.85 436.415C1563 431.978 1552.3 429.727 1541.48 429.821H1483.03V421.565H1623.25L1632.98 517.754H1626.01C1624.59 505.607 1621.43 493.722 1616.62 482.459C1612.3 472.141 1606.16 462.666 1598.5 454.473ZM1572.99 731.244L1573 731.243C1582.62 726.87 1591.29 720.662 1598.5 712.974L1598.5 712.972C1606.19 704.689 1612.32 695.116 1616.62 684.701C1621.44 673.441 1624.6 661.555 1626.01 649.407H1632.98L1623.25 745.596H1483.03V737.767L1541.62 737.767C1541.62 737.767 1541.62 737.767 1541.62 737.767C1552.44 737.886 1563.14 735.66 1572.99 731.244Z" stroke="white"/>
<mask id="path-15-inside-2_1996_174" fill="white">
<path d="M1771.87 421.079H1775.1C1794.46 420.799 1813.62 424.94 1831.11 433.183C1845.2 439.691 1857.51 449.458 1867.01 461.663C1875.15 472.69 1880.22 485.653 1881.69 499.242C1883.17 512.831 1881 526.565 1875.41 539.058C1869.22 552.302 1859.79 563.804 1847.98 572.522C1833.84 582.913 1817.34 589.709 1799.94 592.316C1807.4 596.878 1813.79 602.972 1818.68 610.187C1824.95 618.731 1831.27 628.225 1837.64 638.668C1844.01 649.11 1850.42 660.194 1856.88 671.918C1863.27 683.381 1869.88 693.919 1876.56 703.531C1882.52 712.253 1889.53 720.216 1897.45 727.241C1903.53 733.033 1911.57 736.36 1920 736.568V745.896H1889.05C1879.37 745.89 1869.99 742.513 1862.56 736.355C1853.92 729.283 1846.4 720.981 1840.22 711.719C1833.07 701.108 1826.57 690.075 1820.77 678.682C1814.66 666.721 1808.77 655.115 1802.96 643.794C1797.14 632.473 1791.4 622.434 1785.58 613.32C1781.11 605.689 1774.94 599.164 1767.56 594.238H1731.01C1729.5 594.168 1727.99 594.447 1726.61 595.053C1725.23 595.658 1724 596.574 1723.04 597.727C1721.05 600.347 1720.04 603.566 1720.17 606.841V713.642C1719.83 719.75 1721.75 725.771 1725.55 730.587C1727.38 732.675 1729.66 734.324 1732.22 735.41C1734.78 736.495 1737.56 736.989 1740.34 736.853V746.18H1666.31V736.853C1669.1 736.989 1671.87 736.495 1674.44 735.41C1677 734.324 1679.28 732.675 1681.1 730.587C1684.91 725.771 1686.82 719.75 1686.49 713.642V453.617C1686.83 447.508 1684.91 441.485 1681.1 436.672C1679.29 434.571 1677.01 432.908 1674.45 431.81C1671.88 430.713 1669.1 430.208 1666.31 430.335V421.079H1771.87ZM1720.24 573.163C1720.08 576.42 1721.1 579.625 1723.11 582.206C1724.07 583.372 1725.29 584.297 1726.67 584.904C1728.06 585.51 1729.57 585.781 1731.08 585.694H1772.3C1786.1 586.326 1799.77 582.827 1811.54 575.653C1823.3 568.479 1832.62 557.961 1838.29 545.466C1843.63 533.689 1846.42 520.929 1846.47 508.015C1846.64 495.191 1843.84 482.501 1838.29 470.919C1832.65 459.344 1824.09 449.41 1813.44 442.083C1801.34 434.181 1787.06 430.2 1772.58 430.691H1740.7C1737.91 430.564 1735.13 431.069 1732.57 432.166C1730.01 433.264 1727.73 434.927 1725.91 437.028C1722.1 441.841 1720.19 447.864 1720.53 453.973L1720.24 573.163Z"/>
</mask>
<path d="M1775.1 421.079V422.079H1775.1L1775.11 422.079L1775.1 421.079ZM1831.11 433.183L1830.68 434.087L1830.69 434.091L1831.11 433.183ZM1867.01 461.663L1867.81 461.069L1867.8 461.059L1867.8 461.049L1867.01 461.663ZM1875.41 539.058L1876.31 539.482L1876.32 539.474L1876.32 539.466L1875.41 539.058ZM1847.98 572.522L1848.57 573.328L1848.57 573.327L1847.98 572.522ZM1799.94 592.316L1799.79 591.327L1797.07 591.735L1799.42 593.169L1799.94 592.316ZM1818.68 610.187L1817.85 610.748L1817.87 610.764L1817.88 610.779L1818.68 610.187ZM1856.88 671.918L1856.01 672.401L1856.01 672.405L1856.88 671.918ZM1876.56 703.531L1877.38 702.967L1877.38 702.961L1876.56 703.531ZM1897.45 727.241L1898.14 726.517L1898.13 726.505L1898.12 726.493L1897.45 727.241ZM1920 736.568H1921V735.593L1920.02 735.569L1920 736.568ZM1920 745.896V746.896H1921V745.896H1920ZM1889.05 745.896L1889.05 746.896H1889.05V745.896ZM1862.56 736.355L1863.19 735.585L1863.19 735.581L1862.56 736.355ZM1840.22 711.719L1841.06 711.165L1841.05 711.16L1840.22 711.719ZM1820.77 678.682L1821.66 678.228L1821.66 678.228L1820.77 678.682ZM1785.58 613.32L1784.72 613.826L1784.73 613.842L1784.74 613.858L1785.58 613.32ZM1767.56 594.238L1768.11 593.406L1767.86 593.238H1767.56V594.238ZM1731.01 594.238L1730.96 595.237L1730.99 595.238H1731.01V594.238ZM1723.04 597.727L1722.27 597.085L1722.26 597.104L1722.24 597.123L1723.04 597.727ZM1720.17 606.841H1721.17V606.821L1721.17 606.802L1720.17 606.841ZM1720.17 713.642L1721.17 713.696L1721.17 713.669V713.642H1720.17ZM1725.55 730.587L1724.77 731.207L1724.78 731.227L1724.8 731.246L1725.55 730.587ZM1740.34 736.853H1741.34V735.803L1740.3 735.854L1740.34 736.853ZM1740.34 746.18V747.18H1741.34V746.18H1740.34ZM1666.31 746.18H1665.31V747.18H1666.31V746.18ZM1666.31 736.853L1666.36 735.854L1665.31 735.803V736.853H1666.31ZM1681.1 730.587L1681.86 731.246L1681.87 731.227L1681.89 731.207L1681.1 730.587ZM1686.49 713.642H1685.49V713.669L1685.49 713.696L1686.49 713.642ZM1686.49 453.617L1685.49 453.562L1685.49 453.59V453.617H1686.49ZM1681.1 436.672L1681.89 436.051L1681.88 436.034L1681.86 436.017L1681.1 436.672ZM1666.31 430.335H1665.31V431.381L1666.36 431.334L1666.31 430.335ZM1666.31 421.079V420.079H1665.31V421.079H1666.31ZM1720.24 573.163L1721.24 573.211L1721.24 573.188L1721.24 573.165L1720.24 573.163ZM1723.11 582.206L1722.32 582.82L1722.33 582.829L1722.34 582.839L1723.11 582.206ZM1731.08 585.694V584.694H1731.05L1731.02 584.696L1731.08 585.694ZM1772.3 585.694L1772.34 584.695L1772.32 584.694H1772.3V585.694ZM1838.29 545.466L1837.37 545.053L1837.37 545.053L1838.29 545.466ZM1846.47 508.015L1845.47 508.002L1845.47 508.011L1846.47 508.015ZM1838.29 470.919L1839.19 470.487L1839.18 470.481L1838.29 470.919ZM1813.44 442.083L1814.01 441.259L1814 441.252L1813.99 441.246L1813.44 442.083ZM1772.58 430.691V431.691H1772.6L1772.62 431.69L1772.58 430.691ZM1740.7 430.691L1740.66 431.69L1740.68 431.691H1740.7V430.691ZM1725.91 437.028L1725.16 436.373L1725.14 436.39L1725.13 436.407L1725.91 437.028ZM1720.53 453.973L1721.53 453.976L1721.53 453.947L1721.52 453.918L1720.53 453.973ZM1771.87 422.079H1775.1V420.079H1771.87V422.079ZM1775.11 422.079C1794.32 421.801 1813.33 425.91 1830.68 434.087L1831.53 432.278C1813.91 423.971 1794.59 419.797 1775.08 420.079L1775.11 422.079ZM1830.69 434.091C1844.63 440.532 1856.82 450.199 1866.22 462.277L1867.8 461.049C1858.2 448.717 1845.76 438.85 1831.52 432.275L1830.69 434.091ZM1866.2 462.257C1874.24 473.142 1879.24 485.937 1880.7 499.35L1882.68 499.134C1881.19 485.368 1876.06 472.238 1867.81 461.069L1866.2 462.257ZM1880.7 499.35C1882.15 512.762 1880.01 526.318 1874.5 538.65L1876.32 539.466C1881.98 526.812 1884.18 512.899 1882.68 499.134L1880.7 499.35ZM1874.5 538.634C1868.38 551.727 1859.06 563.099 1847.39 571.718L1848.57 573.327C1860.52 564.51 1870.05 552.877 1876.31 539.482L1874.5 538.634ZM1847.39 571.716C1833.38 582.011 1817.04 588.744 1799.79 591.327L1800.09 593.305C1817.65 590.674 1834.3 583.815 1848.57 573.328L1847.39 571.716ZM1799.42 593.169C1806.76 597.657 1813.05 603.651 1817.85 610.748L1819.51 609.626C1814.54 602.292 1808.05 596.099 1800.46 591.463L1799.42 593.169ZM1817.88 610.779C1824.13 619.297 1830.43 628.766 1836.79 639.188L1838.49 638.147C1832.11 627.683 1825.78 618.166 1819.49 609.596L1817.88 610.779ZM1836.79 639.188C1843.14 649.617 1849.55 660.688 1856.01 672.401L1857.76 671.435C1851.29 659.7 1844.87 648.603 1838.49 638.147L1836.79 639.188ZM1856.01 672.405C1862.42 683.897 1869.04 694.462 1875.74 704.102L1877.38 702.961C1870.72 693.376 1864.13 682.866 1857.76 671.431L1856.01 672.405ZM1875.73 704.095C1881.74 712.885 1888.81 720.91 1896.79 727.989L1898.12 726.493C1890.26 719.522 1883.3 711.621 1877.38 702.967L1875.73 704.095ZM1896.76 727.965C1903.02 733.929 1911.3 737.354 1919.97 737.568L1920.02 735.569C1911.84 735.367 1904.04 732.137 1898.14 726.517L1896.76 727.965ZM1919 736.568V745.896H1921V736.568H1919ZM1920 744.896H1889.05V746.896H1920V744.896ZM1889.05 744.896C1879.6 744.89 1870.45 741.594 1863.19 735.585L1861.92 737.125C1869.53 743.432 1879.13 746.89 1889.05 746.896L1889.05 744.896ZM1863.19 735.581C1854.63 728.572 1847.18 720.343 1841.06 711.165L1839.39 712.274C1845.62 721.618 1853.21 729.994 1861.92 737.128L1863.19 735.581ZM1841.05 711.16C1833.92 700.582 1827.44 689.585 1821.66 678.228L1819.87 679.136C1825.7 690.565 1832.22 701.633 1839.4 712.278L1841.05 711.16ZM1821.66 678.228C1815.55 666.269 1809.66 654.659 1803.85 643.337L1802.07 644.251C1807.88 655.57 1813.77 667.172 1819.87 679.137L1821.66 678.228ZM1803.85 643.337C1798.02 631.992 1792.26 621.925 1786.42 612.782L1784.74 613.858C1790.54 622.943 1796.26 632.954 1802.07 644.251L1803.85 643.337ZM1786.44 612.814C1781.89 605.052 1775.62 598.416 1768.11 593.406L1767 595.07C1774.26 599.913 1780.32 606.326 1784.72 613.826L1786.44 612.814ZM1767.56 593.238H1731.01V595.238H1767.56V593.238ZM1731.06 593.239C1729.39 593.162 1727.73 593.469 1726.21 594.137L1727.01 595.969C1728.25 595.425 1729.61 595.174 1730.96 595.237L1731.06 593.239ZM1726.21 594.137C1724.68 594.804 1723.34 595.813 1722.27 597.085L1723.81 598.369C1724.67 597.334 1725.77 596.512 1727.01 595.969L1726.21 594.137ZM1722.24 597.123C1720.12 599.927 1719.03 603.373 1719.17 606.88L1721.17 606.802C1721.05 603.759 1721.99 600.767 1723.84 598.331L1722.24 597.123ZM1719.17 606.841V713.642H1721.17V606.841H1719.17ZM1719.17 713.587C1718.82 719.94 1720.81 726.201 1724.77 731.207L1726.34 729.968C1722.68 725.342 1720.85 719.561 1721.17 713.696L1719.17 713.587ZM1724.8 731.246C1726.72 733.448 1729.13 735.186 1731.83 736.33L1732.61 734.489C1730.19 733.462 1728.03 731.903 1726.3 729.929L1724.8 731.246ZM1731.83 736.33C1734.53 737.475 1737.46 737.995 1740.39 737.852L1740.3 735.854C1737.66 735.983 1735.03 735.516 1732.61 734.489L1731.83 736.33ZM1739.34 736.853V746.18H1741.34V736.853H1739.34ZM1740.34 745.18H1666.31V747.18H1740.34V745.18ZM1667.31 746.18V736.853H1665.31V746.18H1667.31ZM1666.26 737.852C1669.2 737.995 1672.13 737.475 1674.83 736.33L1674.05 734.489C1671.62 735.516 1669 735.983 1666.36 735.854L1666.26 737.852ZM1674.83 736.33C1677.53 735.186 1679.93 733.448 1681.86 731.246L1680.35 729.929C1678.63 731.903 1676.47 733.462 1674.05 734.489L1674.83 736.33ZM1681.89 731.207C1685.84 726.201 1687.83 719.94 1687.49 713.587L1685.49 713.696C1685.81 719.561 1683.97 725.342 1680.32 729.968L1681.89 731.207ZM1687.49 713.642V453.617H1685.49V713.642H1687.49ZM1687.49 453.673C1687.84 447.318 1685.85 441.055 1681.89 436.051L1680.32 437.292C1683.98 441.915 1685.82 447.697 1685.49 453.562L1687.49 453.673ZM1681.86 436.017C1679.94 433.801 1677.54 432.049 1674.84 430.891L1674.05 432.73C1676.48 433.768 1678.63 435.34 1680.35 437.326L1681.86 436.017ZM1674.84 430.891C1672.14 429.734 1669.21 429.202 1666.27 429.336L1666.36 431.334C1669 431.214 1671.63 431.691 1674.05 432.73L1674.84 430.891ZM1667.31 430.335V421.079H1665.31V430.335H1667.31ZM1666.31 422.079H1771.87V420.079H1666.31V422.079ZM1719.24 573.116C1719.07 576.612 1720.17 580.051 1722.32 582.82L1723.9 581.591C1722.04 579.198 1721.09 576.228 1721.24 573.211L1719.24 573.116ZM1722.34 582.839C1723.39 584.128 1724.74 585.15 1726.27 585.82L1727.07 583.988C1725.83 583.444 1724.74 582.616 1723.88 581.572L1722.34 582.839ZM1726.27 585.82C1727.8 586.49 1729.47 586.789 1731.14 586.693L1731.02 584.696C1729.67 584.774 1728.31 584.531 1727.07 583.988L1726.27 585.82ZM1731.08 586.694H1772.3V584.694H1731.08V586.694ZM1772.25 586.693C1786.25 587.334 1800.12 583.785 1812.06 576.507L1811.02 574.799C1799.42 581.87 1785.94 585.318 1772.34 584.695L1772.25 586.693ZM1812.06 576.507C1824 569.229 1833.45 558.558 1839.2 545.879L1837.37 545.053C1831.8 557.365 1822.61 567.729 1811.02 574.799L1812.06 576.507ZM1839.2 545.879C1844.6 533.974 1847.42 521.075 1847.47 508.019L1845.47 508.011C1845.42 520.784 1842.66 533.404 1837.37 545.053L1839.2 545.879ZM1847.47 508.028C1847.64 495.05 1844.81 482.208 1839.19 470.487L1837.38 471.351C1842.87 482.795 1845.64 495.333 1845.47 508.002L1847.47 508.028ZM1839.18 470.481C1833.47 458.75 1824.8 448.684 1814.01 441.259L1812.87 442.907C1823.38 450.137 1831.83 459.938 1837.39 471.357L1839.18 470.481ZM1813.99 441.246C1801.71 433.231 1787.24 429.194 1772.55 429.691L1772.62 431.69C1786.89 431.206 1800.97 435.131 1812.89 442.92L1813.99 441.246ZM1772.58 429.691H1740.7V431.691H1772.58V429.691ZM1740.75 429.692C1737.81 429.558 1734.88 430.09 1732.18 431.247L1732.96 433.086C1735.39 432.047 1738.02 431.57 1740.66 431.69L1740.75 429.692ZM1732.18 431.247C1729.47 432.405 1727.07 434.157 1725.16 436.373L1726.67 437.682C1728.39 435.696 1730.54 434.124 1732.96 433.086L1732.18 431.247ZM1725.13 436.407C1721.17 441.411 1719.18 447.674 1719.53 454.029L1721.52 453.918C1721.2 448.053 1723.04 442.271 1726.7 437.648L1725.13 436.407ZM1719.53 453.971L1719.24 573.161L1721.24 573.165L1721.53 453.976L1719.53 453.971Z" fill="white" mask="url(#path-15-inside-2_1996_174)"/>
<path d="M1233.59 169.238C1250.28 195.28 1277.23 202.623 1309.12 200.996L1309.12 200.996L1309.13 200.995C1328.56 199.51 1347.81 196.288 1366.66 191.368L1366.67 191.366L1366.68 191.363C1369.47 190.513 1372.38 189.786 1375.31 189.055L1375.31 189.054C1378.23 188.326 1381.16 187.594 1383.97 186.737C1388.59 185.529 1393.26 184.259 1397.97 182.979C1411.33 179.352 1424.95 175.652 1438.15 173.077L1438.16 173.073L1438.18 173.068C1462.85 166.39 1488.12 162.103 1513.63 160.268L1513.63 160.268C1531.74 158.837 1549.96 160.703 1567.39 165.775L1567.77 172.593C1551.35 167.207 1534.05 165.004 1516.79 166.106L1516.78 166.107C1489.99 168.521 1463.64 174.493 1438.46 183.863C1425.02 188.43 1411.65 193.592 1398.28 198.754C1393.72 200.516 1389.16 202.278 1384.59 204.016L1384.59 204.019C1353.06 216.483 1318.81 229.479 1284.87 231.254C1267.95 232.139 1249.55 226.911 1238.24 216.242C1232.59 210.915 1228.72 204.239 1227.65 196.283C1226.61 188.515 1228.24 179.481 1233.59 169.238Z" stroke="white"/>
<path d="M1303.91 176.861C1287.22 150.889 1260.27 143.476 1228.31 145.174L1228.3 145.175C1208.88 146.674 1189.63 149.871 1170.77 154.73L1170.76 154.733L1170.75 154.736C1168 155.587 1165.1 156.331 1162.18 157.079L1162.04 157.117C1159.17 157.851 1156.29 158.589 1153.53 159.432C1148.37 160.756 1143.15 162.163 1137.9 163.578C1125.06 167.039 1112.03 170.549 1099.36 173.022L1099.34 173.025L1099.32 173.029C1074.54 179.618 1049.18 183.833 1023.59 185.616L1023.59 185.617C1005.48 187.018 987.259 185.151 969.821 180.109L969.449 173.221C985.862 178.607 1003.17 180.81 1020.43 179.708L1020.44 179.707C1047.26 177.436 1073.65 171.583 1098.9 162.307C1113.27 157.386 1127.47 151.882 1141.68 146.368C1145.38 144.936 1149.07 143.504 1152.77 142.081L1152.77 142.08C1184.37 129.616 1218.62 116.619 1252.49 114.844C1269.38 113.959 1287.81 119.187 1299.17 129.857C1304.83 135.184 1308.74 141.861 1309.82 149.817C1310.88 157.584 1309.26 166.618 1303.91 176.861Z" stroke="white"/>
</svg>
