<svg width="24" height="24" viewBox="0 0 24 24" fill="none" xmlns="http://www.w3.org/2000/svg">
<path d="M11.4375 11.4375H12.5625L20.25 11.4375C20.3992 11.4375 20.5423 11.4968 20.6477 11.6023C20.7532 11.7078 20.8125 11.8509 20.8125 12C20.8125 12.1492 20.7532 12.2923 20.6477 12.3978C20.5423 12.5033 20.3992 12.5625 20.25 12.5625L12.5625 12.5625H11.4375H3.75C3.60082 12.5625 3.45774 12.5033 3.35225 12.3978C3.24676 12.2923 3.1875 12.1492 3.1875 12C3.1875 11.8509 3.24676 11.7078 3.35225 11.6023C3.45774 11.4968 3.60082 11.4375 3.75 11.4375H11.4375Z" fill="#933944"/>
</svg>
