<svg width="162" height="48" viewBox="0 0 162 48" fill="none" xmlns="http://www.w3.org/2000/svg">
<g clip-path="url(#clip0_1996_395)">
<path d="M155.748 48H5.99032C2.69568 48 0 45.3 0 42V6.00003C0 2.7 2.69563 0 5.99032 0H155.748C159.043 0 161.738 2.7 161.738 6.00003V42C161.738 45.3 159.043 48 155.748 48Z" fill="black"/>
<path d="M155.748 0H5.99032C2.69568 0 0 2.7 0 6.00003V42C0 45.3 2.69563 48 5.99032 48H155.748C159.043 48 161.738 45.3 161.738 42V6.00003C161.738 2.7 159.043 0 155.748 0ZM155.748 0.95997C158.523 0.95997 160.78 3.22129 160.78 6.00003V42C160.78 44.7792 158.523 47.0405 155.748 47.0405H5.99032C3.21611 47.0405 0.95846 44.7792 0.95846 42V6.00003C0.95846 3.22129 3.21606 0.960024 5.99032 0.960024L155.748 0.95997Z" fill="#A6A6A6"/>
<path d="M56.81 12.2926C56.81 13.298 56.5127 14.0986 55.9174 14.6959C55.2412 15.406 54.3599 15.7614 53.2765 15.7614C52.239 15.7614 51.3568 15.4014 50.6314 14.6804C49.9047 13.9599 49.542 13.0665 49.542 12.0006C49.542 10.9341 49.9047 10.0413 50.6314 9.32019C51.3568 8.59979 52.239 8.23926 53.2765 8.23926C53.7913 8.23926 54.2842 8.34011 54.7521 8.54122C55.2201 8.74281 55.5955 9.01041 55.8763 9.34554L55.2444 9.9788C54.7685 9.40929 54.1133 9.12475 53.2765 9.12475C52.5198 9.12475 51.8655 9.39106 51.3134 9.924C50.761 10.4575 50.485 11.1493 50.485 12.0006C50.485 12.8519 50.761 13.5436 51.3134 14.0772C51.8655 14.6101 52.5198 14.8764 53.2765 14.8764C54.0792 14.8764 54.7484 14.6087 55.2842 14.0725C55.632 13.7232 55.8331 13.2376 55.887 12.6141H53.2764V11.7493H56.7598C56.7935 11.9374 56.81 12.1178 56.81 12.2926Z" fill="white"/>
<path d="M56.8106 12.2916H56.6907C56.6898 13.274 56.4033 14.0371 55.8332 14.6099L55.832 14.6109L55.8315 14.6119C55.1767 15.2976 54.3351 15.6388 53.277 15.6403C52.2672 15.6388 51.422 15.2938 50.7162 14.5945C50.0119 13.8937 49.6637 13.0382 49.6624 11.9995C49.6637 10.9603 50.0119 10.1052 50.7162 9.40496C51.422 8.7051 52.2672 8.35961 53.277 8.35816C53.7764 8.35816 54.2519 8.45577 54.7054 8.65025C55.1593 8.84623 55.5179 9.10305 55.7851 9.42189L55.8768 9.34445L55.7921 9.25961L55.1603 9.8933L55.245 9.9777L55.3372 9.90091C54.8392 9.30319 54.1401 9.00188 53.2771 9.00366C52.4923 9.00269 51.802 9.28356 51.231 9.83673C50.6545 10.3917 50.3648 11.1224 50.3658 11.9995C50.3648 12.8765 50.6545 13.6073 51.231 14.1623C51.802 14.7154 52.4923 14.9962 53.277 14.9953C54.1063 14.9967 54.8131 14.7149 55.3695 14.1562C55.7411 13.783 55.9517 13.2661 56.007 12.6233L56.0181 12.493H53.3969V11.8682H56.7604V11.7482L56.6424 11.7693C56.6752 11.9512 56.6907 12.1242 56.6907 12.2916H56.9303C56.9303 12.1092 56.9134 11.9217 56.8783 11.7267L56.8606 11.6282H53.1573V12.733H55.8875V12.613L55.7683 12.6027C55.7154 13.2065 55.5235 13.6612 55.2001 13.9866C54.6853 14.5003 54.0535 14.7538 53.2771 14.7553C52.5485 14.7543 51.9303 14.503 51.3972 13.9898C50.8693 13.4784 50.6067 12.8254 50.6054 11.9995C50.6067 11.1735 50.8693 10.5206 51.3972 10.0091C51.9303 9.49588 52.5484 9.24462 53.2771 9.24365C54.0872 9.24559 54.699 9.51368 55.1534 10.0551L55.2376 10.1554L55.9616 9.42933L56.0393 9.35156L55.9686 9.26754C55.6742 8.91607 55.282 8.63709 54.8 8.42999C54.317 8.22225 53.8074 8.11817 53.2771 8.11817C52.212 8.11725 51.2929 8.49223 50.5473 9.23432C49.799 9.97495 49.4218 10.9059 49.4229 11.9995C49.4218 13.0925 49.799 14.024 50.5478 14.7651C51.2929 15.5067 52.212 15.8812 53.2771 15.8803C54.3863 15.8812 55.3064 15.5123 56.0046 14.7777L55.918 14.6948L56.0027 14.7797C56.6233 14.1585 56.9311 13.3195 56.9303 12.2916H56.8106ZM62.3328 9.28399H59.0592V11.5669H62.0113V12.432H59.0592V14.7149H62.3328V15.5995H58.1363V8.39947H62.3328V9.28399Z" fill="white"/>
<path d="M62.3324 9.28479V9.16479H58.939V11.6877H61.8911V12.3125L58.9389 12.3128V14.8357H62.2125V15.4803H58.2557V8.52027H62.2125V9.28479H62.3324H62.4521V8.28027H58.0161V15.7203H62.4521V14.5957H59.1785V12.5528H62.1307V11.4477H59.1785V9.40479H62.4521V9.28479H62.3324ZM66.2275 15.6003H65.3032V9.28474H63.2955V8.40022H68.2352V9.28474H66.2275V15.6003Z" fill="white"/>
<path d="M66.2276 15.6003V15.4803H65.4231V9.16479H63.4154V8.52032H68.1155V9.16479H66.1078V15.6003H66.2276H66.3474V9.40479H68.3551V8.28027H63.1758V9.40473H65.1835V15.7202H66.3474V15.6003H66.2276ZM71.8094 15.6003V8.40022H72.7327V15.6002L71.8094 15.6003Z" fill="white"/>
<path d="M71.8092 15.6003H71.9291V8.52027H72.6127V15.4803H71.8092V15.6003V15.7203H72.8524V8.28027H71.6895V15.7203H71.8092V15.6003ZM76.8298 15.6003H75.9056V9.28474H73.8979V8.40022H78.8376V9.28474H76.8298V15.6003Z" fill="white"/>
<path d="M76.83 15.6006V15.4806H76.0255V9.16509H74.0179V8.52061H78.7179V9.16509H76.7102V15.6006H76.83H76.9498V9.40508H78.9575V8.28057H73.7783V9.40503H75.7859V15.7205H76.9498V15.6006H76.83ZM83.6 14.0674C84.1321 14.6068 84.7831 14.8763 85.553 14.8763C86.3229 14.8763 86.9742 14.6068 87.5055 14.0674C88.038 13.5278 88.3048 12.8382 88.3048 12.0006C88.3048 11.163 88.038 10.4733 87.5055 9.93382C86.9742 9.3943 86.3229 9.12475 85.553 9.12475C84.7831 9.12475 84.1321 9.3943 83.6 9.93382C83.0688 10.4733 82.8021 11.163 82.8021 12.0006C82.8021 12.8382 83.0688 13.5278 83.6 14.0674ZM88.1887 14.6701C87.482 15.398 86.6031 15.7614 85.553 15.7614C84.5018 15.7614 83.6234 15.398 82.9182 14.6701C82.211 13.943 81.8591 13.053 81.8591 12.0006C81.8591 10.9482 82.211 10.058 82.9182 9.33103C83.6234 8.60297 84.5018 8.23926 85.553 8.23926C86.5976 8.23926 87.4741 8.60491 88.1841 9.33573C88.893 10.0665 89.2478 10.9547 89.2478 12.0006C89.2478 13.053 88.8939 13.943 88.1887 14.6701Z" fill="white"/>
<path d="M83.6 14.0663L83.5148 14.1506C84.0666 14.7117 84.755 14.9967 85.5529 14.9953C86.3504 14.9967 87.0397 14.7117 87.5906 14.1506C88.146 13.589 88.4254 12.8624 88.4245 11.9995C88.4253 11.1366 88.146 10.41 87.5906 9.84832C87.0397 9.28723 86.3504 9.00226 85.5529 9.00366C84.755 9.00226 84.0666 9.28723 83.5148 9.84832C82.9607 10.41 82.6808 11.1366 82.6822 11.9995C82.6808 12.8624 82.9607 13.589 83.5148 14.1506L83.6 14.0663L83.6852 13.9819C83.177 13.4639 82.9228 12.8123 82.9219 11.9995C82.9228 11.1867 83.177 10.5351 83.6851 10.0171C84.198 9.49918 84.8106 9.24511 85.5529 9.2437C86.2946 9.24511 86.9086 9.49918 87.4202 10.0171C87.9294 10.5351 88.1835 11.1867 88.1844 11.9995C88.1835 12.8122 87.9294 13.4639 87.4202 13.9819C86.9086 14.4998 86.2947 14.7538 85.5529 14.7552C84.8106 14.7538 84.1981 14.4998 83.6852 13.9819L83.6 14.0663ZM88.1886 14.669L88.103 14.5856C87.416 15.2906 86.5759 15.6389 85.5529 15.6403C84.5294 15.6388 83.6893 15.2906 83.0037 14.5856C82.3182 13.8782 81.9798 13.0251 81.9789 11.9995C81.9798 10.9738 82.3182 10.1207 83.0037 9.41337C83.6893 8.70833 84.5294 8.35962 85.5529 8.35821C86.5694 8.35962 87.4075 8.70979 88.0983 9.41849C88.7862 10.1291 89.1265 10.9809 89.128 11.9995C89.1265 13.0251 88.7872 13.8782 88.103 14.5856L88.1886 14.669L88.2748 14.7524C89.0011 14.0053 89.3684 13.0785 89.3676 11.9995C89.3684 10.9266 88.9996 10.0017 88.27 9.25126C87.54 8.49784 86.6256 8.11687 85.5529 8.11817C84.4747 8.11687 83.5574 8.49606 82.832 9.24656C82.1043 9.99421 81.7383 10.9204 81.7393 11.9995C81.7383 13.0785 82.1043 14.0053 82.832 14.7529C83.5574 15.5034 84.4747 15.8812 85.5529 15.8803C86.6307 15.8812 87.5479 15.5029 88.2748 14.7524L88.1886 14.669ZM90.544 15.5995V8.39942H91.6682L95.1617 14.0005H95.2015L95.1617 12.613V8.39942H96.0861V15.5994H95.1219L91.4669 9.72687H91.4271L91.4669 11.1149V15.5994L90.544 15.5995Z" fill="white"/>
<path d="M90.5443 15.6003H90.6641V8.52027H91.602L95.0955 14.1214H95.3248L95.2818 12.6121V8.52032H95.9665V15.4803H95.1887L91.5337 9.60773H91.3044L91.3474 11.1177V15.4803H90.5444L90.5443 15.6003L90.5444 15.7203H91.587V11.1139L91.5473 9.72449L91.4274 9.72772V9.84772H91.4672V9.72772L91.3656 9.79152L95.0558 15.7203H96.2061V8.28027H95.0422V12.6152L95.082 14.0046L95.2018 14.0014V13.8814H95.162V14.0014L95.2636 13.9377L91.7348 8.28027H90.4246V15.7203H90.5444L90.5443 15.6003ZM128.116 36.0003H130.352V20.9988H128.116V36.0003ZM148.252 26.4027L145.69 32.9066H145.613L142.953 26.4027H140.545L144.533 35.493L142.259 40.5495H144.592L150.738 26.4027H148.252ZM135.574 34.2964C134.841 34.2964 133.82 33.9298 133.82 33.0224C133.82 31.8645 135.093 31.4206 136.19 31.4206C137.174 31.4206 137.635 31.6329 138.233 31.9227C138.059 33.312 136.865 34.2964 135.574 34.2964ZM135.844 26.0745C134.225 26.0745 132.549 26.7888 131.855 28.3714L133.839 29.2011C134.264 28.3714 135.053 28.1009 135.882 28.1009C137.038 28.1009 138.214 28.7961 138.233 30.0312V30.1855C137.828 29.9539 136.962 29.6065 135.901 29.6065C133.763 29.6065 131.585 30.7835 131.585 32.9839C131.585 34.9911 133.339 36.2843 135.303 36.2843C136.807 36.2843 137.635 35.6088 138.156 34.8177H138.233V35.9755H140.39V30.2238C140.39 27.5609 138.406 26.0745 135.844 26.0745ZM122.028 28.2288H118.848V23.0867H122.028C123.699 23.0867 124.648 24.4728 124.648 25.6577C124.648 26.8203 123.699 28.2288 122.028 28.2288ZM121.97 20.9988H116.614V36.0003H118.848V30.3167H121.97C124.448 30.3167 126.883 28.5199 126.883 25.6577C126.883 22.7956 124.448 20.9988 121.97 20.9988ZM92.7603 34.2992C91.2159 34.2992 89.9228 33.004 89.9228 31.2251C89.9228 29.4275 91.2159 28.1127 92.7603 28.1127C94.2851 28.1127 95.4817 29.4275 95.4817 31.2251C95.4817 33.004 94.285 34.2992 92.7603 34.2992ZM95.3272 27.2427H95.25C94.7483 26.6435 93.7828 26.1022 92.567 26.1022C90.0192 26.1022 87.684 28.3447 87.684 31.2251C87.684 34.0864 90.0192 36.3097 92.567 36.3097C93.7828 36.3097 94.7483 35.7682 95.25 35.1499H95.3272V35.8845C95.3272 37.8374 94.2851 38.8813 92.6059 38.8813C91.2355 38.8813 90.3862 37.895 90.0384 37.0638L88.0893 37.8758C88.649 39.229 90.1353 40.8917 92.6059 40.8917C95.2308 40.8917 97.4505 39.3448 97.4505 35.5751V26.4116H95.3272V27.2427ZM98.9944 36.0003H101.233V20.9983H98.9944V36.0003ZM104.534 31.0512C104.476 29.0792 106.059 28.0741 107.197 28.0741C108.086 28.0741 108.838 28.5185 109.089 29.1571L104.534 31.0512ZM111.482 29.3501C111.058 28.2091 109.764 26.1022 107.12 26.1022C104.495 26.1022 102.314 28.1707 102.314 31.2059C102.314 34.0672 104.476 36.3097 107.371 36.3097C109.707 36.3097 111.058 34.879 111.618 34.0479L109.881 32.8877C109.302 33.7385 108.51 34.2992 107.371 34.2992C106.232 34.2992 105.422 33.777 104.9 32.7527L111.714 29.93L111.482 29.3501ZM57.2003 27.6682V29.8334H62.373C62.2186 31.0512 61.8132 31.9405 61.1955 32.5592C60.443 33.3134 59.2656 34.1445 57.2003 34.1445C54.0155 34.1445 51.5258 31.5733 51.5258 28.3835C51.5258 25.1937 54.0155 22.6222 57.2003 22.6222C58.9183 22.6222 60.1725 23.299 61.0991 24.169L62.6239 22.6419C61.3308 21.4043 59.6128 20.4571 57.2003 20.4571C52.8381 20.4571 49.1709 24.0143 49.1709 28.3835C49.1709 32.7527 52.8381 36.3097 57.2003 36.3097C59.5552 36.3097 61.3308 35.5367 62.7203 34.0864C64.1486 32.6557 64.5928 30.6453 64.5928 29.0216C64.5928 28.5185 64.5543 28.0549 64.4766 27.6682H57.2003ZM70.4735 34.2992C68.9291 34.2992 67.5973 33.0232 67.5973 31.2059C67.5973 29.3693 68.9291 28.1127 70.4735 28.1127C72.0174 28.1127 73.3493 29.3693 73.3493 31.2059C73.3493 33.0232 72.0174 34.2992 70.4735 34.2992ZM70.4735 26.1022C67.6552 26.1022 65.3583 28.248 65.3583 31.2059C65.3583 34.1445 67.6552 36.3097 70.4735 36.3097C73.2913 36.3097 75.5882 34.1445 75.5882 31.2059C75.5882 28.248 73.2913 26.1022 70.4735 26.1022ZM81.6313 34.2992C80.0875 34.2992 78.7555 33.0232 78.7555 31.2059C78.7555 29.3693 80.0875 28.1127 81.6314 28.1127C83.1753 28.1127 84.5072 29.3693 84.5072 31.2059C84.5072 33.0232 83.1752 34.2992 81.6313 34.2992ZM81.6313 26.1022C78.8132 26.1022 76.5167 28.248 76.5167 31.2059C76.5167 34.1445 78.8131 36.3097 81.6314 36.3097C84.4492 36.3097 86.7462 34.1445 86.7462 31.2059C86.7462 28.248 84.4491 26.1022 81.6313 26.1022Z" fill="white"/>
<path d="M12.5898 9.13368C12.1877 9.49702 11.9478 10.103 11.9478 10.9075V10.7256V37.2709V37.0961C11.9478 37.839 12.1536 38.4127 12.5022 38.7822L12.5912 38.8675C12.8734 39.1225 13.2352 39.2583 13.6499 39.2579C14.055 39.2579 14.5109 39.1285 14.992 38.8553L32.3822 28.9586L38.3556 25.5587C39.1142 25.127 39.5401 24.5702 39.6113 24.0029V24.0006C39.5401 23.4321 39.1142 22.8756 38.3556 22.4439L32.3817 19.0445L14.9921 9.14771C14.51 8.87401 14.0538 8.74414 13.6475 8.74414C13.2333 8.74414 12.8719 8.87913 12.5898 9.13368Z" fill="#00C1FF"/>
<path d="M12.5917 38.8676L12.5027 38.7823C12.1541 38.4128 11.9482 37.8391 11.9482 37.0962V37.271V10.7323V10.9076C11.9482 10.1031 12.1882 9.49712 12.5903 9.13379L27.4341 24.0012L12.5917 38.8676Z" fill="url(#paint0_linear_1996_395)"/>
<path d="M32.3822 28.958L27.4336 24.0006L32.3818 19.0439L38.3556 22.4433C39.1142 22.8751 39.5401 23.4315 39.6113 24.0001V24.0024C39.5401 24.5696 39.1142 25.1265 38.3556 25.5582L32.3822 28.958Z" fill="url(#paint1_linear_1996_395)"/>
<path d="M13.6499 39.2579C13.2352 39.2583 12.8734 39.1228 12.5913 38.8678L27.4336 24.001L32.3822 28.9585L14.992 38.8553C14.5109 39.1285 14.055 39.2579 13.6499 39.2579Z" fill="url(#paint2_linear_1996_395)"/>
<path d="M27.4337 24.0011L12.5898 9.13368C12.872 8.87913 13.2333 8.74414 13.6475 8.74414C14.0537 8.74414 14.51 8.87395 14.9921 9.1477L32.3818 19.0445L27.4337 24.0011Z" fill="url(#paint3_linear_1996_395)"/>
<path d="M13.6505 39.4332C13.2358 39.4332 12.8735 39.2977 12.5914 39.0427C12.5902 39.0415 12.5885 39.0409 12.5872 39.0399L12.51 38.9644C12.5076 38.9621 12.5053 38.9593 12.5024 38.9566L12.5914 38.8674C12.8736 39.1224 13.2354 39.2579 13.6501 39.2574C14.0552 39.2574 14.5111 39.1281 14.9922 38.8548L32.3823 28.958L32.4938 29.0697L32.3809 29.1338L14.9922 39.0301C14.5537 39.279 14.1367 39.4088 13.7599 39.4304C13.7235 39.4322 13.687 39.4332 13.6505 39.4332Z" fill="url(#paint4_linear_1996_395)"/>
<path d="M12.5022 38.9566C12.1536 38.5872 11.9478 38.0139 11.9478 37.2705V37.0957C11.9478 37.8386 12.1536 38.4123 12.5022 38.7818L12.5912 38.8671L12.5022 38.9566Z" fill="url(#paint5_linear_1996_395)"/>
<path d="M32.4937 29.0702L32.3823 28.9585L38.3557 25.5587C39.1144 25.1271 39.5402 24.5702 39.6114 24.0029C39.6114 24.2111 39.5651 24.4192 39.4729 24.6218C39.2871 25.03 38.9146 25.4158 38.3558 25.734L32.4937 29.0702Z" fill="url(#paint6_linear_1996_395)"/>
<path d="M39.6114 24.0014C39.5402 23.4328 39.1144 22.8764 38.3558 22.4446L32.3818 19.0452L32.4933 18.9336L38.3558 22.2698C39.1921 22.746 39.6109 23.3736 39.6114 24.0014Z" fill="url(#paint7_linear_1996_395)"/>
<path d="M11.9478 10.9068V10.7235C11.9478 10.6573 11.9495 10.5927 11.9529 10.5299V10.527L11.9533 10.5243V10.5172C11.9893 9.87734 12.1877 9.37821 12.5022 9.04492L12.5898 9.13299C12.1877 9.49637 11.9478 10.1024 11.9478 10.9068Z" fill="url(#paint8_linear_1996_395)"/>
<path d="M32.3819 19.044L14.9922 9.1472C14.5101 8.8735 14.0539 8.74369 13.6477 8.74369C13.2335 8.74369 12.8721 8.87868 12.59 9.13323L12.5024 9.04511C12.5298 9.0161 12.5582 8.98813 12.5877 8.96125C12.5886 8.96027 12.59 8.9593 12.5909 8.95839C12.8708 8.70577 13.2284 8.57079 13.6388 8.56836H13.6477C14.0539 8.56836 14.5101 8.69822 14.9922 8.97203L32.4938 18.932L32.3819 19.044Z" fill="url(#paint9_linear_1996_395)"/>
</g>
<defs>
<linearGradient id="paint0_linear_1996_395" x1="21.4343" y1="10.4518" x2="8.64231" y2="23.2644" gradientUnits="userSpaceOnUse">
<stop stop-color="#00A0FF"/>
<stop offset="0.00657" stop-color="#00A1FF"/>
<stop offset="0.2601" stop-color="#00BEFF"/>
<stop offset="0.5122" stop-color="#00D2FF"/>
<stop offset="0.7604" stop-color="#00DFFF"/>
<stop offset="1" stop-color="#00E3FF"/>
</linearGradient>
<linearGradient id="paint1_linear_1996_395" x1="40.5356" y1="23.9149" x2="11.5461" y2="23.9149" gradientUnits="userSpaceOnUse">
<stop stop-color="#FFE000"/>
<stop offset="0.4087" stop-color="#FFBD00"/>
<stop offset="0.7754" stop-color="#FFA500"/>
<stop offset="1" stop-color="#FF9C00"/>
</linearGradient>
<linearGradient id="paint2_linear_1996_395" x1="29.7549" y1="28.7144" x2="8.07794" y2="50.2677" gradientUnits="userSpaceOnUse">
<stop stop-color="#FF3A44"/>
<stop offset="1" stop-color="#C31162"/>
</linearGradient>
<linearGradient id="paint3_linear_1996_395" x1="8.76419" y1="6.92952" x2="18.4251" y2="16.5501" gradientUnits="userSpaceOnUse">
<stop stop-color="#32A071"/>
<stop offset="0.0685" stop-color="#2DA771"/>
<stop offset="0.4762" stop-color="#15CF74"/>
<stop offset="0.8009" stop-color="#06E775"/>
<stop offset="1" stop-color="#00F076"/>
</linearGradient>
<linearGradient id="paint4_linear_1996_395" x1="29.7443" y1="32.1527" x2="12.3843" y2="49.5408" gradientUnits="userSpaceOnUse">
<stop stop-color="#CC2E36"/>
<stop offset="1" stop-color="#9C0E4E"/>
</linearGradient>
<linearGradient id="paint5_linear_1996_395" x1="13.9252" y1="10.4513" x2="2.6556" y2="21.7392" gradientUnits="userSpaceOnUse">
<stop stop-color="#008DE0"/>
<stop offset="0.00657" stop-color="#008DE0"/>
<stop offset="0.2601" stop-color="#00A7E0"/>
<stop offset="0.5122" stop-color="#00B8E0"/>
<stop offset="0.7604" stop-color="#00C4E0"/>
<stop offset="1" stop-color="#00C7E0"/>
</linearGradient>
<linearGradient id="paint6_linear_1996_395" x1="40.5358" y1="24.0018" x2="11.5462" y2="24.0018" gradientUnits="userSpaceOnUse">
<stop stop-color="#E0C500"/>
<stop offset="0.4087" stop-color="#E0A600"/>
<stop offset="0.7754" stop-color="#E09100"/>
<stop offset="1" stop-color="#E08900"/>
</linearGradient>
<linearGradient id="paint7_linear_1996_395" x1="40.5358" y1="24.0026" x2="11.5463" y2="24.0026" gradientUnits="userSpaceOnUse">
<stop stop-color="#FFE840"/>
<stop offset="0.4087" stop-color="#FFCE40"/>
<stop offset="0.7754" stop-color="#FFBC40"/>
<stop offset="1" stop-color="#FFB540"/>
</linearGradient>
<linearGradient id="paint8_linear_1996_395" x1="13.9129" y1="10.4714" x2="3.05835" y2="20.8726" gradientUnits="userSpaceOnUse">
<stop stop-color="#40B8FF"/>
<stop offset="0.00657" stop-color="#40B9FF"/>
<stop offset="0.2601" stop-color="#40CEFF"/>
<stop offset="0.5122" stop-color="#40DDFF"/>
<stop offset="0.7604" stop-color="#40E7FF"/>
<stop offset="1" stop-color="#40EAFF"/>
</linearGradient>
<linearGradient id="paint9_linear_1996_395" x1="8.74268" y1="10.0732" x2="16.4947" y2="17.8379" gradientUnits="userSpaceOnUse">
<stop stop-color="#65B895"/>
<stop offset="0.0685" stop-color="#62BD95"/>
<stop offset="0.4762" stop-color="#50DB97"/>
<stop offset="0.8009" stop-color="#44ED98"/>
<stop offset="1" stop-color="#40F498"/>
</linearGradient>
<clipPath id="clip0_1996_395">
<rect width="162" height="48" fill="white"/>
</clipPath>
</defs>
</svg>
