<svg width="25" height="24" viewBox="0 0 25 24" fill="none" xmlns="http://www.w3.org/2000/svg">
<path d="M21.4791 12C21.4791 12.1492 21.4199 12.2923 21.3144 12.3977C21.2089 12.5032 21.0658 12.5625 20.9166 12.5625H13.2291V20.25C13.2291 20.3992 13.1699 20.5423 13.0644 20.6477C12.9589 20.7532 12.8158 20.8125 12.6666 20.8125C12.5174 20.8125 12.3744 20.7532 12.2689 20.6477C12.1634 20.5423 12.1041 20.3992 12.1041 20.25V12.5625H4.41663C4.26744 12.5625 4.12437 12.5032 4.01888 12.3977C3.91339 12.2923 3.85413 12.1492 3.85413 12C3.85413 11.8508 3.91339 11.7077 4.01888 11.6023C4.12437 11.4968 4.26744 11.4375 4.41663 11.4375H12.1041V3.75C12.1041 3.60082 12.1634 3.45774 12.2689 3.35225C12.3744 3.24676 12.5174 3.1875 12.6666 3.1875C12.8158 3.1875 12.9589 3.24676 13.0644 3.35225C13.1699 3.45774 13.2291 3.60082 13.2291 3.75V11.4375H20.9166C21.0658 11.4375 21.2089 11.4968 21.3144 11.6023C21.4199 11.7077 21.4791 11.8508 21.4791 12Z" fill="#933944"/>
</svg>
