<svg width="100" height="100" viewBox="0 0 100 100" fill="none" xmlns="http://www.w3.org/2000/svg">
<path d="M15.5091 7.23714C15.1854 7.56086 15.1494 7.83062 15.1494 9.75499C15.1494 12.2728 15.3293 12.6325 16.5882 12.6325C17.8471 12.6325 18.027 12.2728 18.027 9.75499C18.027 7.23714 17.8471 6.87744 16.5882 6.87744C16.1026 6.87744 15.7429 7.00332 15.5091 7.23714Z" fill="#933944"/>
<path d="M59.8595 7.16537C56.982 7.68692 53.7267 9.01779 51.0291 10.7983C49.4103 11.8594 46.0473 15.2225 44.9501 16.8951C42.2706 20.9596 41.0476 25.0062 41.0476 29.898C41.0476 34.7899 42.2706 38.8365 44.9682 42.937C46.0473 44.5555 49.4103 47.9186 51.0291 48.9977C53.7808 50.8142 57 52.1091 60.0034 52.6487C62.0716 53.0084 66.0643 53.0084 68.1325 52.6487C75.1825 51.4077 81.4592 46.7137 84.7323 40.2211C86.369 36.9661 87.0884 33.8186 87.0884 29.898C87.0884 25.0062 85.8655 20.9596 83.1677 16.8591C82.0886 15.2225 78.7255 11.8774 77.0709 10.7803C74.3372 8.96384 71.1539 7.68692 68.1325 7.14738C66.1362 6.80568 61.8199 6.80568 59.8595 7.16537ZM66.2262 10.007C66.9634 10.0609 68.3302 10.3127 69.2654 10.5645C76.0818 12.3989 81.5131 17.8483 83.4554 24.8084C83.9051 26.4269 83.941 26.8227 83.941 29.898C83.941 32.9734 83.9051 33.3691 83.4554 34.9876C83.1857 35.9589 82.6641 37.3616 82.3224 38.1171C81.7289 39.3939 80.1823 41.8579 79.3549 42.829L78.9772 43.2606L78.2219 42.5412C77.1609 41.516 76.0996 40.9227 72.7546 39.5018L69.8231 38.261V36.6242C69.8231 35.0957 69.859 34.9696 70.2906 34.556C71.028 33.8905 71.9272 32.3979 72.3229 31.1929C72.6646 30.2217 72.7007 29.6461 72.7007 26.337C72.7007 22.2725 72.5568 21.3733 71.6575 19.8266C70.0568 17.057 67.3231 15.5103 64.068 15.5103C59.9675 15.5103 56.6042 18.1001 55.6151 22.0027C55.4893 22.5243 55.4354 24.2149 55.4712 26.7686L55.5251 30.7074L56.1726 32.0562C56.5323 32.7936 57.1619 33.7827 57.5755 34.2502L58.3129 35.0776V36.6783V38.261L56.0109 39.232C52.252 40.8508 51.101 41.4621 50.0939 42.3793L49.1406 43.2426L48.7809 42.829C47.9537 41.8579 46.407 39.3939 45.8134 38.1171C45.4717 37.3616 44.9501 35.9589 44.6804 34.9876C44.2308 33.3691 44.1949 32.9734 44.1949 29.898C44.1949 26.8227 44.2308 26.4269 44.6804 24.8084C46.6408 17.8123 52.0721 12.3809 58.9782 10.5465C60.615 10.0969 63.4025 9.75517 64.4277 9.86308C64.6794 9.89905 65.4888 9.95299 66.2262 10.007ZM66.5498 19.0892C67.5211 19.5748 68.618 20.6719 69.0857 21.5891C70.0568 23.5135 70.0748 29.0706 69.1037 30.9591C68.4383 32.29 66.8017 33.6028 65.4168 33.9266C64.5716 34.1424 64.068 34.7179 64.068 35.4912C64.068 36.7502 64.9852 37.2717 66.4598 36.8581L66.9456 36.7322V38.4227C66.9456 39.9514 66.9814 40.1672 67.3411 40.5089C67.557 40.7069 67.8088 40.8686 67.8986 40.8686C68.3124 40.8686 74.535 43.6564 75.3624 44.2319C76.909 45.2749 76.891 45.3649 75.1466 46.5159C73.2042 47.8108 71.3338 48.674 69.2296 49.2315C64.8772 50.4006 59.8236 49.987 55.849 48.1524C54.0325 47.3072 51.4607 45.5987 51.5865 45.2929C51.8024 44.7174 53.6369 43.6564 56.7122 42.3254C58.5646 41.516 60.1473 40.8686 60.2372 40.8686C60.3272 40.8686 60.5789 40.7069 60.7947 40.5089C61.1724 40.1492 61.1905 40.0053 61.1905 36.8042V33.4769L60.2731 32.5417C59.1042 31.3548 58.7265 30.5994 58.4746 28.9628C58.241 27.488 58.3668 23.5314 58.6726 22.4883C59.1221 20.9776 60.8486 19.2151 62.3415 18.7475C63.3126 18.4418 65.6865 18.6396 66.5498 19.0892Z" fill="#933944"/>
<path d="M9.75398 12.9923C9.52019 13.2261 9.39429 13.5857 9.39429 14.0713C9.39429 15.3303 9.75398 15.5101 12.2718 15.5101C14.7897 15.5101 15.1494 15.3303 15.1494 14.0713C15.1494 12.8124 14.7897 12.6326 12.2718 12.6326C10.3475 12.6326 10.0777 12.6685 9.75398 12.9923Z" fill="#933944"/>
<path d="M18.3868 12.9923C18.153 13.2261 18.0271 13.5857 18.0271 14.0713C18.0271 15.3303 18.3868 15.5101 20.9047 15.5101C23.4226 15.5101 23.7823 15.3303 23.7823 14.0713C23.7823 12.8124 23.4226 12.6326 20.9047 12.6326C18.9803 12.6326 18.7105 12.6685 18.3868 12.9923Z" fill="#933944"/>
<path d="M15.5091 15.8699C15.1854 16.1937 15.1494 16.4634 15.1494 18.3878C15.1494 20.9057 15.3293 21.2654 16.5882 21.2654C17.8471 21.2654 18.027 20.9057 18.027 18.3878C18.027 15.8699 17.8471 15.5103 16.5882 15.5103C16.1026 15.5103 15.7429 15.6361 15.5091 15.8699Z" fill="#933944"/>
<path d="M27.0196 25.9412C26.7138 26.247 26.6599 26.5348 26.6599 27.7397C26.6599 29.4662 26.9477 29.8979 28.0987 29.8979C29.2497 29.8979 29.5375 29.4662 29.5375 27.7397C29.5375 26.0132 29.2497 25.5815 28.0987 25.5815C27.613 25.5815 27.2533 25.7074 27.0196 25.9412Z" fill="#933944"/>
<path d="M22.7032 30.2576C22.4694 30.4915 22.3435 30.8512 22.3435 31.3367C22.3435 32.4877 22.7751 32.7755 24.5017 32.7755C26.2282 32.7755 26.6598 32.4877 26.6598 31.3367C26.6598 30.1857 26.2282 29.8979 24.5017 29.8979C23.2966 29.8979 23.0088 29.9519 22.7032 30.2576Z" fill="#933944"/>
<path d="M29.897 30.2576C29.6632 30.4915 29.5374 30.8512 29.5374 31.3367C29.5374 32.4877 29.969 32.7755 31.6955 32.7755C33.422 32.7755 33.8537 32.4877 33.8537 31.3367C33.8537 30.1857 33.422 29.8979 31.6955 29.8979C30.4904 29.8979 30.2026 29.9519 29.897 30.2576Z" fill="#933944"/>
<path d="M27.0196 33.1351C26.7138 33.4409 26.6599 33.7286 26.6599 34.9336C26.6599 36.6601 26.9477 37.0917 28.0987 37.0917C29.2497 37.0917 29.5375 36.6601 29.5375 34.9336C29.5375 33.207 29.2497 32.7754 28.0987 32.7754C27.613 32.7754 27.2533 32.9012 27.0196 33.1351Z" fill="#933944"/>
<path d="M33.5827 53.4581C31.4425 53.7458 29.5182 54.3214 27.4679 55.3285C25.2919 56.4076 22.8459 58.2239 21.9826 59.411C21.0474 60.7239 21.3891 62.0008 22.7379 62.2166C23.3854 62.3066 23.4754 62.2525 24.8061 60.9576C28.0255 57.8464 31.4425 56.4615 35.8308 56.4615C38.4745 56.4795 40.1471 56.8392 42.3953 57.9361L43.834 58.6377L50.5782 58.7275C54.8226 58.7994 57.6643 58.9074 58.2218 59.0333C60.8116 59.6448 62.7 61.2094 63.3294 63.2418L63.6711 64.3387L53.4378 64.3928L43.2225 64.4287L42.8628 64.8964C42.3772 65.5077 42.3772 66.2271 42.8628 66.8387L43.2225 67.3062H54.6068H65.9912L66.3689 66.8926C66.6567 66.5868 66.7645 66.2452 66.7645 65.6516V64.8244L67.8436 64.6445C68.6349 64.5006 70.1276 63.8173 73.6347 62.0188C79.2459 59.1591 80.7026 58.6196 83.1306 58.6016C84.6953 58.5836 84.9111 58.6197 85.7743 59.1052C86.7095 59.6268 87.4289 60.454 87.8067 61.4433C87.9145 61.7311 87.9684 61.9827 87.9505 62.0008C87.9145 62.0366 84.5873 64.0151 80.5228 66.4071L73.149 70.7593L65.8653 72.8275C54.2832 76.1008 56.3873 75.777 45.4526 75.9208C36.4424 76.0288 36.0646 76.0469 35.0575 76.4244C34.482 76.6402 33.7446 76.9821 33.4388 77.1799L32.8633 77.5396L25.3997 70.0938C18.4576 63.1518 17.8821 62.6302 17.3066 62.6302C16.7311 62.6302 16.2815 63.0259 11.5695 67.7378C6.69563 72.5938 6.44385 72.8994 6.44385 73.529C6.44385 74.3562 7.14524 75.0397 8.00851 75.0397C8.4941 75.0397 9.08759 74.5362 12.9003 70.7234L17.2167 66.4071L25.2738 74.4642L33.3129 82.5033L29.2485 86.5499C25.2378 90.5605 24.6803 91.2079 24.6803 91.9453C24.6803 92.5567 25.6335 93.3841 26.3349 93.3841C26.8745 93.3841 27.3959 92.9164 32 88.2943C36.874 83.4205 37.0898 83.1688 37.0898 82.5214C37.0898 81.9459 36.9459 81.694 36.1005 80.7948L35.0934 79.7516L35.8669 79.428C36.5682 79.1222 37.4135 79.0861 45.8123 78.9783C53.4019 78.8884 55.2362 78.8164 56.4592 78.5647C57.2686 78.4028 61.6388 77.2338 66.1709 75.9569L74.408 73.6368L82.5551 68.8169C87.177 66.0832 90.8459 63.8173 90.9898 63.5834C91.2417 63.2057 91.2417 62.9899 91.0617 61.9108C90.0007 55.9579 84.2817 53.8717 77.1056 56.8392C76.4043 57.127 74.0483 58.2958 71.8363 59.4468C69.0306 60.9037 67.5738 61.5691 66.9803 61.6411L66.1351 61.7669L65.5954 60.7239C64.876 59.339 63.5272 58.0081 61.9985 57.1989C59.6245 55.9579 59.3548 55.9218 51.7653 55.8499L44.9311 55.7601L43.8521 55.2205C40.8665 53.7098 36.9099 53.0443 33.5827 53.4581Z" fill="#933944"/>
</svg>
