<svg width="100" height="100" viewBox="0 0 100 100" fill="none" xmlns="http://www.w3.org/2000/svg">
<g clip-path="url(#clip0_2004_567)">
<mask id="mask0_2004_567" style="mask-type:luminance" maskUnits="userSpaceOnUse" x="3" y="3" width="94" height="94">
<path d="M97 3H3V97H97V3Z" fill="white"/>
</mask>
<g mask="url(#mask0_2004_567)">
<path d="M48.8984 3.36719C48.5497 3.71602 48.5312 3.97305 48.5312 7.1125C48.5312 10.1418 48.5681 10.5273 48.88 10.9129C49.1372 11.2433 49.4125 11.3535 50 11.3535C50.5875 11.3535 50.8628 11.2433 51.12 10.9129C51.4321 10.5273 51.4688 10.1418 51.4688 7.1125C51.4688 3.97305 51.4503 3.71602 51.1016 3.36719C50.8628 3.12852 50.4957 3 50 3C49.5043 3 49.1372 3.12852 48.8984 3.36719Z" fill="#933944"/>
<path d="M26.169 9.48085C25.4714 10.2152 25.6367 10.8945 27.1421 13.5383C28.6843 16.2004 29.1799 16.7695 30.0061 16.7695C30.7221 16.7695 31.4565 16.0535 31.4565 15.3559C31.4565 14.8418 28.9414 10.1969 28.2436 9.42579C27.7664 8.89335 26.683 8.93007 26.169 9.48085Z" fill="#933944"/>
<path d="M71.7558 9.42533C71.0581 10.1964 68.543 14.8414 68.543 15.3554C68.543 16.457 69.9383 17.1363 70.8746 16.4937C71.5355 16.0347 74.2343 11.2062 74.2343 10.4718C74.2343 9.24174 72.5636 8.54408 71.7558 9.42533Z" fill="#933944"/>
<path d="M9.46262 26.1879C8.91184 26.7754 8.93019 27.7853 9.48097 28.281C10.3255 29.0337 14.7685 31.457 15.3193 31.457C16.4575 31.457 17.1552 30.0619 16.4943 29.1254C16.3474 28.9051 15.0439 28.0606 13.6302 27.2528C10.7845 25.6188 10.1419 25.4535 9.46262 26.1879Z" fill="#933944"/>
<path d="M86.4433 27.161C83.7996 28.6848 83.2305 29.1988 83.2305 30.0066C83.2305 30.7044 83.9648 31.457 84.644 31.457C85.1949 31.457 89.8581 28.8869 90.519 28.2075C91.0883 27.6566 91.0883 26.7019 90.519 26.1697C89.7664 25.4719 89.0687 25.6372 86.4433 27.161Z" fill="#933944"/>
<path d="M30.8153 27.4552C30.3196 27.7123 19.3224 39.9764 18.992 40.6374C18.8451 40.9311 18.79 41.3533 18.8634 41.6104C19.0287 42.2896 48.5322 75.153 49.34 75.5752C49.8724 75.8505 50.0377 75.8689 50.515 75.667C51.1575 75.3917 80.7712 42.4917 81.065 41.7389C81.1568 41.4818 81.1752 41.078 81.0834 40.8026C80.9181 40.2702 69.829 27.8408 69.2049 27.4736C68.6908 27.1799 31.3846 27.1615 30.8153 27.4552ZM40.4174 33.6058C39.6096 35.4049 38.6731 37.4979 38.3427 38.2505L37.7184 39.6276L30.7237 39.6827L23.7287 39.7193L27.9146 35.0561L32.1006 30.3927L37.0025 30.3745L41.8862 30.3561L40.4174 33.6058ZM56.1512 33.5139C56.9408 35.258 57.8955 37.3693 58.2809 38.1955L58.9787 39.7193H49.9825C41.4822 39.7193 41.0049 39.7011 41.17 39.3889C41.3537 39.0583 44.5481 31.9533 44.9705 30.9436L45.2275 30.3561H49.9825H54.7377L56.1512 33.5139ZM72.0872 35.0561L76.2731 39.7193L69.2783 39.6827L62.2834 39.6276L61.6591 38.2505C61.3287 37.4979 60.3924 35.4049 59.5846 33.6058L58.1158 30.3561L62.9993 30.3745L67.9012 30.3927L72.0872 35.0561ZM40.399 51.0104C41.9596 55.5452 43.8872 61.163 44.6768 63.4764C45.4662 65.7896 46.0537 67.6073 45.9802 67.5155C42.7306 63.8802 24.6283 43.6667 24.2243 43.2443L23.6737 42.6568L30.6134 42.6936L37.5716 42.7486L40.399 51.0104ZM59.144 42.8221C59.1256 42.9139 57.0693 48.899 54.5908 56.1327C52.1122 63.3662 50.0559 69.278 50.0009 69.278C49.9459 69.278 47.8896 63.3846 45.4294 56.1877C42.9693 49.0092 40.9131 43.0058 40.858 42.8771C40.8028 42.712 42.694 42.6568 50.0009 42.6568C55.3252 42.6568 59.1806 42.7302 59.144 42.8221ZM75.6856 43.3361C75.2268 43.8318 57.4181 63.6967 54.0033 67.5339C53.9115 67.6255 53.9665 67.3502 54.1318 66.8912C54.2971 66.4323 56.1697 60.9795 58.2993 54.774C60.429 48.5686 62.2283 43.2995 62.32 43.0608L62.4853 42.6568H69.4068H76.3283L75.6856 43.3361Z" fill="#933944"/>
<path d="M3.36787 48.8984C2.87217 49.3941 2.87217 50.6059 3.36787 51.1016C3.7167 51.4503 3.97373 51.4688 7.11318 51.4688C10.1425 51.4688 10.528 51.4319 10.9136 51.12C11.5194 50.6241 11.5194 49.3757 10.9136 48.88C10.528 48.5679 10.1425 48.5312 7.11318 48.5312C3.97373 48.5312 3.7167 48.5497 3.36787 48.8984Z" fill="#933944"/>
<path d="M89.0871 48.88C88.7565 49.1372 88.6465 49.4125 88.6465 50C88.6465 50.5875 88.7565 50.8628 89.0871 51.12C89.4727 51.4319 89.8581 51.4688 92.8875 51.4688C96.0269 51.4688 96.284 51.4503 96.6328 51.1016C96.8715 50.8628 96.9999 50.4957 96.9999 50C96.9999 49.5043 96.8715 49.1372 96.6328 48.8984C96.284 48.5497 96.0269 48.5312 92.8875 48.5312C89.8581 48.5312 89.4727 48.5679 89.0871 48.88Z" fill="#933944"/>
<path d="M12.3266 69.9751C9.24219 71.7376 9.05859 71.8845 9.05859 72.7657C9.05859 73.6102 9.66444 74.2345 10.509 74.2345C11.2066 74.2345 16.0352 71.5173 16.4941 70.8748C17.1367 69.9567 16.4574 68.543 15.3558 68.543C15.0621 68.543 13.7953 69.1489 12.3266 69.9751Z" fill="#933944"/>
<path d="M83.6886 69.002C83.1746 69.5161 83.1011 70.2873 83.5049 70.8748C83.964 71.5173 88.8109 74.2345 89.5268 74.2345C90.7937 74.2345 91.4546 72.5638 90.5365 71.7192C89.7287 71.0032 85.194 68.543 84.6615 68.543C84.3496 68.543 83.9456 68.7267 83.6886 69.002Z" fill="#933944"/>
<path d="M29.1253 83.5065C28.4828 83.9654 25.7656 88.8122 25.7656 89.5284C25.7656 90.7951 27.4363 91.456 28.2809 90.5197C28.9785 89.7487 31.3101 85.526 31.4019 84.8466C31.4753 84.2959 31.4203 84.094 31.0347 83.7084C30.484 83.176 29.7313 83.0841 29.1253 83.5065Z" fill="#933944"/>
<path d="M69.0018 83.6886C68.7265 83.9457 68.543 84.3495 68.543 84.6433C68.543 85.1941 71.1133 89.8573 71.7924 90.5183C72.6921 91.4363 74.2343 90.7754 74.2343 89.4717C74.2343 88.7926 71.9393 84.6066 71.0765 83.7254C70.4523 83.0827 69.6077 83.0645 69.0018 83.6886Z" fill="#933944"/>
<path d="M49.3207 88.7377C48.6231 89.0314 48.5312 89.4903 48.5312 92.9418C48.5312 96.0262 48.5497 96.2834 48.8984 96.6321C49.3941 97.1278 50.6059 97.1278 51.1016 96.6321C51.4503 96.2834 51.4688 96.0262 51.4688 92.8868C51.4688 89.9493 51.4321 89.4721 51.1566 89.1231C50.7712 88.6825 49.9082 88.4806 49.3207 88.7377Z" fill="#933944"/>
</g>
</g>
<defs>
<clipPath id="clip0_2004_567">
<rect width="94" height="94" fill="white" transform="translate(3 3)"/>
</clipPath>
</defs>
</svg>
