<svg width="100" height="100" viewBox="0 0 100 100" fill="none" xmlns="http://www.w3.org/2000/svg">
<g clip-path="url(#clip0_2004_569)">
<mask id="mask0_2004_569" style="mask-type:luminance" maskUnits="userSpaceOnUse" x="3" y="3" width="94" height="94">
<path d="M97 3H3V97H97V3Z" fill="white"/>
</mask>
<g mask="url(#mask0_2004_569)">
<path d="M48.1908 3.3694C47.2686 3.79038 45.9456 5.15354 45.765 5.89527C45.6849 6.19598 45.5046 6.39643 45.284 6.39643C44.1414 6.39643 39.0896 7.51905 36.6639 8.3209C20.7068 13.5531 9.2402 27.6459 7.19546 44.485C6.93485 46.6701 6.93485 52.3232 7.19546 54.5083C8.17774 62.587 11.4052 70.345 16.4169 76.6596C19.043 79.9674 22.7716 83.3352 26.5404 85.8411C30.1087 88.1866 36.3433 90.8928 39.8914 91.6346C40.974 91.8551 41.1144 91.8349 41.6155 91.454C42.0565 91.1333 42.1967 90.8728 42.2369 90.151C42.3172 88.9483 41.9762 88.6877 39.4304 87.966C32.3941 85.9212 26.8011 82.5534 21.609 77.241C16.5973 72.0691 13.2495 66.075 11.5055 59.119C9.98193 53.0449 9.98193 45.9283 11.5255 39.8541C14.6127 27.5256 23.4533 17.3218 35.1804 12.5307C39.0896 10.927 45.6448 9.38336 45.8453 10.0048C46.0456 10.5661 47.429 11.8892 48.1908 12.23C49.1931 12.6911 51.2378 12.7312 52.2602 12.2901C54.0443 11.5484 55.1068 9.88454 55.1068 7.79969C55.1068 5.71485 54.0443 4.05098 52.2602 3.30926C51.2378 2.86823 49.1931 2.90833 48.1908 3.3694ZM51.2979 6.79736C51.5184 7.01787 51.699 7.45891 51.699 7.79969C51.699 8.14048 51.5184 8.5815 51.2979 8.80203C51.0774 9.02254 50.6364 9.20296 50.2956 9.20296C49.9549 9.20296 49.5138 9.02254 49.2933 8.80203C49.0728 8.5815 48.8923 8.14048 48.8923 7.79969C48.8923 7.45891 49.0728 7.01787 49.2933 6.79736C49.5138 6.57685 49.9549 6.39643 50.2956 6.39643C50.6364 6.39643 51.0774 6.57685 51.2979 6.79736Z" fill="#933944"/>
<path d="M58.8332 7.61362C58.4122 7.93437 58.3119 8.19497 58.3119 8.87657C58.3119 10.0393 58.6729 10.2999 61.1586 11.0215C68.215 13.0663 73.9484 16.5344 79.0603 21.8467C85.2145 28.2616 88.9031 36.0197 89.9856 44.9204C90.3064 47.5063 90.146 53.801 89.6848 56.3067C88.6025 62.2406 86.2769 67.7132 82.5684 73.0056C80.8845 75.4112 76.2137 80.082 73.808 81.766C68.4355 85.5346 62.8024 87.9003 56.9088 88.8824C55.2448 89.1632 54.8038 89.1832 54.7437 88.9827C54.5633 88.4616 53.2203 87.1385 52.4785 86.7776C50.1931 85.5947 47.2863 86.4368 46.0034 88.6419C44.5801 91.0675 45.4821 94.2549 47.9279 95.4779C49.2911 96.1594 51.1554 96.1995 52.4383 95.5781C53.3605 95.1369 54.6434 93.7739 54.824 93.0722C54.9242 92.6914 55.1647 92.5911 56.6681 92.3906C68.6159 90.7068 79.6016 83.7304 86.4974 73.4065C90.0056 68.1542 92.4915 61.3986 93.3935 54.6429C93.6741 52.3977 93.634 46.1631 93.3134 43.6774C91.0081 26.6377 79.0002 12.6052 62.6622 7.87423C59.8757 7.07237 59.5549 7.05232 58.8332 7.61362ZM51.2956 90.1855C52.1577 91.0475 51.5161 92.5911 50.2933 92.5911C49.5316 92.5911 48.8902 91.9495 48.8902 91.1877C48.8902 90.4261 49.5316 89.7846 50.2933 89.7846C50.6341 89.7846 51.0751 89.965 51.2956 90.1855Z" fill="#933944"/>
<path d="M45.0277 16.1199C39.8356 16.9619 35.0044 18.9465 30.5942 22.0337C28.2287 23.6975 24.52 27.4062 22.7959 29.8518C20.2501 33.4402 18.1652 38.2113 17.183 42.7417C16.782 44.5259 16.7419 45.3678 16.7419 49.4976C16.7419 53.6271 16.782 54.469 17.183 56.2532C18.1853 60.8238 20.23 65.5148 22.7959 69.1432C24.52 71.5688 28.2086 75.2775 30.6543 77.0216C34.1824 79.5272 39.0137 81.6323 43.5443 82.6146C45.3283 83.0154 46.1704 83.0556 50.2999 83.0556C54.4295 83.0556 55.2715 83.0154 57.0556 82.6146C61.5862 81.6323 66.3573 79.5474 69.9455 77.0014C72.3711 75.2974 76.0598 71.5887 77.8239 69.1432C80.3298 65.615 82.4346 60.7836 83.4169 56.2532C83.8178 54.469 83.8579 53.6271 83.8579 49.4976C83.8579 45.388 83.8178 44.5259 83.4169 42.7619C80.4902 29.3506 70.4668 19.2873 57.1758 16.4006C54.5898 15.8393 47.7139 15.6789 45.0277 16.1199ZM48.6962 25.6421V31.8565H43.7847C40.4771 31.8565 38.8734 31.7964 38.8734 31.636C38.8734 31.2953 40.2766 28.0076 40.9381 26.8449C42.0808 24.8 43.5443 22.8355 44.7269 21.7129C45.8296 20.7106 47.8542 19.4677 48.4556 19.4276C48.6361 19.4276 48.6962 20.7908 48.6962 25.6421ZM53.4873 20.029C55.6323 21.1115 57.7772 23.477 59.6617 26.8449C60.3233 28.0076 61.7264 31.2953 61.7264 31.636C61.7264 31.7964 60.1227 31.8565 56.8151 31.8565H51.9036V25.6421C51.9036 21.5125 51.9637 19.4276 52.1041 19.4276C52.2244 19.4276 52.8458 19.6882 53.4873 20.029ZM39.3746 22.8155C37.7308 25.2411 36.4878 27.727 35.6659 30.1526L35.1246 31.7562L30.3737 31.8164L25.6026 31.8565L26.5647 30.6337C28.9903 27.5464 33.0999 24.2188 36.7485 22.3945C37.9712 21.7731 40.3367 20.7707 40.8179 20.6304C40.8378 20.6304 40.1965 21.6127 39.3746 22.8155ZM63.8514 22.3945C67.5 24.2188 71.6095 27.5464 74.0351 30.6337L74.9972 31.8565L70.2463 31.8164L65.4952 31.7562L64.8337 29.9321C63.7312 26.8048 62.348 24.2789 60.0025 21.0714L59.6617 20.6104L60.9446 21.0915C61.6463 21.3521 62.9494 21.9334 63.8514 22.3945ZM33.942 36.2066C33.4608 38.2514 32.8594 42.802 32.719 45.388L32.5987 47.8937H26.2841H19.9895L20.1298 46.5307C20.4907 43.0827 21.5932 39.1335 22.9563 36.4271L23.638 35.0639H28.9302H34.2024L33.942 36.2066ZM48.6962 41.4788V47.8937H42.3415H36.0066L36.1271 45.5282C36.2875 42.9021 36.6482 40.1759 37.2897 37.1088L37.7308 35.0639H43.2035H48.6962V41.4788ZM63.3101 37.1088C63.9517 40.1759 64.3126 42.9021 64.4728 45.5282L64.5932 47.8937H58.2584H51.9036V41.4788V35.0639H57.3963H62.8691L63.3101 37.1088ZM77.6435 36.4271C79.0065 39.1335 80.1093 43.0827 80.47 46.5307L80.6104 47.8937H74.3157H68.0011L67.8809 45.388C67.7404 42.802 67.139 38.2514 66.6579 36.2066L66.3974 35.0639H71.6696H76.9618L77.6435 36.4271ZM32.719 53.6071C32.8594 56.1931 33.4608 60.7437 33.942 62.7684L34.2024 63.9311H28.9102H23.6178L22.8161 62.2471C21.3927 59.2001 20.4907 55.8923 20.1298 52.4443L19.9895 51.1012H26.2841H32.5987L32.719 53.6071ZM48.6962 57.5162V63.9311H43.2035H37.7308L37.2897 61.8662C36.6482 58.8192 36.2875 56.0928 36.1271 53.4467L36.0066 51.1012H42.3415H48.6962V57.5162ZM64.4728 53.4467C64.3126 56.0928 63.9517 58.8192 63.3101 61.8662L62.8691 63.9311H57.3963H51.9036V57.5162V51.1012H58.2584H64.5932L64.4728 53.4467ZM80.47 52.4443C80.1093 55.9125 79.0065 59.8617 77.6435 62.5679L76.9618 63.9311H71.6696H66.3974L66.7581 62.167C67.3194 59.5207 67.7404 56.2934 67.8809 53.5468L68.0011 51.1012H74.3157H80.6104L80.47 52.4443ZM35.7662 69.0629C36.8687 72.1901 38.2519 74.7162 40.5974 77.9236L40.9381 78.3846L39.6552 77.9036C34.8641 76.0994 29.692 72.3106 26.5647 68.3614L25.6026 67.1384L30.3535 67.1786L35.1046 67.2387L35.7662 69.0629ZM48.6962 73.353C48.6962 77.4825 48.6361 79.5674 48.4957 79.5674C48.3755 79.5674 47.7541 79.3067 47.1125 78.986C44.326 77.5626 41.6999 74.235 39.6954 69.5241C39.2342 68.4615 38.8734 67.4794 38.8734 67.3589C38.8734 67.1986 40.2766 67.1384 43.7847 67.1384H48.6962V73.353ZM61.7264 67.3589C61.7264 67.6999 60.3233 70.9875 59.6617 72.1502C57.7772 75.5179 55.6323 77.8834 53.4873 78.966C52.8458 79.3067 52.2244 79.5674 52.1041 79.5674C51.9637 79.5674 51.9036 77.4825 51.9036 73.353V67.1384H56.8151C60.1227 67.1384 61.7264 67.1986 61.7264 67.3589ZM74.7568 67.2988C74.7568 67.6196 72.2509 70.4261 70.6272 71.9095C68.0211 74.3353 64.2924 76.6407 60.9848 77.8834L59.762 78.3446L61.2253 76.1595C62.0472 74.9767 63.0497 73.2326 63.4907 72.3106C64.1722 70.9072 64.4929 70.0853 65.4351 67.3791C65.4952 67.1985 66.6179 67.1384 70.1461 67.1384C72.6719 67.1384 74.7568 67.2187 74.7568 67.2988Z" fill="#933944"/>
</g>
</g>
<defs>
<clipPath id="clip0_2004_569">
<rect width="94" height="94" fill="white" transform="translate(3 3)"/>
</clipPath>
</defs>
</svg>
