<svg width="100" height="100" viewBox="0 0 100 100" fill="none" xmlns="http://www.w3.org/2000/svg">
<path d="M71.3781 8.73804C70.2215 8.88491 69.0465 9.41733 68.2387 10.1884C65.2643 12.9607 66.3477 17.165 71.4149 22.4709C72.5347 23.6275 73.214 24.1966 73.4711 24.1966C73.7097 24.1966 74.4624 23.9947 75.1602 23.756C79.7315 22.1954 82.9078 20.1576 84.0093 18.0646C84.3949 17.3119 84.4868 16.8712 84.4868 15.8431C84.4868 14.154 83.9543 12.9056 82.7243 11.804C81.2371 10.4638 79.4012 10.115 77.4368 10.7943L76.4268 11.1431L75.6558 10.3353C75.2336 9.89467 74.6277 9.39898 74.2972 9.23373C73.673 8.90327 72.1309 8.64624 71.3781 8.73804ZM73.7465 11.4001C74.1321 11.6572 74.6643 12.2263 74.9031 12.6669C75.4906 13.7501 76.1149 13.9521 76.9227 13.3279C77.2531 13.0709 77.8406 12.7587 78.2262 12.6302C80.7046 11.8224 83.2934 14.7415 82.1184 17.0181C81.439 18.3584 77.8039 20.6716 74.9581 21.5529L73.9484 21.8833L73.0121 20.9654C70.8824 18.9091 68.9546 15.8431 68.6977 14.1908C68.5874 13.3646 68.9914 12.2814 69.6706 11.6755C70.7539 10.7025 72.498 10.574 73.7465 11.4001Z" fill="#933944"/>
<path d="M62.748 13.7322C62.2706 14.2096 62.289 14.5033 62.8215 15.7885L63.2621 16.8534L62.4909 17.037C59.3147 17.8447 55.5694 19.6073 53.0175 21.5166C51.1265 22.9303 48.4644 25.6475 47.1975 27.4651C46.6652 28.2178 46.2062 28.9154 46.1694 29.0257C46.1328 29.1725 45.6003 29.0807 44.4621 28.7319C40.9003 27.6119 36.0902 27.1163 32.4734 27.4835C31.335 27.6119 30.3621 27.667 30.3253 27.6303C30.2703 27.5935 30.4355 27.0612 30.6559 26.4369C30.9862 25.519 31.023 25.2252 30.8394 24.8397C30.5456 24.2155 29.4625 24.1787 29.0769 24.7846C28.93 25.0233 27.81 27.9607 26.58 31.3388C24.1015 38.0951 24.0465 38.3706 25.2581 38.4807C26.0475 38.5541 26.2862 38.3338 26.6902 37.2138C27.0206 36.3144 27.0206 36.3144 28.4159 35.8737C30.6006 35.176 32.3449 34.9373 35.209 34.9373C37.9444 34.9373 39.3765 35.121 41.855 35.8003C43.1034 36.1307 43.2503 36.2225 43.1034 36.4979C42.7362 37.1772 42.3506 40.5369 42.3506 42.942C42.3506 47.4401 43.1218 50.7631 45.123 54.7654C45.8206 56.1791 46.9406 58.0335 47.5831 58.8963C49.9331 62.0357 53.5315 65.0466 56.9281 66.7175C58.5803 67.5435 58.5621 67.2682 57.1484 70.1873C53.8069 77.1638 47.2343 82.1025 39.3215 83.6081C37.2652 83.9935 33.3178 83.9935 31.1331 83.6081C26.1394 82.7085 21.4945 80.2666 17.8593 76.6131C15.7113 74.4466 14.4078 72.6475 13.1777 70.0404C11.4152 66.3319 10.7726 63.5229 10.7726 59.5388C10.7726 52.9479 13.2328 46.7975 17.7308 42.226C18.9609 40.9776 19.3097 40.7022 19.6585 40.7757C20.9621 41.106 21.5679 41.1244 21.8617 40.8123C22.3206 40.3716 22.2656 39.4904 21.7699 39.1784C21.3476 38.9397 9.35893 36.81 8.3308 36.81C7.76167 36.81 7.30268 37.2691 7.30268 37.8197C7.30268 38.3888 7.94526 38.8295 8.97339 38.9763C9.52417 39.0498 10.0199 39.1416 10.0933 39.1784C10.1667 39.2335 9.72611 39.931 9.13861 40.7757C6.47651 44.4841 4.60386 48.9638 3.66753 53.8475C3.42886 55.1144 3.35542 56.4729 3.37378 59.7225C3.37378 63.3944 3.42886 64.2022 3.79604 65.8729C5.24643 72.6659 8.9183 79.055 13.8386 83.351C15.7113 85.0034 18.6488 86.9678 20.907 88.0878C29.7378 92.5307 40.6434 92.5675 49.3272 88.1795C56.5059 84.581 61.9402 78.706 64.8777 71.4175L65.6487 69.5263L69.1003 69.4713C72.919 69.4163 74.2043 69.2144 77.3803 68.1678C82.3559 66.5154 87.0374 63.1373 90.1953 58.9147C92.3616 56.0322 94.1793 51.9932 95.0053 48.2112C95.4644 46.0263 95.4828 40.0045 95.0053 37.7831C93.8487 32.3854 91.4621 27.9241 87.68 24.1236L85.6788 22.1225L86.6152 21.3147C87.625 20.4151 87.8084 19.7358 87.2027 19.185C86.6519 18.6893 86.1378 18.8178 85.1097 19.7358C83.2371 21.3881 79.9324 23.2791 76.2605 24.7662C75.0303 25.2619 74.6815 25.7576 75.0121 26.492C75.3241 27.1529 75.9116 27.2081 77.1418 26.7123L78.2434 26.2533L78.9777 26.7307C85.073 30.531 88.6715 37.8013 87.9003 44.7779C86.8171 54.6369 78.7574 62.0175 69.0819 62.0175H67.2093L67.0991 58.4741C67.0256 55.8854 66.8972 54.4716 66.6034 53.1131C64.8959 45.1451 60.3062 37.9482 53.9906 33.4135L52.8522 32.5873L53.1644 32.0366C53.7519 31.0269 56.469 28.3097 57.8277 27.3732C60.4715 25.5373 63.2987 24.4174 66.3281 23.9768L67.9253 23.7565L68.7515 24.7112C69.6328 25.7393 70.3303 25.9596 70.8996 25.3721C71.4503 24.8213 71.23 24.2889 69.7246 22.5264C67.6866 20.158 66.1996 17.9365 65.098 15.66C64.0147 13.3467 63.519 12.9611 62.748 13.7322ZM65.2815 20.2682C65.814 21.0393 66.2178 21.7002 66.1812 21.7369C66.1628 21.7736 65.4834 21.9205 64.6756 22.0858C61.5546 22.7284 58.6355 24.0502 56.0834 25.9596C54.4312 27.2081 52.4116 29.2644 51.5855 30.5678C51.31 31.0085 51.0347 31.3572 50.9796 31.3572C50.9062 31.3572 50.2269 31.0635 49.4559 30.6963L48.0605 30.0354L48.905 28.8237C51.4387 25.1885 55.1288 22.1776 59.1862 20.4334C60.6184 19.8276 63.4824 18.9096 64.0515 18.8912C64.1984 18.8729 64.7675 19.4971 65.2815 20.2682ZM86.3397 25.776C91.664 31.1369 94.2527 39.0316 93.1328 46.5038C91.5722 56.8769 83.7328 65.01 73.2678 67.1029C71.0831 67.5253 66.7503 67.5253 64.5288 67.0847C52.3749 64.7163 43.8562 53.9944 44.4437 41.8222C44.5538 39.6925 44.9027 37.3791 45.1781 37.1222C45.2331 37.067 45.894 37.3425 46.6284 37.7279C47.8584 38.3888 47.9687 38.4991 47.9319 38.9947C47.6934 42.0425 47.675 44.5394 47.8584 45.8612C48.5562 50.5612 50.6309 54.7288 53.9171 57.9784C62.2522 66.2585 75.5812 66.2585 83.8612 57.9784C90.3788 51.4607 91.9578 41.7303 87.8637 33.3951C86.4866 30.6045 83.8246 27.4284 81.5296 25.8495L80.6116 25.2069L82.1906 24.3623L83.7694 23.5178L84.3203 23.9033C84.6324 24.1053 85.5319 24.9498 86.3397 25.776ZM40.9371 30.0538C44.6824 30.8248 48.6112 32.4404 51.6406 34.4416C58.2684 38.8295 62.9866 45.8979 64.6022 53.9026C64.9878 55.8303 65.2999 61.6503 65.0246 61.6503C64.7491 61.6503 63.4456 61.2831 62.6378 60.9894L61.885 60.7138L61.7749 58.2904C61.7199 56.9503 61.5362 55.1878 61.3709 54.3432C59.8288 46.467 54.6699 39.4904 47.6934 35.8737C45.6187 34.7904 42.8097 33.7807 40.5331 33.285C37.5222 32.6425 31.9409 32.7341 29.1137 33.4685C28.5812 33.6154 28.1222 33.7072 28.1038 33.6706C28.0121 33.5788 29.1687 30.3841 29.3522 30.1822C30.0131 29.4663 37.6875 29.3744 40.9371 30.0538ZM14.9218 40.0045C15.7296 40.1147 16.4273 40.2432 16.464 40.28C16.5007 40.3166 16.005 40.9041 15.3808 41.5835C9.57924 47.9175 7.21089 57.6479 9.41401 66.1482C11.966 75.9338 19.7503 83.3326 29.848 85.5541C32.2715 86.0866 37.8159 86.1416 40.1659 85.646C46.3897 84.3241 52.173 80.8909 55.8631 76.2826C57.4237 74.3366 58.8006 72.0784 59.6269 70.0588C59.994 69.1591 60.3428 68.4066 60.398 68.3331C60.4897 68.2597 63.2069 68.9388 63.4456 69.0857C63.5559 69.1591 62.6012 71.5091 61.8668 72.9597C57.7359 81.1847 49.5843 87.2066 40.2578 88.9691C37.669 89.4463 32.4184 89.3913 29.7562 88.8588C24.5605 87.8123 19.6953 85.4441 15.6195 81.9925C8.58783 76.0441 4.65893 66.442 5.44839 57.2441C5.92573 51.8279 7.57808 47.0178 10.3871 42.8135C11.8925 40.592 12.7738 39.5822 13.1593 39.6925C13.3246 39.7475 14.114 39.876 14.9218 40.0045ZM52.0812 41.7303C56.6527 46.155 59.1678 51.5526 59.7187 58.1069C59.8105 59.08 59.7737 59.6307 59.6637 59.6307C59.1862 59.6307 56.9647 57.9232 55.3859 56.3444C52.2097 53.1498 50.4656 49.5513 49.8781 44.9616C49.6762 43.2541 49.823 39.9862 50.0984 39.9862C50.2084 39.9862 51.0897 40.7756 52.0812 41.7303Z" fill="#933944"/>
<path d="M12.9944 20.7095C8.80845 23.1329 5.26509 25.2442 5.13658 25.4278C4.97134 25.6482 4.91626 26.8599 4.91626 29.9258C4.91626 33.708 4.95298 34.1118 5.24674 34.2771C5.74243 34.534 21.6233 37.0861 22.0823 36.9758C22.321 36.9208 22.5596 36.7189 22.6331 36.5536C24.0834 32.8633 28.4162 21.1501 28.4162 20.9114C28.4162 20.7278 28.2694 20.4524 28.1041 20.3056C27.6084 19.8649 21.1643 16.3032 20.8706 16.3032C20.7237 16.3032 17.1803 18.286 12.9944 20.7095ZM23.0187 19.8282C24.1569 20.4524 25.0565 21.0216 25.0197 21.0767C24.928 21.2052 20.7788 23.647 20.6319 23.647C20.485 23.647 17.3823 20.9298 17.3823 20.8013C17.3823 20.6911 20.6686 18.7083 20.8706 18.69C20.9256 18.69 21.8803 19.204 23.0187 19.8282ZM17.0151 23.4634C17.9147 24.2161 18.6491 24.8403 18.6307 24.8587C17.9881 25.281 13.6737 27.6861 13.637 27.6493C13.5819 27.5942 12.8108 23.6286 12.8108 23.4083C12.8108 23.2614 15.069 21.9946 15.2342 22.0497C15.3077 22.0681 16.1155 22.7107 17.0151 23.4634ZM23.9181 27.1902C23.1655 29.1915 22.4862 30.9358 22.3944 31.0824C22.3026 31.2661 22.1374 30.2564 21.9354 28.4755C21.7702 26.8783 21.6784 25.5563 21.7702 25.5196C21.8436 25.4829 22.6515 25.0239 23.5509 24.4915C24.469 23.9591 25.2218 23.5368 25.24 23.5368C25.2584 23.5552 24.6709 25.2075 23.9181 27.1902ZM11.2686 26.8231C11.4889 27.9614 11.6541 28.8977 11.6358 28.8977C11.4889 29.0446 7.0643 31.5415 7.04596 31.5048C7.04596 31.468 7.0643 30.3481 7.11939 29.008L7.21118 26.5661L8.95533 25.5747C9.91002 25.0239 10.7362 24.62 10.7913 24.6751C10.8463 24.7302 11.0666 25.7032 11.2686 26.8231ZM20.0627 30.5868C20.228 32.129 20.3381 33.4324 20.3014 33.4877C20.2463 33.5243 18.9979 32.6614 17.5108 31.5599L14.812 29.5771L17.162 28.2002L19.512 26.8415L19.6405 27.3005C19.6956 27.5574 19.8975 29.0446 20.0627 30.5868ZM15.1241 32.4962C16.3725 33.4142 17.3823 34.1852 17.3639 34.2036C17.2538 34.2955 9.32252 32.9184 9.32252 32.8267C9.32252 32.6981 12.4436 30.8439 12.6823 30.8255C12.7741 30.8071 13.8756 31.5599 15.1241 32.4962Z" fill="#933944"/>
<path d="M83.2374 34.9542C82.8336 35.3396 82.8702 35.7986 83.4027 37.4693C84.6695 41.4167 84.3207 45.5292 82.3746 49.4764C81.8605 50.5229 81.4749 51.551 81.5117 51.7714C81.5483 52.0099 81.7871 52.3036 82.0808 52.4323C82.5214 52.6526 82.6499 52.6342 83.0723 52.3771C83.6964 51.9549 85.2202 48.742 85.6976 46.7776C86.1933 44.7396 86.3586 41.5818 86.0648 39.5989C85.8077 37.763 85.1102 35.5049 84.6695 35.0092C84.2839 34.587 83.623 34.5502 83.2374 34.9542Z" fill="#933944"/>
<path d="M79.8041 53.3147C79.6756 53.4799 78.9597 54.1041 78.2253 54.71C77.1421 55.5912 76.885 55.9034 76.885 56.3072C76.885 56.8581 77.3807 57.4272 77.8397 57.4272C78.6659 57.4272 81.475 54.8753 81.475 54.1041C81.475 53.2046 80.3366 52.6721 79.8041 53.3147Z" fill="#933944"/>
<path d="M14.3532 58.9707C14.0594 59.2092 14.0043 59.4295 14.0411 60.678C14.0961 62.8629 14.4266 64.5519 14.8305 64.7722C15.3629 65.0476 15.8403 64.9926 16.2075 64.5886C16.5196 64.2398 16.5196 64.0929 16.336 62.7894C16.2075 62.0182 16.1157 60.9351 16.1157 60.4026C16.1157 58.9707 15.2895 58.2913 14.3532 58.9707Z" fill="#933944"/>
<path d="M15.8763 66.9388C15.4174 67.4528 15.4908 67.8935 16.317 69.5273C18.722 74.356 23.5139 78.4316 28.6911 80.0657C31.0229 80.8 31.4451 80.8367 31.8857 80.396C32.3264 79.9554 32.3814 79.4966 32.051 79.0375C31.9223 78.8723 31.0779 78.5235 30.1598 78.2664C24.8908 76.7976 20.4478 73.0707 17.951 68.0769C17.6205 67.416 17.2533 66.8285 17.1431 66.7551C16.776 66.5164 16.1885 66.6082 15.8763 66.9388Z" fill="#933944"/>
</svg>
