<svg width="100" height="100" viewBox="0 0 100 100" fill="none" xmlns="http://www.w3.org/2000/svg">
<mask id="mask0_2004_571" style="mask-type:luminance" maskUnits="userSpaceOnUse" x="4" y="4" width="93" height="93">
<path d="M96.3604 4H4.27881V96.0816H96.3604V4Z" fill="white"/>
</mask>
<g mask="url(#mask0_2004_571)">
<path d="M34.5278 4.36074C30.0135 4.9902 25.7152 7.38217 22.8916 10.8352C15.2122 20.2052 18.3955 34.2872 29.3302 39.3409C30.0855 39.6826 30.787 39.9703 30.9129 39.9703C31.4345 39.9703 30.8229 40.1862 29.1683 40.5999C20.8414 42.6142 13.4317 48.1355 8.86363 55.7071C6.38174 59.8076 4.69117 65.1669 4.51132 69.3755C4.43938 71.192 4.47535 71.4078 4.85303 72.0731C5.32063 72.8824 6.1839 73.5118 7.1371 73.7818C7.55073 73.8896 14.6367 73.9615 26.8482 73.9615H45.912L45.8581 74.8248C45.6962 77.0549 46.7753 79.8066 48.412 81.2812C48.9334 81.767 49.9047 82.4144 50.5521 82.738C51.1996 83.0438 51.8651 83.4935 52.0268 83.7452C52.1887 83.9971 52.4045 84.7884 52.4945 85.5078C52.8901 88.709 55.2821 91.3707 58.5013 92.2159C59.7783 92.5397 60.8214 92.5578 62.1882 92.27C62.7457 92.162 63.3931 92.1261 63.627 92.1801C63.8789 92.252 64.6161 92.8095 65.2635 93.4389C66.6304 94.7698 67.9433 95.4532 69.7059 95.759C72.3676 96.2086 75.0113 95.3454 76.9356 93.385C77.5112 92.7914 78.1947 92.27 78.4644 92.1981C78.7161 92.1261 79.3996 92.18 79.939 92.2879C84.6331 93.2231 89.0574 90.0578 89.6868 85.3098C89.9027 83.7271 90.1724 83.3674 91.7911 82.6122C93.3557 81.8748 94.5967 80.5979 95.4239 78.8533C96.0714 77.4865 96.0894 77.4326 96.0894 75.3103V73.1343L95.3339 71.6056C94.9023 70.7603 94.5606 69.951 94.5606 69.8251C94.5606 69.6991 94.9023 68.8899 95.3339 68.0445L96.0894 66.5159V64.3397C96.0894 62.2174 96.0714 62.1635 95.4239 60.7967C94.5967 59.0521 93.4096 57.8292 91.755 57.002C90.0824 56.1568 89.9027 55.9049 89.6868 54.3222C89.2552 51.0489 86.8273 48.2613 83.6799 47.452C82.421 47.1103 81.0722 47.0923 79.8493 47.3622C78.5902 47.6678 78.1406 47.488 76.8817 46.2112C74.9574 44.2867 72.5474 43.4775 69.8676 43.8731C67.9794 44.1428 66.7023 44.7902 65.2277 46.2112C63.8069 47.56 64.0227 47.5239 61.0191 47.2542C60.2278 47.1822 59.2926 47.2003 58.9509 47.2903C58.3754 47.452 58.2496 47.3981 57.3324 46.6428C53.9691 43.9091 48.7356 41.4091 44.2935 40.42L42.9086 40.1142L44.0416 39.6467C46.3797 38.7115 48.5737 37.2008 50.4263 35.2765C55.5879 29.845 56.9186 21.662 53.7533 14.8638C51.2715 9.5763 46.5955 5.85347 40.8763 4.61252C39.3297 4.27081 36.0564 4.14492 34.5278 4.36074ZM39.6175 7.50805C46.9911 8.80295 52.3686 15.1695 52.3686 22.6152C52.3686 32.7045 42.585 40.1503 32.9991 37.3627C27.6037 35.7979 23.6651 31.7873 22.1543 26.302C21.6507 24.4857 21.6867 20.547 22.2263 18.6766C24.4384 10.9611 31.902 6.17718 39.6175 7.50805ZM40.8224 42.9379C45.5523 43.5673 49.7428 45.186 53.7714 47.9197L55.3181 48.9807L54.5268 49.7901C53.4477 50.905 52.6923 52.5238 52.4945 54.1423C52.4045 54.8617 52.2067 55.6532 52.0448 55.8868C51.8829 56.1387 51.1457 56.6243 50.4083 56.984C48.0163 58.153 46.4516 60.3112 45.9661 63.1168C45.6783 64.8253 45.93 66.354 46.7933 68.0445C47.4049 69.2675 47.5666 70.0049 47.3329 70.6165C47.2249 70.8681 45.3186 70.9042 27.5676 70.9042C10.1945 70.9042 7.89245 70.8681 7.69461 70.6343C7.19104 70.0229 8.05431 65.1669 9.2413 62.0197C11.8851 55.0236 17.2085 49.1785 23.9707 45.8154C26.6865 44.4846 28.9344 43.7112 31.5962 43.2076C34.8156 42.6142 37.729 42.5243 40.8224 42.9379ZM73.1948 47.2722C73.5187 47.4341 74.3639 48.1175 75.0833 48.801C76.6659 50.2936 77.763 50.7072 79.5254 50.4734C81.5397 50.2217 82.8885 50.2936 83.7159 50.7253C85.5324 51.6785 86.3957 52.9373 86.6654 55.0775C86.9351 57.2537 87.8345 58.5486 89.6688 59.4118C91.9708 60.4909 92.9421 61.8399 93.086 64.0879C93.1579 65.4188 93.1399 65.4908 92.3845 66.9476C91.6472 68.3322 91.5931 68.5481 91.5931 69.8071C91.6112 71.0481 91.6651 71.2998 92.3666 72.6486C92.996 73.8896 93.1219 74.3032 93.1219 75.1845C93.1219 77.3787 92.0428 79.0692 90.0285 80.0224C89.3991 80.3282 88.6436 80.7777 88.338 81.0295C87.5106 81.7309 86.8452 83.1158 86.6654 84.5185C86.4676 86.1192 86.1258 86.8925 85.2266 87.7918C83.7518 89.2664 82.7447 89.5183 79.5254 89.1586C77.637 88.9608 76.7559 89.3025 74.9394 90.9751C73.7884 92.0362 73.2848 92.3598 72.4935 92.5936C70.5331 93.1692 68.4829 92.5217 67.152 90.9391C66.7742 90.5074 66.0549 89.9319 65.5513 89.6622C64.5622 89.1586 64.2744 89.1226 60.5697 89.2664C59.4365 89.3205 59.0948 89.2664 58.4115 88.9067C56.6669 88.0076 55.7856 86.7486 55.4979 84.7164C55.4079 84.051 55.2101 83.2057 55.0663 82.846C54.6166 81.767 53.4117 80.6338 51.9909 79.9685C49.9766 79.0153 49.0234 77.5226 48.9875 75.3103C48.9695 74.1593 49.0234 73.9435 49.6889 72.7925C50.3902 71.5695 50.4083 71.4797 50.4083 69.8251C50.4083 68.1705 50.3902 68.0806 49.6889 66.8576C49.0595 65.7425 48.9695 65.4727 48.9695 64.4297C48.9695 62.2535 49.9766 60.6528 51.8829 59.7357C54.113 58.6746 55.264 57.1278 55.4799 54.9158C55.7676 52.1102 58.3215 49.952 60.9113 50.3295C61.4688 50.4015 62.5299 50.4734 63.2673 50.4734C64.9219 50.4734 65.8212 50.0598 67.17 48.6749C68.0513 47.7578 68.7885 47.2722 69.7418 46.9664C70.4253 46.7326 72.5115 46.9306 73.1948 47.2722Z" fill="#933944"/>
<path d="M67.7626 53.8895C62.5472 55.0584 58.2667 58.5114 56.1624 63.2774C55.2094 65.4356 54.9036 66.9824 54.9216 69.8238C54.9216 73.5466 55.623 75.9386 57.5834 78.8881C61.0723 84.1397 67.4749 86.8553 73.8594 85.8123C79.6145 84.8951 84.6682 80.5068 86.4667 74.9315C89.4701 65.5614 83.8949 55.8858 74.363 53.9254C72.7444 53.5837 69.2194 53.5657 67.7626 53.8895ZM74.0393 56.9829C74.6868 57.1267 75.9995 57.6303 76.9347 58.0978C78.3915 58.7992 78.8951 59.1769 80.2619 60.5437C82.9597 63.2415 84.2005 66.173 84.2005 69.8238C84.2005 73.4388 82.9417 76.4242 80.3519 78.9961C78.6254 80.7227 77.1505 81.6579 75.0465 82.3592C73.7694 82.7909 73.3378 82.8448 71.0898 82.8628C68.9136 82.8628 68.392 82.8089 67.313 82.4492C62.8888 80.9743 59.7235 77.7732 58.3747 73.4208C57.7812 71.4784 57.7812 68.1512 58.3747 66.2269C59.8135 61.6409 63.3204 58.2237 67.8346 57.0548C69.4711 56.6232 72.4206 56.5871 74.0393 56.9829Z" fill="#933944"/>
<path d="M76.3076 61.4072C75.7321 61.5691 74.9227 62.2526 72.1712 64.9863L68.754 68.3494L67.6391 67.3062C65.9665 65.7235 64.3299 65.4358 62.5314 66.371C61.1466 67.0904 60.3911 68.3674 60.3911 69.986C60.3911 70.7953 60.4991 71.3889 60.7508 71.9103C61.1646 72.7557 66.0204 77.4676 67.0455 78.0251C67.9268 78.4928 69.7792 78.4747 70.7325 77.9712C71.5957 77.5037 80.8937 68.1875 81.3253 67.3423C81.7569 66.497 81.883 65.1302 81.6131 64.177C81.0197 62.0368 78.6097 60.7778 76.3076 61.4072ZM78.3399 64.6086C78.5557 64.8244 78.7355 65.148 78.7355 65.346C78.7355 65.5977 77.1528 67.3423 74.2034 70.3276C69.8151 74.8239 69.2037 75.3814 68.6821 75.3994C68.5563 75.3994 67.3153 74.2843 65.9484 72.9355C63.3228 70.3637 63.0889 69.9679 63.7544 69.2485C64.3119 68.6191 64.8335 68.8349 66.5059 70.4537C67.9627 71.8564 68.1605 71.9822 68.808 71.9822C69.5095 71.9822 69.6534 71.8744 73.3762 68.1156C75.912 65.5618 77.3328 64.2489 77.5845 64.2489C77.7825 64.2489 78.1241 64.4108 78.3399 64.6086Z" fill="#933944"/>
</g>
</svg>
