<svg width="24" height="24" viewBox="0 0 24 24" fill="none" xmlns="http://www.w3.org/2000/svg">
<path d="M14.2494 7.50063C14.2494 7.30172 14.3284 7.11095 14.469 6.9703C14.6097 6.82965 14.8004 6.75063 14.9994 6.75063H23.2494C23.4483 6.75063 23.639 6.82965 23.7797 6.9703C23.9203 7.11095 23.9994 7.30172 23.9994 7.50063C23.9994 7.69954 23.9203 7.89031 23.7797 8.03096C23.639 8.17161 23.4483 8.25063 23.2494 8.25063H14.9994C14.8004 8.25063 14.6097 8.17161 14.469 8.03096C14.3284 7.89031 14.2494 7.69954 14.2494 7.50063ZM23.2494 11.2506H14.9994C14.8004 11.2506 14.6097 11.3296 14.469 11.4703C14.3284 11.611 14.2494 11.8017 14.2494 12.0006C14.2494 12.1995 14.3284 12.3903 14.469 12.531C14.6097 12.6716 14.8004 12.7506 14.9994 12.7506H23.2494C23.4483 12.7506 23.639 12.6716 23.7797 12.531C23.9203 12.3903 23.9994 12.1995 23.9994 12.0006C23.9994 11.8017 23.9203 11.611 23.7797 11.4703C23.639 11.3296 23.4483 11.2506 23.2494 11.2506ZM23.2494 15.7506H17.2494C17.0504 15.7506 16.8597 15.8296 16.719 15.9703C16.5784 16.111 16.4994 16.3017 16.4994 16.5006C16.4994 16.6995 16.5784 16.8903 16.719 17.031C16.8597 17.1716 17.0504 17.2506 17.2494 17.2506H23.2494C23.4483 17.2506 23.639 17.1716 23.7797 17.031C23.9203 16.8903 23.9994 16.6995 23.9994 16.5006C23.9994 16.3017 23.9203 16.111 23.7797 15.9703C23.639 15.8296 23.4483 15.7506 23.2494 15.7506ZM14.2259 17.8131C14.2504 17.9085 14.2559 18.0079 14.242 18.1054C14.2282 18.2029 14.1952 18.2968 14.1451 18.3816C14.0949 18.4664 14.0286 18.5404 13.9498 18.5996C13.871 18.6587 13.7813 18.7018 13.6859 18.7263C13.6248 18.7427 13.5617 18.7509 13.4984 18.7506C13.3321 18.7507 13.1704 18.6955 13.0389 18.5937C12.9074 18.4918 12.8134 18.3492 12.7719 18.1881C12.1944 15.9438 9.92748 14.2506 7.49841 14.2506C5.06935 14.2506 2.80248 15.9428 2.22498 18.1881C2.17525 18.3808 2.05101 18.5459 1.87959 18.647C1.70817 18.7481 1.50361 18.7769 1.31092 18.7272C1.11822 18.6775 0.953169 18.5532 0.852075 18.3818C0.750981 18.2104 0.722125 18.0058 0.771853 17.8131C1.29592 15.7778 2.81935 14.1297 4.75248 13.3131C4.00813 12.7398 3.4619 11.9479 3.1904 11.0484C2.9189 10.149 2.93573 9.18709 3.23855 8.29768C3.54137 7.40827 4.11498 6.63596 4.87893 6.08904C5.64289 5.54213 6.55887 5.24805 7.49841 5.24805C8.43796 5.24805 9.35394 5.54213 10.1179 6.08904C10.8819 6.63596 11.4555 7.40827 11.7583 8.29768C12.0611 9.18709 12.0779 10.149 11.8064 11.0484C11.5349 11.9479 10.9887 12.7398 10.2444 13.3131C12.1784 14.1297 13.7019 15.7778 14.2259 17.8131ZM7.49935 12.7506C8.0927 12.7506 8.67272 12.5747 9.16606 12.245C9.65941 11.9154 10.0439 11.4469 10.271 10.8987C10.4981 10.3505 10.5575 9.7473 10.4417 9.16536C10.326 8.58342 10.0402 8.04887 9.62067 7.62931C9.20112 7.20975 8.66657 6.92403 8.08462 6.80828C7.50268 6.69252 6.89948 6.75193 6.3513 6.97899C5.80312 7.20606 5.33459 7.59057 5.00494 8.08392C4.6753 8.57727 4.49935 9.15729 4.49935 9.75063C4.49935 10.5463 4.81542 11.3093 5.37803 11.872C5.94064 12.4346 6.7037 12.7506 7.49935 12.7506Z" fill="black"/>
</svg>
