<svg width="47" height="40" viewBox="0 0 47 40" fill="none" xmlns="http://www.w3.org/2000/svg">
<mask id="path-1-outside-1_1996_535" maskUnits="userSpaceOnUse" x="0" y="0" width="47" height="40" fill="black">
<rect fill="white" width="47" height="40"/>
<path d="M20.464 3.55999C17.968 5.864 15.664 8.648 13.552 11.912C11.536 15.176 10.528 17.912 10.528 20.12C10.528 22.904 12.256 24.296 15.712 24.296C17.44 24.296 18.64 24.92 19.312 26.168C19.984 27.416 20.32 28.856 20.32 30.488C20.32 32.504 19.456 34.28 17.728 35.816C16.096 37.352 14.176 38.12 11.968 38.12C8.608 38.12 6.064 37.112 4.336 35.096C2.704 32.984 1.888 30.008 1.888 26.168C1.888 21.368 3.52 16.856 6.784 12.632C10.048 8.31199 13.696 4.75999 17.728 1.976L20.464 3.55999ZM44.368 3.55999C41.872 5.864 39.568 8.648 37.456 11.912C35.44 15.176 34.432 17.912 34.432 20.12C34.432 22.904 36.16 24.296 39.616 24.296C41.344 24.296 42.544 24.92 43.216 26.168C43.888 27.416 44.224 28.856 44.224 30.488C44.224 32.504 43.36 34.28 41.632 35.816C40 37.352 38.08 38.12 35.872 38.12C32.512 38.12 29.968 37.112 28.24 35.096C26.608 32.984 25.792 30.008 25.792 26.168C25.792 21.368 27.424 16.856 30.688 12.632C33.952 8.31199 37.6 4.75999 41.632 1.976L44.368 3.55999Z"/>
</mask>
<path d="M20.464 3.55999L21.1423 4.2948L22.1393 3.37443L20.965 2.69457L20.464 3.55999ZM13.552 11.912L12.7124 11.3687L12.7067 11.3776L12.7012 11.3865L13.552 11.912ZM19.312 26.168L18.4315 26.6421L18.4315 26.6421L19.312 26.168ZM17.728 35.816L17.0636 35.0686L17.053 35.078L17.0426 35.0878L17.728 35.816ZM4.336 35.096L3.54472 35.7074L3.56023 35.7275L3.57674 35.7468L4.336 35.096ZM6.784 12.632L7.57533 13.2435L7.58187 13.2348L6.784 12.632ZM17.728 1.976L18.229 1.11057L17.681 0.79326L17.1598 1.1531L17.728 1.976ZM44.368 3.55999L45.0463 4.2948L46.0433 3.37443L44.869 2.69457L44.368 3.55999ZM37.456 11.912L36.6164 11.3687L36.6107 11.3776L36.6052 11.3865L37.456 11.912ZM43.216 26.168L42.3355 26.6421L42.3355 26.6421L43.216 26.168ZM41.632 35.816L40.9676 35.0686L40.957 35.078L40.9466 35.0878L41.632 35.816ZM28.24 35.096L27.4487 35.7074L27.4642 35.7275L27.4807 35.7468L28.24 35.096ZM30.688 12.632L31.4793 13.2435L31.4859 13.2348L30.688 12.632ZM41.632 1.976L42.133 1.11057L41.585 0.793261L41.0638 1.1531L41.632 1.976ZM19.7857 2.82519C17.22 5.19353 14.8635 8.04431 12.7124 11.3687L14.3916 12.4552C16.4645 9.25169 18.716 6.53447 21.1423 4.2948L19.7857 2.82519ZM12.7012 11.3865C10.6507 14.7064 9.528 17.6349 9.528 20.12H11.528C11.528 18.1891 12.4213 15.6456 14.4028 12.4375L12.7012 11.3865ZM9.528 20.12C9.528 21.7303 10.0384 23.0977 11.1967 24.0307C12.3136 24.9305 13.8759 25.296 15.712 25.296V23.296C14.0921 23.296 13.0624 22.9655 12.4513 22.4732C11.8816 22.0143 11.528 21.2937 11.528 20.12H9.528ZM15.712 25.296C17.1681 25.296 17.9752 25.7945 18.4315 26.6421L20.1925 25.6939C19.3048 24.0455 17.7119 23.296 15.712 23.296V25.296ZM18.4315 26.6421C19.0139 27.7237 19.32 28.9962 19.32 30.488H21.32C21.32 28.7158 20.9541 27.1083 20.1925 25.6939L18.4315 26.6421ZM19.32 30.488C19.32 32.175 18.6128 33.6915 17.0636 35.0686L18.3924 36.5634C20.2992 34.8685 21.32 32.833 21.32 30.488H19.32ZM17.0426 35.0878C15.593 36.4521 13.917 37.12 11.968 37.12V39.12C14.435 39.12 16.599 38.2519 18.4134 36.5442L17.0426 35.0878ZM11.968 37.12C8.81633 37.12 6.58489 36.1831 5.09526 34.4452L3.57674 35.7468C5.54311 38.0409 8.39967 39.12 11.968 39.12V37.12ZM5.12729 34.4846C3.67865 32.6098 2.888 29.8808 2.888 26.168H0.888C0.888 30.1352 1.72935 33.3582 3.54472 35.7074L5.12729 34.4846ZM2.888 26.168C2.888 21.6141 4.43058 17.3131 7.57529 13.2434L5.99272 12.0205C2.60943 16.3989 0.888 21.1219 0.888 26.168H2.888ZM7.58187 13.2348C10.7882 8.99109 14.3607 5.51625 18.2962 2.79889L17.1598 1.1531C13.0313 4.00374 9.30775 7.6329 5.98613 12.0292L7.58187 13.2348ZM17.227 2.84142L19.963 4.42542L20.965 2.69457L18.229 1.11057L17.227 2.84142ZM43.6897 2.82519C41.124 5.19353 38.7675 8.04431 36.6164 11.3687L38.2956 12.4552C40.3685 9.25169 42.62 6.53447 45.0463 4.2948L43.6897 2.82519ZM36.6052 11.3865C34.5547 14.7064 33.432 17.6349 33.432 20.12H35.432C35.432 18.1891 36.3253 15.6456 38.3068 12.4375L36.6052 11.3865ZM33.432 20.12C33.432 21.7303 33.9424 23.0977 35.1007 24.0307C36.2176 24.9305 37.7799 25.296 39.616 25.296V23.296C37.9961 23.296 36.9664 22.9655 36.3553 22.4732C35.7856 22.0143 35.432 21.2937 35.432 20.12H33.432ZM39.616 25.296C41.0721 25.296 41.8792 25.7945 42.3355 26.6421L44.0965 25.6939C43.2088 24.0455 41.6159 23.296 39.616 23.296V25.296ZM42.3355 26.6421C42.9179 27.7237 43.224 28.9962 43.224 30.488H45.224C45.224 28.7158 44.8581 27.1083 44.0965 25.6939L42.3355 26.6421ZM43.224 30.488C43.224 32.175 42.5168 33.6915 40.9676 35.0686L42.2964 36.5634C44.2032 34.8685 45.224 32.833 45.224 30.488H43.224ZM40.9466 35.0878C39.497 36.4521 37.821 37.12 35.872 37.12V39.12C38.339 39.12 40.503 38.2519 42.3174 36.5442L40.9466 35.0878ZM35.872 37.12C32.7203 37.12 30.4889 36.1831 28.9993 34.4452L27.4807 35.7468C29.4471 38.0409 32.3037 39.12 35.872 39.12V37.12ZM29.0313 34.4846C27.5826 32.6098 26.792 29.8808 26.792 26.168H24.792C24.792 30.1352 25.6334 33.3582 27.4487 35.7074L29.0313 34.4846ZM26.792 26.168C26.792 21.6141 28.3346 17.3131 31.4793 13.2434L29.8967 12.0205C26.5134 16.3989 24.792 21.1219 24.792 26.168H26.792ZM31.4859 13.2348C34.6922 8.99109 38.2647 5.51625 42.2002 2.79889L41.0638 1.1531C36.9353 4.00374 33.2118 7.6329 29.8901 12.0292L31.4859 13.2348ZM41.131 2.84142L43.867 4.42542L44.869 2.69457L42.133 1.11057L41.131 2.84142Z" fill="#933944" mask="url(#path-1-outside-1_1996_535)"/>
</svg>
